<?xml version="1.0" encoding="UTF-8" standalone="no"?>
<!-- Created with Inkscape (http://www.inkscape.org/) -->

<svg
   version="1.1"
   id="svg389"
   width="1440"
   height="1080"
   viewBox="0 0 1440 1080"
   sodipodi:docname="addition_pro_hrv_ir_mace.svg"
   inkscape:export-filename="addition_pro_hrv_ir_mace.png"
   inkscape:export-xdpi="96"
   inkscape:export-ydpi="96"
   inkscape:version="1.2.1 (9c6d41e4, 2022-07-14)"
   xmlns:inkscape="http://www.inkscape.org/namespaces/inkscape"
   xmlns:sodipodi="http://sodipodi.sourceforge.net/DTD/sodipodi-0.dtd"
   xmlns="http://www.w3.org/2000/svg"
   xmlns:svg="http://www.w3.org/2000/svg">
  <defs
     id="defs393">
    <clipPath
       clipPathUnits="userSpaceOnUse"
       id="clipPath495">
      <path
         d="M 59.04,73.44 H 545.76 V 372.96 H 59.04 Z"
         id="path493" />
    </clipPath>
    <clipPath
       clipPathUnits="userSpaceOnUse"
       id="clipPath233">
      <path
         d="M 59.04,73.44 H 545.76 V 372.96 H 59.04 Z"
         id="path231" />
    </clipPath>
    <clipPath
       clipPathUnits="userSpaceOnUse"
       id="clipPath769">
      <path
         d="M 59.04,73.44 H 545.76 V 372.96 H 59.04 Z"
         id="path767" />
    </clipPath>
  </defs>
  <sodipodi:namedview
     id="namedview391"
     pagecolor="#ffffff"
     bordercolor="#000000"
     borderopacity="0.25"
     inkscape:showpageshadow="2"
     inkscape:pageopacity="0.0"
     inkscape:pagecheckerboard="0"
     inkscape:deskcolor="#d1d1d1"
     showgrid="false"
     inkscape:zoom="0.48476312"
     inkscape:cx="473.4271"
     inkscape:cy="337.27813"
     inkscape:window-width="1787"
     inkscape:window-height="967"
     inkscape:window-x="1538"
     inkscape:window-y="47"
     inkscape:window-maximized="0"
     inkscape:current-layer="g753">
    <inkscape:page
       x="0"
       y="0"
       id="page395"
       width="1440"
       height="1080" />
  </sodipodi:namedview>
  <g
     id="g397"
     inkscape:groupmode="layer"
     inkscape:label="Page 1"
     transform="matrix(1.3333333,0,0,-1.3333333,0,576)">
    <g
       id="g399" />
    <g
       id="g401"
       transform="translate(3.926719,1.4132793)">
      <path
         d="M 77.07,73.44 H 527.73"
         style="fill:none;stroke:#000000;stroke-width:0.75;stroke-linecap:round;stroke-linejoin:round;stroke-miterlimit:10;stroke-dasharray:none;stroke-opacity:1"
         id="path403" />
      <path
         d="m 77.07,73.44 v -7.2"
         style="fill:none;stroke:#000000;stroke-width:0.75;stroke-linecap:round;stroke-linejoin:round;stroke-miterlimit:10;stroke-dasharray:none;stroke-opacity:1"
         id="path405" />
      <path
         d="m 167.2,73.44 v -7.2"
         style="fill:none;stroke:#000000;stroke-width:0.75;stroke-linecap:round;stroke-linejoin:round;stroke-miterlimit:10;stroke-dasharray:none;stroke-opacity:1"
         id="path407" />
      <path
         d="m 257.33,73.44 v -7.2"
         style="fill:none;stroke:#000000;stroke-width:0.75;stroke-linecap:round;stroke-linejoin:round;stroke-miterlimit:10;stroke-dasharray:none;stroke-opacity:1"
         id="path409" />
      <path
         d="m 347.47,73.44 v -7.2"
         style="fill:none;stroke:#000000;stroke-width:0.75;stroke-linecap:round;stroke-linejoin:round;stroke-miterlimit:10;stroke-dasharray:none;stroke-opacity:1"
         id="path411" />
      <path
         d="m 437.6,73.44 v -7.2"
         style="fill:none;stroke:#000000;stroke-width:0.75;stroke-linecap:round;stroke-linejoin:round;stroke-miterlimit:10;stroke-dasharray:none;stroke-opacity:1"
         id="path413" />
      <path
         d="m 527.73,73.44 v -7.2"
         style="fill:none;stroke:#000000;stroke-width:0.75;stroke-linecap:round;stroke-linejoin:round;stroke-miterlimit:10;stroke-dasharray:none;stroke-opacity:1"
         id="path415" />
      <text
         xml:space="preserve"
         transform="scale(1,-1)"
         style="font-style:normal;font-variant:normal;font-weight:normal;font-stretch:normal;font-size:16px;font-family:Helvetica;-inkscape-font-specification:'Helvetica, Normal';font-variant-ligatures:normal;font-variant-caps:normal;font-variant-numeric:normal;font-variant-east-asian:normal;writing-mode:lr-tb;fill:#000000;fill-opacity:1;fill-rule:nonzero;stroke:none"
         id="text419"
         x="68.889999"
         y="-47.52"><tspan
           sodipodi:role="line"
           id="tspan3037"
           x="68.889999"
           y="-47.52">64</tspan></text>
      <text
         xml:space="preserve"
         transform="scale(1,-1)"
         style="font-style:normal;font-variant:normal;font-weight:normal;font-stretch:normal;font-size:16px;font-family:Helvetica;-inkscape-font-specification:'Helvetica, Normal';font-variant-ligatures:normal;font-variant-caps:normal;font-variant-numeric:normal;font-variant-east-asian:normal;writing-mode:lr-tb;fill:#000000;fill-opacity:1;fill-rule:nonzero;stroke:none"
         id="text423"
         x="157.53"
         y="-47.52"><tspan
           sodipodi:role="line"
           id="tspan3035"
           x="157.53"
           y="-47.52">66</tspan></text>
      <text
         xml:space="preserve"
         transform="scale(1,-1)"
         style="font-style:normal;font-variant:normal;font-weight:normal;font-stretch:normal;font-size:16px;font-family:Helvetica;-inkscape-font-specification:'Helvetica, Normal';font-variant-ligatures:normal;font-variant-caps:normal;font-variant-numeric:normal;font-variant-east-asian:normal;writing-mode:lr-tb;fill:#000000;fill-opacity:1;fill-rule:nonzero;stroke:none"
         id="text427"
         x="247.66"
         y="-47.52"><tspan
           sodipodi:role="line"
           id="tspan3033"
           x="247.66"
           y="-47.52">68</tspan></text>
      <text
         xml:space="preserve"
         transform="scale(1,-1)"
         style="font-style:normal;font-variant:normal;font-weight:normal;font-stretch:normal;font-size:16px;font-family:Helvetica;-inkscape-font-specification:'Helvetica, Normal';font-variant-ligatures:normal;font-variant-caps:normal;font-variant-numeric:normal;font-variant-east-asian:normal;writing-mode:lr-tb;fill:#000000;fill-opacity:1;fill-rule:nonzero;stroke:none"
         id="text431"
         x="339.29001"
         y="-47.52"><tspan
           sodipodi:role="line"
           id="tspan3031"
           x="339.29001"
           y="-47.52">70</tspan></text>
      <text
         xml:space="preserve"
         transform="scale(1,-1)"
         style="font-style:normal;font-variant:normal;font-weight:normal;font-stretch:normal;font-size:16px;font-family:Helvetica;-inkscape-font-specification:'Helvetica, Normal';font-variant-ligatures:normal;font-variant-caps:normal;font-variant-numeric:normal;font-variant-east-asian:normal;writing-mode:lr-tb;fill:#000000;fill-opacity:1;fill-rule:nonzero;stroke:none"
         id="text435"
         x="429.42999"
         y="-47.52"><tspan
           sodipodi:role="line"
           id="tspan3029"
           x="429.42999"
           y="-47.52">72</tspan></text>
      <text
         xml:space="preserve"
         transform="scale(1,-1)"
         style="font-style:normal;font-variant:normal;font-weight:normal;font-stretch:normal;font-size:16px;font-family:Helvetica;-inkscape-font-specification:'Helvetica, Normal';font-variant-ligatures:normal;font-variant-caps:normal;font-variant-numeric:normal;font-variant-east-asian:normal;writing-mode:lr-tb;fill:#000000;fill-opacity:1;fill-rule:nonzero;stroke:none"
         id="text439"
         x="518.06"
         y="-47.52"><tspan
           sodipodi:role="line"
           id="tspan3027"
           x="518.06"
           y="-47.52">74</tspan></text>
      <path
         d="M 59.04,106.87 V 353.84"
         style="fill:none;stroke:#000000;stroke-width:0.75;stroke-linecap:round;stroke-linejoin:round;stroke-miterlimit:10;stroke-dasharray:none;stroke-opacity:1"
         id="path441" />
      <path
         d="m 59.04,106.87 h -7.2"
         style="fill:none;stroke:#000000;stroke-width:0.75;stroke-linecap:round;stroke-linejoin:round;stroke-miterlimit:10;stroke-dasharray:none;stroke-opacity:1"
         id="path443" />
      <path
         d="m 59.04,156.27 h -7.2"
         style="fill:none;stroke:#000000;stroke-width:0.75;stroke-linecap:round;stroke-linejoin:round;stroke-miterlimit:10;stroke-dasharray:none;stroke-opacity:1"
         id="path445" />
      <path
         d="m 59.04,205.66 h -7.2"
         style="fill:none;stroke:#000000;stroke-width:0.75;stroke-linecap:round;stroke-linejoin:round;stroke-miterlimit:10;stroke-dasharray:none;stroke-opacity:1"
         id="path447" />
      <path
         d="m 59.04,255.05 h -7.2"
         style="fill:none;stroke:#000000;stroke-width:0.75;stroke-linecap:round;stroke-linejoin:round;stroke-miterlimit:10;stroke-dasharray:none;stroke-opacity:1"
         id="path449" />
      <path
         d="m 59.04,304.44 h -7.2"
         style="fill:none;stroke:#000000;stroke-width:0.75;stroke-linecap:round;stroke-linejoin:round;stroke-miterlimit:10;stroke-dasharray:none;stroke-opacity:1"
         id="path451" />
      <path
         d="m 59.04,353.84 h -7.2"
         style="fill:none;stroke:#000000;stroke-width:0.75;stroke-linecap:round;stroke-linejoin:round;stroke-miterlimit:10;stroke-dasharray:none;stroke-opacity:1"
         id="path453" />
      <text
         xml:space="preserve"
         transform="matrix(0,1,1,0,0,0)"
         style="font-style:normal;font-variant:normal;font-weight:normal;font-stretch:normal;font-size:16px;font-family:Helvetica;-inkscape-font-specification:'Helvetica, Normal';font-variant-ligatures:normal;font-variant-caps:normal;font-variant-numeric:normal;font-variant-east-asian:normal;writing-mode:lr-tb;fill:#000000;fill-opacity:1;fill-rule:nonzero;stroke:none"
         id="text457"
         x="98.699997"
         y="41.759998"><tspan
           sodipodi:role="line"
           id="tspan3053"
           x="98.699997"
           y="41.759998">30</tspan></text>
      <text
         xml:space="preserve"
         transform="matrix(0,1,1,0,0,0)"
         style="font-style:normal;font-variant:normal;font-weight:normal;font-stretch:normal;font-size:16px;font-family:Helvetica;-inkscape-font-specification:'Helvetica, Normal';font-variant-ligatures:normal;font-variant-caps:normal;font-variant-numeric:normal;font-variant-east-asian:normal;writing-mode:lr-tb;fill:#000000;fill-opacity:1;fill-rule:nonzero;stroke:none"
         id="text461"
         x="148.09"
         y="41.759998"><tspan
           sodipodi:role="line"
           id="tspan3055"
           x="148.09"
           y="41.759998">40</tspan></text>
      <text
         xml:space="preserve"
         transform="matrix(0,1,1,0,0,0)"
         style="font-style:normal;font-variant:normal;font-weight:normal;font-stretch:normal;font-size:16px;font-family:Helvetica;-inkscape-font-specification:'Helvetica, Normal';font-variant-ligatures:normal;font-variant-caps:normal;font-variant-numeric:normal;font-variant-east-asian:normal;writing-mode:lr-tb;fill:#000000;fill-opacity:1;fill-rule:nonzero;stroke:none"
         id="text465"
         x="197.49001"
         y="41.759998"><tspan
           sodipodi:role="line"
           id="tspan3057"
           x="197.49001"
           y="41.759998">50</tspan></text>
      <text
         xml:space="preserve"
         transform="matrix(0,1,1,0,0,0)"
         style="font-style:normal;font-variant:normal;font-weight:normal;font-stretch:normal;font-size:16px;font-family:Helvetica;-inkscape-font-specification:'Helvetica, Normal';font-variant-ligatures:normal;font-variant-caps:normal;font-variant-numeric:normal;font-variant-east-asian:normal;writing-mode:lr-tb;fill:#000000;fill-opacity:1;fill-rule:nonzero;stroke:none"
         id="text469"
         x="246.88"
         y="41.759998"><tspan
           sodipodi:role="line"
           id="tspan3059"
           x="246.88"
           y="41.759998">60</tspan></text>
      <text
         xml:space="preserve"
         transform="matrix(0,1,1,0,0,0)"
         style="font-style:normal;font-variant:normal;font-weight:normal;font-stretch:normal;font-size:16px;font-family:Helvetica;-inkscape-font-specification:'Helvetica, Normal';font-variant-ligatures:normal;font-variant-caps:normal;font-variant-numeric:normal;font-variant-east-asian:normal;writing-mode:lr-tb;fill:#000000;fill-opacity:1;fill-rule:nonzero;stroke:none"
         id="text473"
         x="296.26999"
         y="41.759998"><tspan
           sodipodi:role="line"
           id="tspan3061"
           x="296.26999"
           y="41.759998">70</tspan></text>
      <text
         xml:space="preserve"
         transform="matrix(0,1,1,0,0,0)"
         style="font-style:normal;font-variant:normal;font-weight:normal;font-stretch:normal;font-size:16px;font-family:Helvetica;-inkscape-font-specification:'Helvetica, Normal';font-variant-ligatures:normal;font-variant-caps:normal;font-variant-numeric:normal;font-variant-east-asian:normal;writing-mode:lr-tb;fill:#000000;fill-opacity:1;fill-rule:nonzero;stroke:none"
         id="text477"
         x="345.67001"
         y="41.759998"><tspan
           sodipodi:role="line"
           id="tspan3063"
           x="345.67001"
           y="41.759998">80</tspan></text>
    </g>
    <g
       id="g479"
       transform="translate(3.926719,1.4132793)">
      <text
         xml:space="preserve"
         transform="matrix(0,1,1,0,0,0)"
         style="font-style:normal;font-variant:normal;font-weight:normal;font-stretch:normal;font-size:18px;font-family:Helvetica;-inkscape-font-specification:'Helvetica, Normal';font-variant-ligatures:normal;font-variant-caps:normal;font-variant-numeric:normal;font-variant-east-asian:normal;writing-mode:lr-tb;fill:#000000;fill-opacity:1;fill-rule:nonzero;stroke:none"
         id="text487"
         x="104.11"
         y="12.96"><tspan
           sodipodi:role="line"
           id="tspan3049"
           x="104.11"
           y="12.96">Incidence per 1000 person−years</tspan></text>
    </g>
    <g
       id="g489"
       transform="translate(3.926719,1.4132793)">
      <g
         id="g491"
         clip-path="url(#clipPath495)">
        <path
           d="m 77.07,114.9 4.5,0.93 4.51,0.94 4.51,0.93 4.5,0.95 4.51,0.95 4.51,0.95 4.5,0.95 4.51,0.97 4.51,0.96 4.5,0.97 4.51,0.98 4.51,0.98 4.5,0.98 4.51,0.99 4.51,1 4.5,0.99 4.51,1.01 4.51,1.01 4.5,1.01 4.51,1.02 4.51,1.02 4.5,1.02 4.51,1.04 4.51,1.03 4.5,1.04 4.51,1.05 4.51,1.05 4.5,1.06 4.51,1.06 4.51,1.06 4.5,1.08 4.51,1.07 4.51,1.08 4.5,1.09 4.51,1.09 4.51,1.09 4.5,1.1 4.51,1.11 4.51,1.11 4.5,1.12 4.51,1.12 4.51,1.12 4.5,1.13 4.51,1.13 4.51,1.12 4.5,1.13 4.51,1.12 4.51,1.12 4.5,1.12 4.51,1.11 4.51,1.09 4.5,1.09 4.51,1.08 4.51,1.06 4.5,1.05 4.51,1.04 4.51,1.01 4.5,1 4.51,0.98 4.51,0.95 4.5,0.93 4.51,0.91 4.51,0.87 4.5,0.85 4.51,0.81 4.51,0.79 4.5,0.75 4.51,0.71 4.51,0.67 4.5,0.63 4.51,0.59 4.51,0.55 4.5,0.5 4.51,0.45 4.51,0.4 4.5,0.34 4.51,0.29 4.51,0.24 4.5,0.18 4.51,0.11 4.51,0.05 4.5,-0.01 4.51,-0.07 4.51,-0.13 4.5,-0.18 4.51,-0.24 4.51,-0.29 4.5,-0.33 4.51,-0.38 4.51,-0.42 4.5,-0.46 4.51,-0.5 4.51,-0.53 4.5,-0.56 4.51,-0.59 4.51,-0.61 4.5,-0.64 4.51,-0.66 4.51,-0.67 4.5,-0.68 v 164.75 l -4.5,1.03 -4.51,1.04 -4.51,1.05 -4.5,1.06 -4.51,1.05 -4.51,1.05 -4.5,1.04 -4.51,1.01 -4.51,0.98 -4.5,0.95 -4.51,0.9 -4.51,0.86 -4.5,0.8 -4.51,0.73 -4.51,0.65 -4.5,0.58 -4.51,0.48 -4.51,0.39 -4.5,0.28 -4.51,0.16 -4.51,0.05 -4.5,-0.08 -4.51,-0.19 -4.51,-0.31 -4.5,-0.43 -4.51,-0.53 -4.51,-0.64 -4.5,-0.74 -4.51,-0.85 -4.51,-0.94 -4.5,-1.04 -4.51,-1.13 -4.51,-1.21 -4.5,-1.3 -4.51,-1.37 -4.51,-1.45 -4.5,-1.52 -4.51,-1.58 -4.51,-1.65 -4.5,-1.71 -4.51,-1.76 -4.51,-1.81 -4.5,-1.86 -4.51,-1.9 -4.51,-1.94 -4.5,-1.97 -4.51,-2.01 -4.51,-2.03 -4.5,-2.05 -4.51,-2.08 -4.51,-2.09 -4.5,-2.1 -4.51,-2.11 -4.51,-2.12 -4.5,-2.12 -4.51,-2.12 -4.51,-2.12 -4.5,-2.11 -4.51,-2.1 -4.51,-2.09 -4.5,-2.08 -4.51,-2.06 -4.51,-2.05 -4.5,-2.03 -4.51,-2.01 -4.51,-2.01 -4.5,-1.99 -4.51,-1.97 -4.51,-1.96 -4.5,-1.95 -4.51,-1.93 -4.51,-1.92 -4.5,-1.91 -4.51,-1.89 -4.51,-1.88 -4.5,-1.86 -4.51,-1.86 -4.51,-1.84 -4.5,-1.82 -4.51,-1.82 -4.51,-1.8 -4.5,-1.79 -4.51,-1.78 -4.51,-1.76 -4.5,-1.75 -4.51,-1.74 -4.51,-1.73 -4.5,-1.71 -4.51,-1.71 -4.51,-1.69 -4.5,-1.68 -4.51,-1.66 -4.51,-1.66 -4.5,-1.65 -4.51,-1.63 -4.51,-1.62 -4.5,-1.61 -4.51,-1.6 -4.51,-1.59 -4.5,-1.58 z"
           style="fill:#8b0000;fill-opacity:0.149;fill-rule:nonzero;stroke:none"
           id="path497" />
        <path
           d="m 77.07,94.68 4.5,0.82 4.51,0.81 4.51,0.83 4.5,0.82 4.51,0.83 4.51,0.83 4.5,0.84 4.51,0.84 4.51,0.85 4.5,0.84 4.51,0.86 4.51,0.85 4.5,0.86 4.51,0.87 4.51,0.87 4.5,0.87 4.51,0.88 4.51,0.88 4.5,0.88 4.51,0.89 4.51,0.89 4.5,0.9 4.51,0.9 4.51,0.91 4.5,0.91 4.51,0.91 4.51,0.92 4.5,0.92 4.51,0.93 4.51,0.93 4.5,0.93 4.51,0.94 4.51,0.94 4.5,0.95 4.51,0.95 4.51,0.96 4.5,0.96 4.51,0.96 4.51,0.97 4.5,0.97 4.51,0.98 4.51,0.98 4.5,0.98 4.51,0.99 4.51,0.98 4.5,0.98 4.51,0.98 4.51,0.98 4.5,0.97 4.51,0.96 4.51,0.96 4.5,0.94 4.51,0.94 4.51,0.93 4.5,0.91 4.51,0.9 4.51,0.88 4.5,0.87 4.51,0.85 4.51,0.83 4.5,0.8 4.51,0.79 4.51,0.76 4.5,0.73 4.51,0.71 4.51,0.68 4.5,0.64 4.51,0.62 4.51,0.58 4.5,0.54 4.51,0.51 4.51,0.47 4.5,0.43 4.51,0.38 4.51,0.34 4.5,0.3 4.51,0.24 4.51,0.19 4.5,0.15 4.51,0.08 4.51,0.04 4.5,-0.03 4.51,-0.07 4.51,-0.13 4.5,-0.18 4.51,-0.22 4.51,-0.27 4.5,-0.31 4.51,-0.35 4.51,-0.39 4.5,-0.42 4.51,-0.46 4.51,-0.48 4.5,-0.52 4.51,-0.54 4.51,-0.56 4.5,-0.58 4.51,-0.6 4.51,-0.62 4.5,-0.62 v 128.94 l -4.5,0.81 -4.51,0.81 -4.51,0.83 -4.5,0.83 -4.51,0.83 -4.51,0.82 -4.5,0.82 -4.51,0.8 -4.51,0.77 -4.5,0.75 -4.51,0.72 -4.51,0.67 -4.5,0.63 -4.51,0.58 -4.51,0.51 -4.5,0.45 -4.51,0.38 -4.51,0.29 -4.5,0.21 -4.51,0.12 -4.51,0.02 -4.5,-0.08 -4.51,-0.18 -4.51,-0.27 -4.5,-0.37 -4.51,-0.45 -4.51,-0.55 -4.5,-0.63 -4.51,-0.71 -4.51,-0.79 -4.5,-0.87 -4.51,-0.95 -4.51,-1.01 -4.5,-1.08 -4.51,-1.15 -4.51,-1.21 -4.5,-1.27 -4.51,-1.32 -4.51,-1.37 -4.5,-1.42 -4.51,-1.47 -4.51,-1.5 -4.5,-1.55 -4.51,-1.58 -4.51,-1.61 -4.5,-1.64 -4.51,-1.67 -4.51,-1.68 -4.5,-1.71 -4.51,-1.72 -4.51,-1.74 -4.5,-1.74 -4.51,-1.75 -4.51,-1.76 -4.5,-1.76 -4.51,-1.76 -4.51,-1.75 -4.5,-1.75 -4.51,-1.75 -4.51,-1.73 -4.5,-1.72 -4.51,-1.71 -4.51,-1.69 -4.5,-1.68 -4.51,-1.68 -4.51,-1.65 -4.5,-1.65 -4.51,-1.64 -4.51,-1.62 -4.5,-1.61 -4.51,-1.6 -4.51,-1.59 -4.5,-1.58 -4.51,-1.57 -4.51,-1.55 -4.5,-1.55 -4.51,-1.53 -4.51,-1.52 -4.5,-1.51 -4.51,-1.51 -4.51,-1.49 -4.5,-1.48 -4.51,-1.46 -4.51,-1.46 -4.5,-1.45 -4.51,-1.44 -4.51,-1.43 -4.5,-1.41 -4.51,-1.41 -4.51,-1.4 -4.5,-1.39 -4.51,-1.38 -4.51,-1.37 -4.5,-1.35 -4.51,-1.35 -4.51,-1.34 -4.5,-1.33 -4.51,-1.33 -4.51,-1.31 -4.5,-1.3 z"
           style="fill:#ffa500;fill-opacity:0.149;fill-rule:nonzero;stroke:none"
           id="path499" />
        <path
           d="m 77.07,84.53 4.5,0.76 4.51,0.76 4.51,0.76 4.5,0.77 4.51,0.77 4.51,0.77 4.5,0.78 4.51,0.78 4.51,0.78 4.5,0.79 4.51,0.79 4.51,0.8 4.5,0.8 4.51,0.8 4.51,0.81 4.5,0.81 4.51,0.81 4.51,0.82 4.5,0.82 4.51,0.82 4.51,0.83 4.5,0.84 4.51,0.83 4.51,0.85 4.5,0.84 4.51,0.85 4.51,0.85 4.5,0.86 4.51,0.86 4.51,0.86 4.5,0.87 4.51,0.87 4.51,0.88 4.5,0.88 4.51,0.88 4.51,0.89 4.5,0.89 4.51,0.89 4.51,0.9 4.5,0.91 4.51,0.9 4.51,0.91 4.5,0.92 4.51,0.91 4.51,0.91 4.5,0.91 4.51,0.91 4.51,0.91 4.5,0.9 4.51,0.89 4.51,0.89 4.5,0.88 4.51,0.87 4.51,0.86 4.5,0.85 4.51,0.83 4.51,0.82 4.5,0.8 4.51,0.79 4.51,0.76 4.5,0.75 4.51,0.73 4.51,0.7 4.5,0.68 4.51,0.65 4.51,0.63 4.5,0.59 4.51,0.57 4.51,0.53 4.5,0.5 4.51,0.47 4.51,0.43 4.5,0.39 4.51,0.35 4.51,0.31 4.5,0.26 4.51,0.22 4.51,0.17 4.5,0.12 4.51,0.07 4.51,0.02 4.5,-0.03 4.51,-0.08 4.51,-0.13 4.5,-0.18 4.51,-0.22 4.51,-0.26 4.5,-0.3 4.51,-0.34 4.51,-0.38 4.5,-0.41 4.51,-0.43 4.51,-0.47 4.5,-0.5 4.51,-0.51 4.51,-0.54 4.5,-0.56 4.51,-0.57 4.51,-0.58 4.5,-0.6 v 118.55 l -4.5,0.71 -4.51,0.72 -4.51,0.73 -4.5,0.74 -4.51,0.73 -4.51,0.74 -4.5,0.72 -4.51,0.71 -4.51,0.69 -4.5,0.66 -4.51,0.63 -4.51,0.6 -4.5,0.55 -4.51,0.51 -4.51,0.45 -4.5,0.39 -4.51,0.33 -4.51,0.25 -4.5,0.18 -4.51,0.09 h -4.51 l -4.5,-0.09 -4.51,-0.18 -4.51,-0.27 -4.5,-0.35 -4.51,-0.43 -4.51,-0.51 -4.5,-0.59 -4.51,-0.66 -4.51,-0.74 -4.5,-0.81 -4.51,-0.87 -4.51,-0.94 -4.5,-1 -4.51,-1.06 -4.51,-1.12 -4.5,-1.16 -4.51,-1.22 -4.51,-1.27 -4.5,-1.3 -4.51,-1.35 -4.51,-1.39 -4.5,-1.42 -4.51,-1.45 -4.51,-1.49 -4.5,-1.5 -4.51,-1.53 -4.51,-1.55 -4.5,-1.57 -4.51,-1.58 -4.51,-1.6 -4.5,-1.6 -4.51,-1.61 -4.51,-1.61 -4.5,-1.62 -4.51,-1.61 -4.51,-1.61 -4.5,-1.61 -4.51,-1.6 -4.51,-1.59 -4.5,-1.58 -4.51,-1.56 -4.51,-1.56 -4.5,-1.55 -4.51,-1.53 -4.51,-1.52 -4.5,-1.51 -4.51,-1.51 -4.51,-1.49 -4.5,-1.48 -4.51,-1.47 -4.51,-1.45 -4.5,-1.45 -4.51,-1.44 -4.51,-1.43 -4.5,-1.42 -4.51,-1.4 -4.51,-1.4 -4.5,-1.39 -4.51,-1.38 -4.51,-1.36 -4.5,-1.36 -4.51,-1.35 -4.51,-1.34 -4.5,-1.33 -4.51,-1.32 -4.51,-1.31 -4.5,-1.3 -4.51,-1.29 -4.51,-1.29 -4.5,-1.27 -4.51,-1.26 -4.51,-1.26 -4.5,-1.25 -4.51,-1.24 -4.51,-1.23 -4.5,-1.22 -4.51,-1.21 -4.51,-1.2 -4.5,-1.2 z"
           style="fill:#006400;fill-opacity:0.149;fill-rule:nonzero;stroke:none"
           id="path501" />
        <path
           d="m 77.07,164.61 4.5,1.21 4.51,1.22 4.51,1.22 4.5,1.24 4.51,1.24 4.51,1.24 4.5,1.26 4.51,1.26 4.51,1.27 4.5,1.28 4.51,1.28 4.51,1.29 4.5,1.3 4.51,1.31 4.51,1.31 4.5,1.33 4.51,1.33 4.51,1.33 4.5,1.35 4.51,1.35 4.51,1.37 4.5,1.37 4.51,1.37 4.51,1.39 4.5,1.39 4.51,1.41 4.51,1.41 4.5,1.42 4.51,1.42 4.51,1.44 4.5,1.44 4.51,1.46 4.51,1.46 4.5,1.47 4.51,1.48 4.51,1.48 4.5,1.5 4.51,1.5 4.51,1.52 4.5,1.52 4.51,1.53 4.51,1.54 4.5,1.54 4.51,1.55 4.51,1.55 4.5,1.54 4.51,1.55 4.51,1.54 4.5,1.53 4.51,1.52 4.51,1.51 4.5,1.5 4.51,1.48 4.51,1.46 4.5,1.44 4.51,1.42 4.51,1.39 4.5,1.36 4.51,1.33 4.51,1.29 4.5,1.26 4.51,1.23 4.51,1.17 4.5,1.14 4.51,1.09 4.51,1.03 4.5,0.99 4.51,0.93 4.51,0.87 4.5,0.81 4.51,0.75 4.51,0.68 4.5,0.61 4.51,0.54 4.51,0.46 4.5,0.39 4.51,0.31 4.51,0.23 4.5,0.15 4.51,0.05 4.51,-0.02 4.5,-0.12 4.51,-0.19 4.51,-0.27 4.5,-0.34 4.51,-0.4 4.51,-0.47 4.5,-0.52 4.51,-0.57 4.51,-0.62 4.5,-0.66 4.51,-0.71 4.51,-0.73 4.5,-0.76 4.51,-0.79 4.51,-0.8 4.5,-0.82 4.51,-0.84 4.51,-0.83 4.5,-0.84"
           style="fill:none;stroke:#8b0000;stroke-width:2.25;stroke-linecap:round;stroke-linejoin:round;stroke-miterlimit:10;stroke-dasharray:none;stroke-opacity:1"
           id="path503" />
        <path
           d="m 77.07,133.74 4.5,1.03 4.51,1.04 4.51,1.04 4.5,1.05 4.51,1.05 4.51,1.06 4.5,1.07 4.51,1.07 4.51,1.08 4.5,1.09 4.51,1.09 4.51,1.1 4.5,1.1 4.51,1.11 4.51,1.12 4.5,1.12 4.51,1.13 4.51,1.14 4.5,1.15 4.51,1.15 4.51,1.15 4.5,1.17 4.51,1.17 4.51,1.18 4.5,1.18 4.51,1.2 4.51,1.2 4.5,1.2 4.51,1.22 4.51,1.22 4.5,1.22 4.51,1.24 4.51,1.24 4.5,1.25 4.51,1.26 4.51,1.26 4.5,1.27 4.51,1.28 4.51,1.29 4.5,1.29 4.51,1.3 4.51,1.31 4.5,1.31 4.51,1.32 4.51,1.31 4.5,1.32 4.51,1.31 4.51,1.31 4.5,1.3 4.51,1.3 4.51,1.28 4.5,1.27 4.51,1.26 4.51,1.24 4.5,1.23 4.51,1.2 4.51,1.18 4.5,1.16 4.51,1.13 4.51,1.11 4.5,1.07 4.51,1.03 4.51,1.01 4.5,0.96 4.51,0.92 4.51,0.89 4.5,0.83 4.51,0.79 4.51,0.74 4.5,0.69 4.51,0.64 4.51,0.58 4.5,0.52 4.51,0.45 4.51,0.4 4.5,0.33 4.51,0.27 4.51,0.19 4.5,0.12 4.51,0.05 4.51,-0.02 4.5,-0.1 4.51,-0.16 4.51,-0.23 4.5,-0.29 4.51,-0.34 4.51,-0.4 4.5,-0.44 4.51,-0.49 4.51,-0.52 4.5,-0.57 4.51,-0.59 4.51,-0.63 4.5,-0.65 4.51,-0.66 4.51,-0.69 4.5,-0.7 4.51,-0.7 4.51,-0.72 4.5,-0.71"
           style="fill:none;stroke:#ffa500;stroke-width:2.25;stroke-linecap:round;stroke-linejoin:round;stroke-miterlimit:10;stroke-dasharray:none;stroke-opacity:1"
           id="path505" />
        <path
           d="m 77.07,120.3 4.5,0.95 4.51,0.96 4.51,0.96 4.5,0.97 4.51,0.97 4.51,0.98 4.5,0.99 4.51,0.99 4.51,0.99 4.5,1 4.51,1.01 4.51,1.02 4.5,1.02 4.51,1.02 4.51,1.03 4.5,1.04 4.51,1.05 4.51,1.05 4.5,1.05 4.51,1.06 4.51,1.07 4.5,1.08 4.51,1.08 4.51,1.09 4.5,1.09 4.51,1.1 4.51,1.11 4.5,1.11 4.51,1.12 4.51,1.13 4.5,1.13 4.51,1.14 4.51,1.15 4.5,1.15 4.51,1.16 4.51,1.17 4.5,1.18 4.51,1.18 4.51,1.18 4.5,1.2 4.51,1.2 4.51,1.21 4.5,1.21 4.51,1.21 4.51,1.22 4.5,1.21 4.51,1.21 4.51,1.21 4.5,1.2 4.51,1.2 4.51,1.18 4.5,1.18 4.51,1.16 4.51,1.15 4.5,1.13 4.51,1.11 4.51,1.09 4.5,1.07 4.51,1.04 4.51,1.02 4.5,0.99 4.51,0.96 4.51,0.92 4.5,0.89 4.51,0.86 4.51,0.81 4.5,0.77 4.51,0.73 4.51,0.69 4.5,0.63 4.51,0.59 4.51,0.53 4.5,0.48 4.51,0.43 4.51,0.36 4.5,0.31 4.51,0.24 4.51,0.18 4.5,0.11 4.51,0.05 4.51,-0.02 4.5,-0.09 4.51,-0.15 4.51,-0.21 4.5,-0.27 4.51,-0.32 4.51,-0.36 4.5,-0.41 4.51,-0.45 4.51,-0.49 4.5,-0.52 4.51,-0.55 4.51,-0.57 4.5,-0.6 4.51,-0.62 4.51,-0.63 4.5,-0.65 4.51,-0.65 4.51,-0.66 4.5,-0.66"
           style="fill:none;stroke:#006400;stroke-width:2.25;stroke-linecap:round;stroke-linejoin:round;stroke-miterlimit:10;stroke-dasharray:none;stroke-opacity:1"
           id="path507" />
        <text
           xml:space="preserve"
           transform="matrix(1,0,0,-1,128.86,344.59)"
           style="font-variant:normal;font-weight:normal;font-size:18px;font-family:Helvetica;-inkscape-font-specification:'Helvetica, Normal';writing-mode:lr-tb;fill:#8b0000;fill-opacity:1;fill-rule:nonzero;stroke:none;font-style:normal;font-stretch:normal;font-variant-ligatures:normal;font-variant-caps:normal;font-variant-numeric:normal;font-variant-east-asian:normal"
           id="text511"><tspan
             sodipodi:role="line"
             id="tspan3043">SDNN 100 ms</tspan></text>
        <text
           xml:space="preserve"
           transform="matrix(1,0,0,-1,128.86,319.89)"
           style="font-variant:normal;font-weight:normal;font-size:18px;font-family:Helvetica;-inkscape-font-specification:'Helvetica, Normal';writing-mode:lr-tb;fill:#ffa500;fill-opacity:1;fill-rule:nonzero;stroke:none;font-style:normal;font-stretch:normal;font-variant-ligatures:normal;font-variant-caps:normal;font-variant-numeric:normal;font-variant-east-asian:normal"
           id="text515"><tspan
             sodipodi:role="line"
             id="tspan3045">SDNN 120 ms</tspan></text>
        <text
           xml:space="preserve"
           transform="matrix(1,0,0,-1,128.86,295.2)"
           style="font-variant:normal;font-weight:normal;font-size:18px;font-family:Helvetica;-inkscape-font-specification:'Helvetica, Normal';writing-mode:lr-tb;fill:#006400;fill-opacity:1;fill-rule:nonzero;stroke:none;font-style:normal;font-stretch:normal;font-variant-ligatures:normal;font-variant-caps:normal;font-variant-numeric:normal;font-variant-east-asian:normal"
           id="text519"><tspan
             sodipodi:role="line"
             id="tspan3047">SDNN 160 ms</tspan></text>
      </g>
    </g>
    <g
       id="g521">
      <text
         xml:space="preserve"
         transform="scale(1,-1)"
         style="font-style:normal;font-variant:normal;font-weight:normal;font-stretch:normal;font-size:20px;font-family:sans-serif;-inkscape-font-specification:'sans-serif, Normal';font-variant-ligatures:normal;font-variant-caps:normal;font-variant-numeric:normal;font-variant-east-asian:normal;writing-mode:lr-tb;fill:#000000;fill-opacity:1;fill-rule:nonzero;stroke:none"
         id="text525"
         x="44.835938"
         y="-398.86328"><tspan
           sodipodi:role="line"
           id="tspan3039">A) Major adverse cardiovascular events</tspan></text>
    </g>
    <g
       id="g149"
       transform="translate(3.5804309,-409.54213)" />
    <g
       id="g151"
       transform="translate(515.34322,1.3449199)">
      <path
         d="M 77.07,73.44 H 527.73"
         style="fill:none;stroke:#000000;stroke-width:0.75;stroke-linecap:round;stroke-linejoin:round;stroke-miterlimit:10;stroke-dasharray:none;stroke-opacity:1"
         id="path153" />
      <path
         d="m 77.07,73.44 v -7.2"
         style="fill:none;stroke:#000000;stroke-width:0.75;stroke-linecap:round;stroke-linejoin:round;stroke-miterlimit:10;stroke-dasharray:none;stroke-opacity:1"
         id="path155" />
      <path
         d="m 167.2,73.44 v -7.2"
         style="fill:none;stroke:#000000;stroke-width:0.75;stroke-linecap:round;stroke-linejoin:round;stroke-miterlimit:10;stroke-dasharray:none;stroke-opacity:1"
         id="path157" />
      <path
         d="m 257.33,73.44 v -7.2"
         style="fill:none;stroke:#000000;stroke-width:0.75;stroke-linecap:round;stroke-linejoin:round;stroke-miterlimit:10;stroke-dasharray:none;stroke-opacity:1"
         id="path159" />
      <path
         d="m 347.47,73.44 v -7.2"
         style="fill:none;stroke:#000000;stroke-width:0.75;stroke-linecap:round;stroke-linejoin:round;stroke-miterlimit:10;stroke-dasharray:none;stroke-opacity:1"
         id="path161" />
      <path
         d="m 437.6,73.44 v -7.2"
         style="fill:none;stroke:#000000;stroke-width:0.75;stroke-linecap:round;stroke-linejoin:round;stroke-miterlimit:10;stroke-dasharray:none;stroke-opacity:1"
         id="path163" />
      <path
         d="m 527.73,73.44 v -7.2"
         style="fill:none;stroke:#000000;stroke-width:0.75;stroke-linecap:round;stroke-linejoin:round;stroke-miterlimit:10;stroke-dasharray:none;stroke-opacity:1"
         id="path165" />
      <text
         xml:space="preserve"
         transform="scale(1,-1)"
         style="font-style:normal;font-variant:normal;font-weight:normal;font-stretch:normal;font-size:16px;font-family:Helvetica;-inkscape-font-specification:'Helvetica, Normal';font-variant-ligatures:normal;font-variant-caps:normal;font-variant-numeric:normal;font-variant-east-asian:normal;writing-mode:lr-tb;fill:#000000;fill-opacity:1;fill-rule:nonzero;stroke:none"
         id="text169"
         x="68.889999"
         y="-47.52"><tspan
           sodipodi:role="line"
           id="tspan2392"
           x="68.889999"
           y="-47.52">64</tspan></text>
      <text
         xml:space="preserve"
         transform="scale(1,-1)"
         style="font-style:normal;font-variant:normal;font-weight:normal;font-stretch:normal;font-size:16px;font-family:Helvetica;-inkscape-font-specification:'Helvetica, Normal';font-variant-ligatures:normal;font-variant-caps:normal;font-variant-numeric:normal;font-variant-east-asian:normal;writing-mode:lr-tb;fill:#000000;fill-opacity:1;fill-rule:nonzero;stroke:none"
         id="text173"
         x="159.03"
         y="-47.52"><tspan
           sodipodi:role="line"
           id="tspan2394"
           x="159.03"
           y="-47.52">66</tspan></text>
      <text
         xml:space="preserve"
         transform="scale(1,-1)"
         style="font-style:normal;font-variant:normal;font-weight:normal;font-stretch:normal;font-size:16px;font-family:Helvetica;-inkscape-font-specification:'Helvetica, Normal';font-variant-ligatures:normal;font-variant-caps:normal;font-variant-numeric:normal;font-variant-east-asian:normal;writing-mode:lr-tb;fill:#000000;fill-opacity:1;fill-rule:nonzero;stroke:none"
         id="text177"
         x="249.16"
         y="-47.52"><tspan
           sodipodi:role="line"
           id="tspan2396"
           x="249.16"
           y="-47.52">68</tspan></text>
      <text
         xml:space="preserve"
         transform="scale(1,-1)"
         style="font-style:normal;font-variant:normal;font-weight:normal;font-stretch:normal;font-size:16px;font-family:Helvetica;-inkscape-font-specification:'Helvetica, Normal';font-variant-ligatures:normal;font-variant-caps:normal;font-variant-numeric:normal;font-variant-east-asian:normal;writing-mode:lr-tb;fill:#000000;fill-opacity:1;fill-rule:nonzero;stroke:none"
         id="text181"
         x="339.29001"
         y="-47.52"><tspan
           sodipodi:role="line"
           id="tspan2398"
           x="339.29001"
           y="-47.52">70</tspan></text>
      <text
         xml:space="preserve"
         transform="scale(1,-1)"
         style="font-style:normal;font-variant:normal;font-weight:normal;font-stretch:normal;font-size:16px;font-family:Helvetica;-inkscape-font-specification:'Helvetica, Normal';font-variant-ligatures:normal;font-variant-caps:normal;font-variant-numeric:normal;font-variant-east-asian:normal;writing-mode:lr-tb;fill:#000000;fill-opacity:1;fill-rule:nonzero;stroke:none"
         id="text185"
         x="429.42999"
         y="-47.52"><tspan
           sodipodi:role="line"
           id="tspan2400"
           x="429.42999"
           y="-47.52">72</tspan></text>
      <text
         xml:space="preserve"
         transform="scale(1,-1)"
         style="font-style:normal;font-variant:normal;font-weight:normal;font-stretch:normal;font-size:16px;font-family:Helvetica;-inkscape-font-specification:'Helvetica, Normal';font-variant-ligatures:normal;font-variant-caps:normal;font-variant-numeric:normal;font-variant-east-asian:normal;writing-mode:lr-tb;fill:#000000;fill-opacity:1;fill-rule:nonzero;stroke:none"
         id="text189"
         x="518.06"
         y="-47.52"><tspan
           sodipodi:role="line"
           id="tspan2402"
           x="518.06"
           y="-47.52">74</tspan></text>
      <path
         d="M 59.04,104.11 V 370.55"
         style="fill:none;stroke:#000000;stroke-width:0.75;stroke-linecap:round;stroke-linejoin:round;stroke-miterlimit:10;stroke-dasharray:none;stroke-opacity:1"
         id="path191" />
      <path
         d="m 59.04,104.11 h -7.2"
         style="fill:none;stroke:#000000;stroke-width:0.75;stroke-linecap:round;stroke-linejoin:round;stroke-miterlimit:10;stroke-dasharray:none;stroke-opacity:1"
         id="path193" />
      <path
         d="m 59.04,192.92 h -7.2"
         style="fill:none;stroke:#000000;stroke-width:0.75;stroke-linecap:round;stroke-linejoin:round;stroke-miterlimit:10;stroke-dasharray:none;stroke-opacity:1"
         id="path195" />
      <path
         d="m 59.04,281.74 h -7.2"
         style="fill:none;stroke:#000000;stroke-width:0.75;stroke-linecap:round;stroke-linejoin:round;stroke-miterlimit:10;stroke-dasharray:none;stroke-opacity:1"
         id="path197" />
      <path
         d="m 59.04,370.55 h -7.2"
         style="fill:none;stroke:#000000;stroke-width:0.75;stroke-linecap:round;stroke-linejoin:round;stroke-miterlimit:10;stroke-dasharray:none;stroke-opacity:1"
         id="path199" />
      <text
         xml:space="preserve"
         transform="matrix(0,1,1,0,0,0)"
         style="font-style:normal;font-variant:normal;font-weight:normal;font-stretch:normal;font-size:16px;font-family:Helvetica;-inkscape-font-specification:'Helvetica, Normal';font-variant-ligatures:normal;font-variant-caps:normal;font-variant-numeric:normal;font-variant-east-asian:normal;writing-mode:lr-tb;fill:#000000;fill-opacity:1;fill-rule:nonzero;stroke:none"
         id="text203"
         x="94.43"
         y="41.759998"><tspan
           sodipodi:role="line"
           id="tspan2433"
           x="94.43"
           y="41.759998">15</tspan></text>
      <text
         xml:space="preserve"
         transform="matrix(0,1,1,0,0,0)"
         style="font-style:normal;font-variant:normal;font-weight:normal;font-stretch:normal;font-size:16px;font-family:Helvetica;-inkscape-font-specification:'Helvetica, Normal';font-variant-ligatures:normal;font-variant-caps:normal;font-variant-numeric:normal;font-variant-east-asian:normal;writing-mode:lr-tb;fill:#000000;fill-opacity:1;fill-rule:nonzero;stroke:none"
         id="text207"
         x="184.75"
         y="41.759998"><tspan
           sodipodi:role="line"
           id="tspan2435"
           x="184.75"
           y="41.759998">20</tspan></text>
      <text
         xml:space="preserve"
         transform="matrix(0,1,1,0,0,0)"
         style="font-style:normal;font-variant:normal;font-weight:normal;font-stretch:normal;font-size:16px;font-family:Helvetica;-inkscape-font-specification:'Helvetica, Normal';font-variant-ligatures:normal;font-variant-caps:normal;font-variant-numeric:normal;font-variant-east-asian:normal;writing-mode:lr-tb;fill:#000000;fill-opacity:1;fill-rule:nonzero;stroke:none"
         id="text211"
         x="272.06"
         y="41.759998"><tspan
           sodipodi:role="line"
           id="tspan2437"
           x="272.06"
           y="41.759998">25</tspan></text>
      <text
         xml:space="preserve"
         transform="matrix(0,1,1,0,0,0)"
         style="font-style:normal;font-variant:normal;font-weight:normal;font-stretch:normal;font-size:16px;font-family:Helvetica;-inkscape-font-specification:'Helvetica, Normal';font-variant-ligatures:normal;font-variant-caps:normal;font-variant-numeric:normal;font-variant-east-asian:normal;writing-mode:lr-tb;fill:#000000;fill-opacity:1;fill-rule:nonzero;stroke:none"
         id="text215"
         x="362.38"
         y="41.759998"><tspan
           sodipodi:role="line"
           id="tspan2439"
           x="362.38"
           y="41.759998">30</tspan></text>
    </g>
    <g
       id="g217"
       transform="translate(543.84322,1.3449199)" />
    <g
       id="g227"
       transform="translate(515.34322,1.3449199)">
      <g
         id="g229"
         clip-path="url(#clipPath233)">
        <path
           d="m 77.07,113.18 4.5,-0.38 4.51,-0.38 4.51,-0.38 4.5,-0.38 4.51,-0.38 4.51,-0.38 4.5,-0.38 4.51,-0.38 4.51,-0.38 4.5,-0.38 4.51,-0.38 4.51,-0.38 4.5,-0.38 4.51,-0.38 4.51,-0.38 4.5,-0.38 4.51,-0.38 4.51,-0.37 4.5,-0.38 4.51,-0.38 4.51,-0.38 4.5,-0.38 4.51,-0.38 4.51,-0.38 4.5,-0.38 4.51,-0.38 4.51,-0.37 4.5,-0.38 4.51,-0.38 4.51,-0.38 4.5,-0.38 4.51,-0.37 4.51,-0.38 4.5,-0.38 4.51,-0.38 4.51,-0.38 4.5,-0.37 4.51,-0.38 4.51,-0.38 4.5,-0.38 4.51,-0.37 4.51,-0.38 4.5,-0.37 4.51,-0.37 4.51,-0.36 4.5,-0.35 4.51,-0.34 4.51,-0.33 4.5,-0.32 4.51,-0.3 4.51,-0.29 4.5,-0.26 4.51,-0.25 4.51,-0.23 4.5,-0.2 4.51,-0.18 4.51,-0.16 4.5,-0.12 4.51,-0.1 4.51,-0.07 4.5,-0.03 h 4.51 l 4.51,0.04 4.5,0.07 4.51,0.11 4.51,0.16 4.5,0.19 4.51,0.24 4.51,0.29 4.5,0.33 4.51,0.38 4.51,0.44 4.5,0.48 4.51,0.54 4.51,0.6 4.5,0.65 4.51,0.72 4.51,0.78 4.5,0.84 4.51,0.91 4.51,0.97 4.5,1.04 4.51,1.1 4.51,1.16 4.5,1.22 4.51,1.27 4.51,1.32 4.5,1.37 4.51,1.42 4.51,1.45 4.5,1.49 4.51,1.53 4.51,1.56 4.5,1.58 4.51,1.62 4.51,1.63 4.5,1.65 4.51,1.67 4.51,1.68 4.5,1.69 v 233.04 l -4.5,-3.09 -4.51,-3.06 -4.51,-3.01 -4.5,-2.97 -4.51,-2.92 -4.51,-2.87 -4.5,-2.8 -4.51,-2.74 -4.51,-2.67 -4.5,-2.6 -4.51,-2.52 -4.51,-2.44 -4.5,-2.35 -4.51,-2.25 -4.51,-2.17 -4.5,-2.07 -4.51,-1.96 -4.51,-1.86 -4.5,-1.75 -4.51,-1.63 -4.51,-1.52 -4.5,-1.41 -4.51,-1.3 -4.51,-1.2 -4.5,-1.09 -4.51,-1 -4.51,-0.9 -4.5,-0.81 -4.51,-0.73 -4.51,-0.65 -4.5,-0.56 -4.51,-0.49 -4.51,-0.41 -4.5,-0.34 -4.51,-0.27 -4.51,-0.21 -4.5,-0.14 -4.51,-0.09 -4.51,-0.02 -4.5,0.03 -4.51,0.08 -4.51,0.13 -4.5,0.18 -4.51,0.22 -4.51,0.27 -4.5,0.3 -4.51,0.34 -4.51,0.38 -4.5,0.41 -4.51,0.44 -4.51,0.46 -4.5,0.5 -4.51,0.51 -4.51,0.53 -4.5,0.55 -4.51,0.57 -4.51,0.58 -4.5,0.58 -4.51,0.6 -4.51,0.59 -4.5,0.6 -4.51,0.6 -4.51,0.61 -4.5,0.6 -4.51,0.61 -4.51,0.61 -4.5,0.6 -4.51,0.62 -4.51,0.61 -4.5,0.61 -4.51,0.62 -4.51,0.61 -4.5,0.62 -4.51,0.62 -4.51,0.63 -4.5,0.62 -4.51,0.63 -4.51,0.62 -4.5,0.63 -4.51,0.63 -4.51,0.63 -4.5,0.64 -4.51,0.63 -4.51,0.64 -4.5,0.64 -4.51,0.64 -4.51,0.64 -4.5,0.65 -4.51,0.64 -4.51,0.65 -4.5,0.65 -4.51,0.65 -4.51,0.65 -4.5,0.66 -4.51,0.65 -4.51,0.66 -4.5,0.66 -4.51,0.66 -4.51,0.66 -4.5,0.67 z"
           style="fill:#8b0000;fill-opacity:0.149;fill-rule:nonzero;stroke:none"
           id="path235" />
        <path
           d="m 77.07,104.21 4.5,-0.36 4.51,-0.36 4.51,-0.37 4.5,-0.36 4.51,-0.36 4.51,-0.37 4.5,-0.36 4.51,-0.36 4.51,-0.37 4.5,-0.36 4.51,-0.36 4.51,-0.36 4.5,-0.37 4.51,-0.36 4.51,-0.36 4.5,-0.37 4.51,-0.36 4.51,-0.36 4.5,-0.37 4.51,-0.36 4.51,-0.36 4.5,-0.36 4.51,-0.37 4.51,-0.36 4.5,-0.36 4.51,-0.36 4.51,-0.37 4.5,-0.36 4.51,-0.36 4.51,-0.36 4.5,-0.37 4.51,-0.36 4.51,-0.36 4.5,-0.36 4.51,-0.37 4.51,-0.36 4.5,-0.36 4.51,-0.36 4.51,-0.36 4.5,-0.37 4.51,-0.36 4.51,-0.36 4.5,-0.35 4.51,-0.36 4.51,-0.34 4.5,-0.34 4.51,-0.33 4.51,-0.31 4.5,-0.31 4.51,-0.29 4.51,-0.27 4.5,-0.26 4.51,-0.24 4.51,-0.22 4.5,-0.19 4.51,-0.18 4.51,-0.15 4.5,-0.12 4.51,-0.09 4.51,-0.06 4.5,-0.04 h 4.51 l 4.51,0.04 4.5,0.07 4.51,0.1 4.51,0.15 4.5,0.19 4.51,0.23 4.51,0.27 4.5,0.32 4.51,0.36 4.51,0.42 4.5,0.46 4.51,0.52 4.51,0.57 4.5,0.63 4.51,0.68 4.51,0.75 4.5,0.8 4.51,0.87 4.51,0.94 4.5,0.99 4.51,1.05 4.51,1.12 4.5,1.16 4.51,1.21 4.51,1.27 4.5,1.31 4.51,1.35 4.51,1.39 4.5,1.42 4.51,1.46 4.51,1.49 4.5,1.51 4.51,1.54 4.51,1.56 4.5,1.58 4.51,1.59 4.51,1.6 4.5,1.61 v 213.77 l -4.5,-2.96 -4.51,-2.92 -4.51,-2.89 -4.5,-2.84 -4.51,-2.8 -4.51,-2.74 -4.5,-2.68 -4.51,-2.62 -4.51,-2.56 -4.5,-2.48 -4.51,-2.41 -4.51,-2.33 -4.5,-2.24 -4.51,-2.16 -4.51,-2.07 -4.5,-1.97 -4.51,-1.88 -4.51,-1.78 -4.5,-1.67 -4.51,-1.56 -4.51,-1.45 -4.5,-1.35 -4.51,-1.24 -4.51,-1.14 -4.5,-1.04 -4.51,-0.95 -4.51,-0.87 -4.5,-0.77 -4.51,-0.7 -4.51,-0.61 -4.5,-0.54 -4.51,-0.47 -4.51,-0.39 -4.5,-0.33 -4.51,-0.26 -4.51,-0.2 -4.5,-0.13 -4.51,-0.08 -4.51,-0.03 -4.5,0.03 -4.51,0.07 -4.51,0.13 -4.5,0.17 -4.51,0.21 -4.51,0.25 -4.5,0.29 -4.51,0.33 -4.51,0.36 -4.5,0.39 -4.51,0.41 -4.51,0.45 -4.5,0.47 -4.51,0.49 -4.51,0.5 -4.5,0.53 -4.51,0.54 -4.51,0.55 -4.5,0.56 -4.51,0.56 -4.51,0.57 -4.5,0.57 -4.51,0.58 -4.51,0.57 -4.5,0.58 -4.51,0.57 -4.51,0.58 -4.5,0.58 -4.51,0.59 -4.51,0.58 -4.5,0.59 -4.51,0.58 -4.51,0.59 -4.5,0.59 -4.51,0.6 -4.51,0.59 -4.5,0.59 -4.51,0.6 -4.51,0.6 -4.5,0.6 -4.51,0.6 -4.51,0.61 -4.5,0.6 -4.51,0.61 -4.51,0.6 -4.5,0.61 -4.51,0.62 -4.51,0.61 -4.5,0.61 -4.51,0.62 -4.51,0.62 -4.5,0.62 -4.51,0.62 -4.51,0.62 -4.5,0.63 -4.51,0.63 -4.51,0.62 -4.5,0.63 -4.51,0.64 -4.51,0.63 -4.5,0.64 z"
           style="fill:#ffa500;fill-opacity:0.149;fill-rule:nonzero;stroke:none"
           id="path237" />
        <path
           d="m 77.07,108.07 4.5,-0.37 4.51,-0.36 4.51,-0.37 4.5,-0.37 4.51,-0.37 4.51,-0.37 4.5,-0.36 4.51,-0.37 4.51,-0.37 4.5,-0.37 4.51,-0.36 4.51,-0.37 4.5,-0.37 4.51,-0.37 4.51,-0.36 4.5,-0.37 4.51,-0.37 4.51,-0.37 4.5,-0.37 4.51,-0.36 4.51,-0.37 4.5,-0.37 4.51,-0.37 4.51,-0.36 4.5,-0.37 4.51,-0.37 4.51,-0.36 4.5,-0.37 4.51,-0.37 4.51,-0.37 4.5,-0.36 4.51,-0.37 4.51,-0.37 4.5,-0.36 4.51,-0.37 4.51,-0.37 4.5,-0.37 4.51,-0.36 4.51,-0.37 4.5,-0.37 4.51,-0.36 4.51,-0.37 4.5,-0.36 4.51,-0.35 4.51,-0.35 4.5,-0.35 4.51,-0.33 4.51,-0.32 4.5,-0.31 4.51,-0.29 4.51,-0.28 4.5,-0.26 4.51,-0.24 4.51,-0.23 4.5,-0.2 4.51,-0.17 4.51,-0.15 4.5,-0.13 4.51,-0.09 4.51,-0.07 4.5,-0.03 h 4.51 l 4.51,0.03 4.5,0.07 4.51,0.11 4.51,0.15 4.5,0.19 4.51,0.23 4.51,0.27 4.5,0.32 4.51,0.37 4.51,0.42 4.5,0.47 4.51,0.52 4.51,0.58 4.5,0.63 4.51,0.69 4.51,0.76 4.5,0.81 4.51,0.88 4.51,0.94 4.5,1 4.51,1.07 4.51,1.12 4.5,1.18 4.51,1.22 4.51,1.28 4.5,1.32 4.51,1.36 4.51,1.41 4.5,1.43 4.51,1.48 4.51,1.5 4.5,1.53 4.51,1.55 4.51,1.58 4.5,1.59 4.51,1.6 4.51,1.62 4.5,1.62 v 214.63 l -4.5,-2.99 -4.51,-2.97 -4.51,-2.93 -4.5,-2.88 -4.51,-2.83 -4.51,-2.78 -4.5,-2.72 -4.51,-2.66 -4.51,-2.59 -4.5,-2.52 -4.51,-2.44 -4.51,-2.36 -4.5,-2.28 -4.51,-2.19 -4.51,-2.09 -4.5,-2.01 -4.51,-1.9 -4.51,-1.8 -4.5,-1.69 -4.51,-1.59 -4.51,-1.47 -4.5,-1.36 -4.51,-1.26 -4.51,-1.16 -4.5,-1.06 -4.51,-0.96 -4.51,-0.88 -4.5,-0.78 -4.51,-0.71 -4.51,-0.62 -4.5,-0.55 -4.51,-0.47 -4.51,-0.4 -4.5,-0.33 -4.51,-0.27 -4.51,-0.2 -4.5,-0.14 -4.51,-0.08 -4.51,-0.03 -4.5,0.02 -4.51,0.08 -4.51,0.12 -4.5,0.17 -4.51,0.22 -4.51,0.25 -4.5,0.29 -4.51,0.33 -4.51,0.37 -4.5,0.39 -4.51,0.42 -4.51,0.45 -4.5,0.47 -4.51,0.5 -4.51,0.51 -4.5,0.53 -4.51,0.54 -4.51,0.56 -4.5,0.56 -4.51,0.58 -4.51,0.57 -4.5,0.58 -4.51,0.58 -4.51,0.58 -4.5,0.58 -4.51,0.59 -4.51,0.58 -4.5,0.59 -4.51,0.59 -4.51,0.59 -4.5,0.59 -4.51,0.59 -4.51,0.6 -4.5,0.59 -4.51,0.6 -4.51,0.6 -4.5,0.6 -4.51,0.61 -4.51,0.6 -4.5,0.61 -4.51,0.61 -4.51,0.61 -4.5,0.61 -4.51,0.61 -4.51,0.62 -4.5,0.61 -4.51,0.62 -4.51,0.62 -4.5,0.62 -4.51,0.63 -4.51,0.62 -4.5,0.63 -4.51,0.63 -4.51,0.63 -4.5,0.63 -4.51,0.63 -4.51,0.64 -4.5,0.64 -4.51,0.63 -4.51,0.65 -4.5,0.64 z"
           style="fill:#006400;fill-opacity:0.149;fill-rule:nonzero;stroke:none"
           id="path239" />
        <path
           d="m 77.07,206.91 4.5,-0.51 4.51,-0.5 4.51,-0.5 4.5,-0.5 4.51,-0.5 4.51,-0.5 4.5,-0.5 4.51,-0.5 4.51,-0.49 4.5,-0.5 4.51,-0.5 4.51,-0.49 4.5,-0.5 4.51,-0.49 4.51,-0.49 4.5,-0.5 4.51,-0.49 4.51,-0.49 4.5,-0.49 4.51,-0.49 4.51,-0.49 4.5,-0.49 4.51,-0.48 4.51,-0.49 4.5,-0.49 4.51,-0.48 4.51,-0.49 4.5,-0.48 4.51,-0.49 4.51,-0.48 4.5,-0.48 4.51,-0.48 4.51,-0.49 4.5,-0.48 4.51,-0.48 4.51,-0.48 4.5,-0.47 4.51,-0.48 4.51,-0.48 4.5,-0.48 4.51,-0.47 4.51,-0.47 4.5,-0.47 4.51,-0.46 4.51,-0.46 4.5,-0.44 4.51,-0.43 4.51,-0.41 4.5,-0.39 4.51,-0.38 4.51,-0.36 4.5,-0.33 4.51,-0.31 4.51,-0.28 4.5,-0.25 4.51,-0.22 4.51,-0.18 4.5,-0.15 4.51,-0.12 4.51,-0.07 4.5,-0.03 4.51,0.01 4.51,0.05 4.5,0.1 4.51,0.16 4.51,0.2 4.5,0.26 4.51,0.31 4.51,0.38 4.5,0.43 4.51,0.5 4.51,0.56 4.5,0.63 4.51,0.7 4.51,0.77 4.5,0.85 4.51,0.92 4.51,1.01 4.5,1.09 4.51,1.17 4.51,1.27 4.5,1.34 4.51,1.44 4.51,1.51 4.5,1.59 4.51,1.65 4.51,1.73 4.5,1.8 4.51,1.85 4.51,1.92 4.5,1.96 4.51,2.02 4.51,2.07 4.5,2.11 4.51,2.15 4.51,2.18 4.5,2.22 4.51,2.24 4.51,2.27 4.5,2.28"
           style="fill:none;stroke:#8b0000;stroke-width:2.25;stroke-linecap:round;stroke-linejoin:round;stroke-miterlimit:10;stroke-dasharray:none;stroke-opacity:1"
           id="path241" />
        <path
           d="m 77.07,190.51 4.5,-0.48 4.51,-0.48 4.51,-0.48 4.5,-0.48 4.51,-0.48 4.51,-0.47 4.5,-0.48 4.51,-0.47 4.51,-0.48 4.5,-0.47 4.51,-0.48 4.51,-0.47 4.5,-0.47 4.51,-0.48 4.51,-0.47 4.5,-0.47 4.51,-0.47 4.51,-0.47 4.5,-0.47 4.51,-0.46 4.51,-0.47 4.5,-0.47 4.51,-0.46 4.51,-0.47 4.5,-0.46 4.51,-0.47 4.51,-0.46 4.5,-0.47 4.51,-0.46 4.51,-0.46 4.5,-0.46 4.51,-0.46 4.51,-0.46 4.5,-0.46 4.51,-0.46 4.51,-0.46 4.5,-0.45 4.51,-0.46 4.51,-0.46 4.5,-0.45 4.51,-0.46 4.51,-0.45 4.5,-0.45 4.51,-0.44 4.51,-0.43 4.5,-0.42 4.51,-0.41 4.51,-0.39 4.5,-0.38 4.51,-0.36 4.51,-0.34 4.5,-0.32 4.51,-0.29 4.51,-0.27 4.5,-0.24 4.51,-0.21 4.51,-0.18 4.5,-0.14 4.51,-0.11 4.51,-0.07 4.5,-0.03 4.51,0.01 4.51,0.05 4.5,0.1 4.51,0.14 4.51,0.2 4.5,0.24 4.51,0.31 4.51,0.35 4.5,0.42 4.51,0.47 4.51,0.54 4.5,0.6 4.51,0.67 4.51,0.73 4.5,0.81 4.51,0.89 4.51,0.96 4.5,1.04 4.51,1.12 4.51,1.21 4.5,1.29 4.51,1.37 4.51,1.44 4.5,1.52 4.51,1.59 4.51,1.65 4.5,1.71 4.51,1.77 4.51,1.83 4.5,1.88 4.51,1.93 4.51,1.98 4.5,2.02 4.51,2.05 4.51,2.09 4.5,2.11 4.51,2.15 4.51,2.16 4.5,2.18"
           style="fill:none;stroke:#ffa500;stroke-width:2.25;stroke-linecap:round;stroke-linejoin:round;stroke-miterlimit:10;stroke-dasharray:none;stroke-opacity:1"
           id="path243" />
        <path
           d="m 77.07,194.68 4.5,-0.49 4.51,-0.49 4.51,-0.48 4.5,-0.48 4.51,-0.49 4.51,-0.48 4.5,-0.48 4.51,-0.48 4.51,-0.49 4.5,-0.48 4.51,-0.47 4.51,-0.48 4.5,-0.48 4.51,-0.48 4.51,-0.48 4.5,-0.47 4.51,-0.48 4.51,-0.47 4.5,-0.48 4.51,-0.47 4.51,-0.47 4.5,-0.48 4.51,-0.47 4.51,-0.47 4.5,-0.47 4.51,-0.47 4.51,-0.47 4.5,-0.47 4.51,-0.46 4.51,-0.47 4.5,-0.47 4.51,-0.46 4.51,-0.47 4.5,-0.46 4.51,-0.47 4.51,-0.46 4.5,-0.46 4.51,-0.47 4.51,-0.46 4.5,-0.46 4.51,-0.46 4.51,-0.45 4.5,-0.46 4.51,-0.44 4.51,-0.44 4.5,-0.43 4.51,-0.41 4.51,-0.4 4.5,-0.38 4.51,-0.37 4.51,-0.34 4.5,-0.32 4.51,-0.3 4.51,-0.27 4.5,-0.24 4.51,-0.21 4.51,-0.18 4.5,-0.15 4.51,-0.11 4.51,-0.07 4.5,-0.04 4.51,0.01 4.51,0.06 4.5,0.1 4.51,0.15 4.51,0.19 4.5,0.25 4.51,0.31 4.51,0.36 4.5,0.42 4.51,0.48 4.51,0.54 4.5,0.61 4.51,0.67 4.51,0.75 4.5,0.82 4.51,0.89 4.51,0.98 4.5,1.05 4.51,1.14 4.51,1.22 4.5,1.3 4.51,1.39 4.51,1.46 4.5,1.53 4.51,1.61 4.51,1.67 4.5,1.73 4.51,1.8 4.51,1.85 4.5,1.9 4.51,1.95 4.51,2 4.5,2.04 4.51,2.08 4.51,2.11 4.5,2.14 4.51,2.17 4.51,2.19 4.5,2.21"
           style="fill:none;stroke:#006400;stroke-width:2.25;stroke-linecap:round;stroke-linejoin:round;stroke-miterlimit:10;stroke-dasharray:none;stroke-opacity:1"
           id="path245" />
      </g>
    </g>
    <g
       id="g259"
       transform="translate(514.99693,1.3449199)">
      <text
         xml:space="preserve"
         transform="scale(1,-1)"
         style="font-style:normal;font-variant:normal;font-weight:normal;font-stretch:normal;font-size:20px;font-family:sans-serif;-inkscape-font-specification:'sans-serif, Normal';font-variant-ligatures:normal;font-variant-caps:normal;font-variant-numeric:normal;font-variant-east-asian:normal;writing-mode:lr-tb;fill:#000000;fill-opacity:1;fill-rule:nonzero;stroke:none"
         id="text263"
         x="41.241837"
         y="-397.45001"><tspan
           sodipodi:role="line"
           id="tspan2441"
           x="41.241837"
           y="-397.45001">B) Hospital diagnosed heart failure</tspan></text>
    </g>
  </g>
  <g
     inkscape:groupmode="layer"
     id="layer2"
     inkscape:label="Page 2">
    <g
       id="g661"
       transform="matrix(1.3333333,0,0,-1.3333333,4.7739117,1680.944)" />
    <g
       id="g663"
       transform="matrix(1.3333333,0,0,-1.3333333,5.2356251,1093.6234)">
      <path
         d="M 77.07,73.44 H 527.73"
         style="fill:none;stroke:#000000;stroke-width:0.75;stroke-linecap:round;stroke-linejoin:round;stroke-miterlimit:10;stroke-dasharray:none;stroke-opacity:1"
         id="path665" />
      <path
         d="m 77.07,73.44 v -7.2"
         style="fill:none;stroke:#000000;stroke-width:0.75;stroke-linecap:round;stroke-linejoin:round;stroke-miterlimit:10;stroke-dasharray:none;stroke-opacity:1"
         id="path667" />
      <path
         d="m 167.2,73.44 v -7.2"
         style="fill:none;stroke:#000000;stroke-width:0.75;stroke-linecap:round;stroke-linejoin:round;stroke-miterlimit:10;stroke-dasharray:none;stroke-opacity:1"
         id="path669" />
      <path
         d="m 257.33,73.44 v -7.2"
         style="fill:none;stroke:#000000;stroke-width:0.75;stroke-linecap:round;stroke-linejoin:round;stroke-miterlimit:10;stroke-dasharray:none;stroke-opacity:1"
         id="path671" />
      <path
         d="m 347.47,73.44 v -7.2"
         style="fill:none;stroke:#000000;stroke-width:0.75;stroke-linecap:round;stroke-linejoin:round;stroke-miterlimit:10;stroke-dasharray:none;stroke-opacity:1"
         id="path673" />
      <path
         d="m 437.6,73.44 v -7.2"
         style="fill:none;stroke:#000000;stroke-width:0.75;stroke-linecap:round;stroke-linejoin:round;stroke-miterlimit:10;stroke-dasharray:none;stroke-opacity:1"
         id="path675" />
      <path
         d="m 527.73,73.44 v -7.2"
         style="fill:none;stroke:#000000;stroke-width:0.75;stroke-linecap:round;stroke-linejoin:round;stroke-miterlimit:10;stroke-dasharray:none;stroke-opacity:1"
         id="path677" />
      <text
         xml:space="preserve"
         transform="scale(1,-1)"
         style="font-style:normal;font-variant:normal;font-weight:normal;font-stretch:normal;font-size:16px;font-family:Helvetica;-inkscape-font-specification:'Helvetica, Normal';font-variant-ligatures:normal;font-variant-caps:normal;font-variant-numeric:normal;font-variant-east-asian:normal;writing-mode:lr-tb;fill:#000000;fill-opacity:1;fill-rule:nonzero;stroke:none"
         id="text681"
         x="68.889999"
         y="-47.52"><tspan
           sodipodi:role="line"
           id="tspan3025"
           x="68.889999"
           y="-47.52">64</tspan></text>
      <text
         xml:space="preserve"
         transform="scale(1,-1)"
         style="font-style:normal;font-variant:normal;font-weight:normal;font-stretch:normal;font-size:16px;font-family:Helvetica;-inkscape-font-specification:'Helvetica, Normal';font-variant-ligatures:normal;font-variant-caps:normal;font-variant-numeric:normal;font-variant-east-asian:normal;writing-mode:lr-tb;fill:#000000;fill-opacity:1;fill-rule:nonzero;stroke:none"
         id="text685"
         x="159.03"
         y="-47.52"><tspan
           sodipodi:role="line"
           id="tspan3023"
           x="159.03"
           y="-47.52">66</tspan></text>
      <text
         xml:space="preserve"
         transform="scale(1,-1)"
         style="font-style:normal;font-variant:normal;font-weight:normal;font-stretch:normal;font-size:16px;font-family:Helvetica;-inkscape-font-specification:'Helvetica, Normal';font-variant-ligatures:normal;font-variant-caps:normal;font-variant-numeric:normal;font-variant-east-asian:normal;writing-mode:lr-tb;fill:#000000;fill-opacity:1;fill-rule:nonzero;stroke:none"
         id="text689"
         x="249.16"
         y="-47.52"><tspan
           sodipodi:role="line"
           id="tspan3021"
           x="249.16"
           y="-47.52">68</tspan></text>
      <text
         xml:space="preserve"
         transform="scale(1,-1)"
         style="font-style:normal;font-variant:normal;font-weight:normal;font-stretch:normal;font-size:16px;font-family:Helvetica;-inkscape-font-specification:'Helvetica, Normal';font-variant-ligatures:normal;font-variant-caps:normal;font-variant-numeric:normal;font-variant-east-asian:normal;writing-mode:lr-tb;fill:#000000;fill-opacity:1;fill-rule:nonzero;stroke:none"
         id="text693"
         x="339.29001"
         y="-47.52"><tspan
           sodipodi:role="line"
           id="tspan3001"
           x="339.29001"
           y="-47.52">70</tspan></text>
      <text
         xml:space="preserve"
         transform="scale(1,-1)"
         style="font-style:normal;font-variant:normal;font-weight:normal;font-stretch:normal;font-size:16px;font-family:Helvetica;-inkscape-font-specification:'Helvetica, Normal';font-variant-ligatures:normal;font-variant-caps:normal;font-variant-numeric:normal;font-variant-east-asian:normal;writing-mode:lr-tb;fill:#000000;fill-opacity:1;fill-rule:nonzero;stroke:none"
         id="text697"
         x="429.42999"
         y="-47.52"><tspan
           sodipodi:role="line"
           id="tspan2999"
           x="429.42999"
           y="-47.52">72</tspan></text>
      <text
         xml:space="preserve"
         transform="scale(1,-1)"
         style="font-style:normal;font-variant:normal;font-weight:normal;font-stretch:normal;font-size:16px;font-family:Helvetica;-inkscape-font-specification:'Helvetica, Normal';font-variant-ligatures:normal;font-variant-caps:normal;font-variant-numeric:normal;font-variant-east-asian:normal;writing-mode:lr-tb;fill:#000000;fill-opacity:1;fill-rule:nonzero;stroke:none"
         id="text701"
         x="518.06"
         y="-47.52"><tspan
           sodipodi:role="line"
           id="tspan2443"
           x="518.06"
           y="-47.52">74</tspan></text>
      <path
         d="M 59.04,92.24 V 361.87"
         style="fill:none;stroke:#000000;stroke-width:0.75;stroke-linecap:round;stroke-linejoin:round;stroke-miterlimit:10;stroke-dasharray:none;stroke-opacity:1"
         id="path703" />
      <path
         d="m 59.04,92.24 h -7.2"
         style="fill:none;stroke:#000000;stroke-width:0.75;stroke-linecap:round;stroke-linejoin:round;stroke-miterlimit:10;stroke-dasharray:none;stroke-opacity:1"
         id="path705" />
      <path
         d="m 59.04,130.76 h -7.2"
         style="fill:none;stroke:#000000;stroke-width:0.75;stroke-linecap:round;stroke-linejoin:round;stroke-miterlimit:10;stroke-dasharray:none;stroke-opacity:1"
         id="path707" />
      <path
         d="m 59.04,169.27 h -7.2"
         style="fill:none;stroke:#000000;stroke-width:0.75;stroke-linecap:round;stroke-linejoin:round;stroke-miterlimit:10;stroke-dasharray:none;stroke-opacity:1"
         id="path709" />
      <path
         d="m 59.04,207.79 h -7.2"
         style="fill:none;stroke:#000000;stroke-width:0.75;stroke-linecap:round;stroke-linejoin:round;stroke-miterlimit:10;stroke-dasharray:none;stroke-opacity:1"
         id="path711" />
      <path
         d="m 59.04,246.31 h -7.2"
         style="fill:none;stroke:#000000;stroke-width:0.75;stroke-linecap:round;stroke-linejoin:round;stroke-miterlimit:10;stroke-dasharray:none;stroke-opacity:1"
         id="path713" />
      <path
         d="m 59.04,284.83 h -7.2"
         style="fill:none;stroke:#000000;stroke-width:0.75;stroke-linecap:round;stroke-linejoin:round;stroke-miterlimit:10;stroke-dasharray:none;stroke-opacity:1"
         id="path715" />
      <path
         d="m 59.04,323.35 h -7.2"
         style="fill:none;stroke:#000000;stroke-width:0.75;stroke-linecap:round;stroke-linejoin:round;stroke-miterlimit:10;stroke-dasharray:none;stroke-opacity:1"
         id="path717" />
      <path
         d="m 59.04,361.87 h -7.2"
         style="fill:none;stroke:#000000;stroke-width:0.75;stroke-linecap:round;stroke-linejoin:round;stroke-miterlimit:10;stroke-dasharray:none;stroke-opacity:1"
         id="path719" />
      <text
         xml:space="preserve"
         transform="matrix(0,1,1,0,0,0)"
         style="font-style:normal;font-variant:normal;font-weight:normal;font-stretch:normal;font-size:16px;font-family:Helvetica;-inkscape-font-specification:'Helvetica, Normal';font-variant-ligatures:normal;font-variant-caps:normal;font-variant-numeric:normal;font-variant-east-asian:normal;writing-mode:lr-tb;fill:#000000;fill-opacity:1;fill-rule:nonzero;stroke:none"
         id="text723"
         x="87.400002"
         y="41.759998"><tspan
           x="87.400002"
           y="41.759998"
           id="tspan721"
           style="font-style:normal;font-variant:normal;font-weight:normal;font-stretch:normal;font-size:16px;font-family:Helvetica;-inkscape-font-specification:'Helvetica, Normal';font-variant-ligatures:normal;font-variant-caps:normal;font-variant-numeric:normal;font-variant-east-asian:normal">5</tspan></text>
      <text
         xml:space="preserve"
         transform="matrix(0,1,1,0,0,0)"
         style="font-style:normal;font-variant:normal;font-weight:normal;font-stretch:normal;font-size:16px;font-family:Helvetica;-inkscape-font-specification:'Helvetica, Normal';font-variant-ligatures:normal;font-variant-caps:normal;font-variant-numeric:normal;font-variant-east-asian:normal;writing-mode:lr-tb;fill:#000000;fill-opacity:1;fill-rule:nonzero;stroke:none"
         id="text727"
         x="122.58"
         y="41.759998"><tspan
           sodipodi:role="line"
           id="tspan3003"
           x="122.58"
           y="41.759998">10</tspan></text>
      <text
         xml:space="preserve"
         transform="matrix(0,1,1,0,0,0)"
         style="font-style:normal;font-variant:normal;font-weight:normal;font-stretch:normal;font-size:16px;font-family:Helvetica;-inkscape-font-specification:'Helvetica, Normal';font-variant-ligatures:normal;font-variant-caps:normal;font-variant-numeric:normal;font-variant-east-asian:normal;writing-mode:lr-tb;fill:#000000;fill-opacity:1;fill-rule:nonzero;stroke:none"
         id="text731"
         x="161.10001"
         y="41.759998"><tspan
           sodipodi:role="line"
           id="tspan3005"
           x="161.10001"
           y="41.759998">15</tspan></text>
      <text
         xml:space="preserve"
         transform="matrix(0,1,1,0,0,0)"
         style="font-style:normal;font-variant:normal;font-weight:normal;font-stretch:normal;font-size:16px;font-family:Helvetica;-inkscape-font-specification:'Helvetica, Normal';font-variant-ligatures:normal;font-variant-caps:normal;font-variant-numeric:normal;font-variant-east-asian:normal;writing-mode:lr-tb;fill:#000000;fill-opacity:1;fill-rule:nonzero;stroke:none"
         id="text735"
         x="199.62"
         y="41.759998"><tspan
           sodipodi:role="line"
           id="tspan3007"
           x="199.62"
           y="41.759998">20</tspan></text>
      <text
         xml:space="preserve"
         transform="matrix(0,1,1,0,0,0)"
         style="font-style:normal;font-variant:normal;font-weight:normal;font-stretch:normal;font-size:16px;font-family:Helvetica;-inkscape-font-specification:'Helvetica, Normal';font-variant-ligatures:normal;font-variant-caps:normal;font-variant-numeric:normal;font-variant-east-asian:normal;writing-mode:lr-tb;fill:#000000;fill-opacity:1;fill-rule:nonzero;stroke:none"
         id="text739"
         x="238.14"
         y="41.759998"><tspan
           sodipodi:role="line"
           id="tspan3009"
           x="238.14"
           y="41.759998">25</tspan></text>
      <text
         xml:space="preserve"
         transform="matrix(0,1,1,0,0,0)"
         style="font-style:normal;font-variant:normal;font-weight:normal;font-stretch:normal;font-size:16px;font-family:Helvetica;-inkscape-font-specification:'Helvetica, Normal';font-variant-ligatures:normal;font-variant-caps:normal;font-variant-numeric:normal;font-variant-east-asian:normal;writing-mode:lr-tb;fill:#000000;fill-opacity:1;fill-rule:nonzero;stroke:none"
         id="text743"
         x="276.66"
         y="41.759998"><tspan
           sodipodi:role="line"
           id="tspan3011"
           x="276.66"
           y="41.759998">30</tspan></text>
      <text
         xml:space="preserve"
         transform="matrix(0,1,1,0,0,0)"
         style="font-style:normal;font-variant:normal;font-weight:normal;font-stretch:normal;font-size:16px;font-family:Helvetica;-inkscape-font-specification:'Helvetica, Normal';font-variant-ligatures:normal;font-variant-caps:normal;font-variant-numeric:normal;font-variant-east-asian:normal;writing-mode:lr-tb;fill:#000000;fill-opacity:1;fill-rule:nonzero;stroke:none"
         id="text747"
         x="315.17999"
         y="41.759998"><tspan
           sodipodi:role="line"
           id="tspan3013"
           x="315.17999"
           y="41.759998">35</tspan></text>
      <text
         xml:space="preserve"
         transform="matrix(0,1,1,0,0,0)"
         style="font-style:normal;font-variant:normal;font-weight:normal;font-stretch:normal;font-size:16px;font-family:Helvetica;-inkscape-font-specification:'Helvetica, Normal';font-variant-ligatures:normal;font-variant-caps:normal;font-variant-numeric:normal;font-variant-east-asian:normal;writing-mode:lr-tb;fill:#000000;fill-opacity:1;fill-rule:nonzero;stroke:none"
         id="text751"
         x="353.69"
         y="41.759998"><tspan
           sodipodi:role="line"
           id="tspan3015"
           x="353.69"
           y="41.759998">40</tspan></text>
    </g>
    <g
       id="g753"
       transform="matrix(1.3333333,0,0,-1.3333333,5.2356251,1093.6234)">
      <text
         xml:space="preserve"
         transform="scale(1,-1)"
         style="font-style:normal;font-variant:normal;font-weight:normal;font-stretch:normal;font-size:18px;font-family:Helvetica;-inkscape-font-specification:'Helvetica, Normal';font-variant-ligatures:normal;font-variant-caps:normal;font-variant-numeric:normal;font-variant-east-asian:normal;writing-mode:lr-tb;fill:#000000;fill-opacity:1;fill-rule:nonzero;stroke:none"
         id="text757"
         x="259.51001"
         y="-18.719999"><tspan
           sodipodi:role="line"
           id="tspan2404"
           x="259.51001"
           y="-18.719999">Age (years) </tspan></text>
      <text
         xml:space="preserve"
         transform="scale(1,-1)"
         style="font-style:normal;font-variant:normal;font-weight:normal;font-stretch:normal;font-size:18px;font-family:Helvetica;-inkscape-font-specification:'Helvetica, Normal';font-variant-ligatures:normal;font-variant-caps:normal;font-variant-numeric:normal;font-variant-east-asian:normal;writing-mode:lr-tb;fill:#000000;fill-opacity:1;fill-rule:nonzero;stroke:none"
         id="text757-6"
         x="778.55621"
         y="-412.89746"><tspan
           sodipodi:role="line"
           id="tspan2404-3"
           x="778.55621"
           y="-412.89746">Age (years) </tspan></text>
      <text
         xml:space="preserve"
         transform="matrix(0,1,1,0,0,0)"
         style="font-style:normal;font-variant:normal;font-weight:normal;font-stretch:normal;font-size:18px;font-family:Helvetica;-inkscape-font-specification:'Helvetica, Normal';font-variant-ligatures:normal;font-variant-caps:normal;font-variant-numeric:normal;font-variant-east-asian:normal;writing-mode:lr-tb;fill:#000000;fill-opacity:1;fill-rule:nonzero;stroke:none"
         id="text761"
         x="101.11"
         y="12.96"><tspan
           sodipodi:role="line"
           id="tspan3017"
           x="101.11"
           y="12.96">Incidence per 1000 person−years</tspan></text>
    </g>
    <g
       id="g763"
       transform="matrix(1.3333333,0,0,-1.3333333,5.2356251,1093.6234)">
      <g
         id="g765"
         clip-path="url(#clipPath769)">
        <path
           d="m 77.07,98.41 4.5,0.39 4.51,0.39 4.51,0.39 4.5,0.39 4.51,0.4 4.51,0.4 4.5,0.4 4.51,0.4 4.51,0.4 4.5,0.41 4.51,0.41 4.51,0.41 4.5,0.41 4.51,0.41 4.51,0.42 4.5,0.42 4.51,0.42 4.51,0.42 4.5,0.42 4.51,0.43 4.51,0.43 4.5,0.43 4.51,0.43 4.51,0.44 4.5,0.43 4.51,0.44 4.51,0.44 4.5,0.44 4.51,0.45 4.51,0.45 4.5,0.44 4.51,0.45 4.51,0.46 4.5,0.45 4.51,0.46 4.51,0.45 4.5,0.46 4.51,0.46 4.51,0.47 4.5,0.46 4.51,0.47 4.51,0.47 4.5,0.47 4.51,0.48 4.51,0.47 4.5,0.48 4.51,0.49 4.51,0.48 4.5,0.5 4.51,0.49 4.51,0.5 4.5,0.51 4.51,0.51 4.51,0.52 4.5,0.53 4.51,0.53 4.51,0.54 4.5,0.55 4.51,0.56 4.51,0.57 4.5,0.57 4.51,0.59 4.51,0.6 4.5,0.61 4.51,0.62 4.51,0.63 4.5,0.65 4.51,0.66 4.51,0.68 4.5,0.69 4.51,0.71 4.51,0.72 4.5,0.74 4.51,0.76 4.51,0.77 4.5,0.8 4.51,0.81 4.51,0.83 4.5,0.85 4.51,0.87 4.51,0.89 4.5,0.91 4.51,0.93 4.51,0.95 4.5,0.96 4.51,0.98 4.51,0.99 4.5,1 4.51,1.02 4.51,1.03 4.5,1.04 4.51,1.04 4.51,1.06 4.5,1.06 4.51,1.06 4.51,1.08 4.5,1.07 4.51,1.08 4.51,1.07 4.5,1.08 v 249.34 l -4.5,-3.32 -4.51,-3.25 -4.51,-3.18 -4.5,-3.12 -4.51,-3.05 -4.51,-3 -4.5,-2.94 -4.51,-2.88 -4.51,-2.83 -4.5,-2.78 -4.51,-2.74 -4.51,-2.7 -4.5,-2.65 -4.51,-2.62 -4.51,-2.58 -4.5,-2.56 -4.51,-2.53 -4.51,-2.5 -4.5,-2.49 -4.51,-2.46 -4.51,-2.45 -4.5,-2.44 -4.51,-2.43 -4.51,-2.41 -4.5,-2.41 -4.51,-2.39 -4.51,-2.38 -4.5,-2.38 -4.51,-2.36 -4.51,-2.36 -4.5,-2.34 -4.51,-2.34 -4.51,-2.32 -4.5,-2.32 -4.51,-2.3 -4.51,-2.29 -4.5,-2.27 -4.51,-2.27 -4.51,-2.25 -4.5,-2.23 -4.51,-2.22 -4.51,-2.21 -4.5,-2.18 -4.51,-2.18 -4.51,-2.15 -4.5,-2.13 -4.51,-2.12 -4.51,-2.1 -4.5,-2.08 -4.51,-2.06 -4.51,-2.03 -4.5,-2.02 -4.51,-2 -4.51,-1.97 -4.5,-1.96 -4.51,-1.93 -4.51,-1.91 -4.5,-1.89 -4.51,-1.87 -4.51,-1.85 -4.5,-1.82 -4.51,-1.8 -4.51,-1.79 -4.5,-1.76 -4.51,-1.74 -4.51,-1.72 -4.5,-1.7 -4.51,-1.68 -4.51,-1.67 -4.5,-1.64 -4.51,-1.62 -4.51,-1.61 -4.5,-1.58 -4.51,-1.57 -4.51,-1.55 -4.5,-1.53 -4.51,-1.52 -4.51,-1.49 -4.5,-1.48 -4.51,-1.47 -4.51,-1.44 -4.5,-1.43 -4.51,-1.41 -4.51,-1.4 -4.5,-1.38 -4.51,-1.37 -4.51,-1.35 -4.5,-1.33 -4.51,-1.32 -4.51,-1.31 -4.5,-1.29 -4.51,-1.27 -4.51,-1.26 -4.5,-1.25 -4.51,-1.24 -4.51,-1.21 -4.5,-1.21 -4.51,-1.19 -4.51,-1.18 -4.5,-1.17 z"
           style="fill:#8b0000;fill-opacity:0.149;fill-rule:nonzero;stroke:none"
           id="path771" />
        <path
           d="m 77.07,84.41 4.5,0.27 4.51,0.27 4.51,0.27 4.5,0.27 4.51,0.28 4.51,0.28 4.5,0.27 4.51,0.28 4.51,0.28 4.5,0.29 4.51,0.28 4.51,0.28 4.5,0.29 4.51,0.29 4.51,0.29 4.5,0.29 4.51,0.29 4.51,0.29 4.5,0.3 4.51,0.29 4.51,0.3 4.5,0.3 4.51,0.3 4.51,0.3 4.5,0.3 4.51,0.31 4.51,0.3 4.5,0.31 4.51,0.31 4.51,0.31 4.5,0.31 4.51,0.31 4.51,0.31 4.5,0.31 4.51,0.32 4.51,0.31 4.5,0.32 4.51,0.32 4.51,0.32 4.5,0.32 4.51,0.32 4.51,0.33 4.5,0.32 4.51,0.33 4.51,0.33 4.5,0.33 4.51,0.33 4.51,0.34 4.5,0.33 4.51,0.35 4.51,0.34 4.5,0.35 4.51,0.35 4.51,0.36 4.5,0.36 4.51,0.36 4.51,0.37 4.5,0.38 4.51,0.38 4.51,0.39 4.5,0.39 4.51,0.4 4.51,0.41 4.5,0.42 4.51,0.42 4.51,0.43 4.5,0.45 4.51,0.45 4.51,0.46 4.5,0.47 4.51,0.48 4.51,0.49 4.5,0.5 4.51,0.52 4.51,0.53 4.5,0.53 4.51,0.56 4.51,0.56 4.5,0.57 4.51,0.59 4.51,0.61 4.5,0.61 4.51,0.63 4.51,0.63 4.5,0.65 4.51,0.66 4.51,0.67 4.5,0.67 4.51,0.68 4.51,0.69 4.5,0.69 4.51,0.7 4.51,0.7 4.5,0.71 4.51,0.7 4.51,0.71 4.5,0.71 4.51,0.71 4.51,0.71 4.5,0.71 v 148.49 l -4.5,-2.15 -4.51,-2.1 -4.51,-2.05 -4.5,-2.01 -4.51,-1.97 -4.51,-1.93 -4.5,-1.89 -4.51,-1.85 -4.51,-1.82 -4.5,-1.78 -4.51,-1.75 -4.51,-1.72 -4.5,-1.69 -4.51,-1.66 -4.51,-1.65 -4.5,-1.62 -4.51,-1.6 -4.51,-1.58 -4.5,-1.57 -4.51,-1.56 -4.51,-1.54 -4.5,-1.53 -4.51,-1.53 -4.51,-1.51 -4.5,-1.51 -4.51,-1.5 -4.51,-1.49 -4.5,-1.49 -4.51,-1.48 -4.51,-1.47 -4.5,-1.46 -4.51,-1.46 -4.51,-1.44 -4.5,-1.45 -4.51,-1.43 -4.51,-1.42 -4.5,-1.42 -4.51,-1.41 -4.51,-1.39 -4.5,-1.39 -4.51,-1.38 -4.51,-1.37 -4.5,-1.35 -4.51,-1.35 -4.51,-1.33 -4.5,-1.33 -4.51,-1.31 -4.51,-1.29 -4.5,-1.29 -4.51,-1.27 -4.51,-1.26 -4.5,-1.25 -4.51,-1.23 -4.51,-1.22 -4.5,-1.21 -4.51,-1.19 -4.51,-1.18 -4.5,-1.16 -4.51,-1.15 -4.51,-1.14 -4.5,-1.12 -4.51,-1.11 -4.51,-1.1 -4.5,-1.09 -4.51,-1.07 -4.51,-1.06 -4.5,-1.04 -4.51,-1.03 -4.51,-1.02 -4.5,-1.01 -4.51,-1 -4.51,-0.99 -4.5,-0.97 -4.51,-0.96 -4.51,-0.95 -4.5,-0.94 -4.51,-0.93 -4.51,-0.92 -4.5,-0.9 -4.51,-0.9 -4.51,-0.88 -4.5,-0.88 -4.51,-0.86 -4.51,-0.86 -4.5,-0.84 -4.51,-0.84 -4.51,-0.82 -4.5,-0.82 -4.51,-0.8 -4.51,-0.8 -4.5,-0.79 -4.51,-0.78 -4.51,-0.77 -4.5,-0.76 -4.51,-0.75 -4.51,-0.74 -4.5,-0.74 -4.51,-0.72 -4.51,-0.72 -4.5,-0.71 z"
           style="fill:#ffa500;fill-opacity:0.149;fill-rule:nonzero;stroke:none"
           id="path773" />
        <path
           d="m 77.07,77.97 4.5,0.21 4.51,0.22 4.51,0.21 4.5,0.22 4.51,0.22 4.51,0.22 4.5,0.22 4.51,0.23 4.51,0.22 4.5,0.22 4.51,0.23 4.51,0.23 4.5,0.23 4.51,0.22 4.51,0.24 4.5,0.23 4.51,0.23 4.51,0.23 4.5,0.24 4.51,0.23 4.51,0.24 4.5,0.24 4.51,0.24 4.51,0.24 4.5,0.24 4.51,0.24 4.51,0.25 4.5,0.24 4.51,0.25 4.51,0.24 4.5,0.25 4.51,0.25 4.51,0.25 4.5,0.25 4.51,0.25 4.51,0.25 4.5,0.26 4.51,0.25 4.51,0.26 4.5,0.25 4.51,0.26 4.51,0.26 4.5,0.26 4.51,0.26 4.51,0.26 4.5,0.26 4.51,0.27 4.51,0.27 4.5,0.27 4.51,0.27 4.51,0.27 4.5,0.28 4.51,0.28 4.51,0.28 4.5,0.29 4.51,0.29 4.51,0.3 4.5,0.3 4.51,0.3 4.51,0.31 4.5,0.31 4.51,0.32 4.51,0.32 4.5,0.33 4.51,0.34 4.51,0.34 4.5,0.35 4.51,0.35 4.51,0.37 4.5,0.37 4.51,0.38 4.51,0.38 4.5,0.4 4.51,0.4 4.51,0.42 4.5,0.42 4.51,0.43 4.51,0.44 4.5,0.45 4.51,0.46 4.51,0.47 4.5,0.48 4.51,0.49 4.51,0.5 4.5,0.5 4.51,0.51 4.51,0.52 4.5,0.52 4.51,0.53 4.51,0.53 4.5,0.54 4.51,0.54 4.51,0.54 4.5,0.54 4.51,0.55 4.51,0.54 4.5,0.55 4.51,0.54 4.51,0.55 4.5,0.55 v 117.07 l -4.5,-1.74 -4.51,-1.7 -4.51,-1.66 -4.5,-1.63 -4.51,-1.59 -4.51,-1.56 -4.5,-1.53 -4.51,-1.49 -4.51,-1.47 -4.5,-1.43 -4.51,-1.41 -4.51,-1.39 -4.5,-1.36 -4.51,-1.34 -4.51,-1.32 -4.5,-1.3 -4.51,-1.28 -4.51,-1.27 -4.5,-1.26 -4.51,-1.24 -4.51,-1.23 -4.5,-1.22 -4.51,-1.21 -4.51,-1.21 -4.5,-1.19 -4.51,-1.19 -4.51,-1.18 -4.5,-1.18 -4.51,-1.17 -4.51,-1.16 -4.5,-1.15 -4.51,-1.15 -4.51,-1.14 -4.5,-1.13 -4.51,-1.13 -4.51,-1.12 -4.5,-1.11 -4.51,-1.1 -4.51,-1.1 -4.5,-1.09 -4.51,-1.08 -4.51,-1.07 -4.5,-1.06 -4.51,-1.05 -4.51,-1.05 -4.5,-1.03 -4.51,-1.03 -4.51,-1.01 -4.5,-1 -4.51,-1 -4.51,-0.98 -4.5,-0.97 -4.51,-0.96 -4.51,-0.95 -4.5,-0.95 -4.51,-0.92 -4.51,-0.92 -4.5,-0.91 -4.51,-0.9 -4.51,-0.88 -4.5,-0.88 -4.51,-0.87 -4.51,-0.85 -4.5,-0.85 -4.51,-0.83 -4.51,-0.83 -4.5,-0.81 -4.51,-0.81 -4.51,-0.79 -4.5,-0.79 -4.51,-0.77 -4.51,-0.77 -4.5,-0.76 -4.51,-0.75 -4.51,-0.74 -4.5,-0.73 -4.51,-0.73 -4.51,-0.71 -4.5,-0.71 -4.51,-0.7 -4.51,-0.69 -4.5,-0.68 -4.51,-0.67 -4.51,-0.67 -4.5,-0.66 -4.51,-0.65 -4.51,-0.64 -4.5,-0.64 -4.51,-0.62 -4.51,-0.63 -4.5,-0.61 -4.51,-0.61 -4.51,-0.6 -4.5,-0.59 -4.51,-0.59 -4.51,-0.58 -4.5,-0.57 -4.51,-0.57 -4.51,-0.56 -4.5,-0.55 z"
           style="fill:#006400;fill-opacity:0.149;fill-rule:nonzero;stroke:none"
           id="path775" />
        <path
           d="m 77.07,136.4 4.5,0.67 4.51,0.68 4.51,0.69 4.5,0.69 4.51,0.69 4.51,0.7 4.5,0.71 4.51,0.71 4.51,0.72 4.5,0.73 4.51,0.73 4.51,0.73 4.5,0.74 4.51,0.75 4.51,0.76 4.5,0.76 4.51,0.76 4.51,0.78 4.5,0.77 4.51,0.79 4.51,0.79 4.5,0.8 4.51,0.8 4.51,0.82 4.5,0.81 4.51,0.83 4.51,0.83 4.5,0.84 4.51,0.84 4.51,0.85 4.5,0.86 4.51,0.87 4.51,0.87 4.5,0.88 4.51,0.89 4.51,0.89 4.5,0.9 4.51,0.91 4.51,0.92 4.5,0.92 4.51,0.93 4.51,0.94 4.5,0.95 4.51,0.95 4.51,0.97 4.5,0.97 4.51,0.98 4.51,0.99 4.5,1 4.51,1.01 4.51,1.02 4.5,1.03 4.51,1.04 4.51,1.05 4.5,1.06 4.51,1.08 4.51,1.08 4.5,1.1 4.51,1.11 4.51,1.13 4.5,1.13 4.51,1.15 4.51,1.17 4.5,1.18 4.51,1.19 4.51,1.21 4.5,1.22 4.51,1.24 4.51,1.26 4.5,1.27 4.51,1.29 4.51,1.31 4.5,1.33 4.51,1.34 4.51,1.37 4.5,1.38 4.51,1.41 4.51,1.42 4.5,1.45 4.51,1.47 4.51,1.49 4.5,1.52 4.51,1.53 4.51,1.56 4.5,1.58 4.51,1.61 4.51,1.62 4.5,1.65 4.51,1.67 4.51,1.69 4.5,1.71 4.51,1.73 4.51,1.76 4.5,1.77 4.51,1.79 4.51,1.82 4.5,1.83 4.51,1.86 4.51,1.87 4.5,1.89"
           style="fill:none;stroke:#8b0000;stroke-width:2.25;stroke-linecap:round;stroke-linejoin:round;stroke-miterlimit:10;stroke-dasharray:none;stroke-opacity:1"
           id="path777" />
        <path
           d="m 77.07,107.61 4.5,0.44 4.51,0.44 4.51,0.44 4.5,0.45 4.51,0.46 4.51,0.45 4.5,0.47 4.51,0.46 4.51,0.47 4.5,0.47 4.51,0.48 4.51,0.48 4.5,0.48 4.51,0.49 4.51,0.49 4.5,0.49 4.51,0.5 4.51,0.51 4.5,0.5 4.51,0.52 4.51,0.51 4.5,0.52 4.51,0.53 4.51,0.53 4.5,0.53 4.51,0.54 4.51,0.54 4.5,0.54 4.51,0.55 4.51,0.56 4.5,0.56 4.51,0.56 4.51,0.57 4.5,0.58 4.51,0.57 4.51,0.59 4.5,0.58 4.51,0.6 4.51,0.59 4.5,0.6 4.51,0.61 4.51,0.61 4.5,0.62 4.51,0.62 4.51,0.63 4.5,0.63 4.51,0.64 4.51,0.65 4.5,0.65 4.51,0.66 4.51,0.66 4.5,0.68 4.51,0.67 4.51,0.69 4.5,0.69 4.51,0.7 4.51,0.71 4.5,0.71 4.51,0.73 4.51,0.73 4.5,0.74 4.51,0.75 4.51,0.76 4.5,0.77 4.51,0.78 4.51,0.78 4.5,0.8 4.51,0.81 4.51,0.82 4.5,0.83 4.51,0.84 4.51,0.85 4.5,0.87 4.51,0.88 4.51,0.88 4.5,0.91 4.51,0.91 4.51,0.93 4.5,0.95 4.51,0.95 4.51,0.98 4.5,0.98 4.51,1 4.51,1.02 4.5,1.03 4.51,1.05 4.51,1.05 4.5,1.08 4.51,1.09 4.51,1.1 4.5,1.11 4.51,1.13 4.51,1.15 4.5,1.15 4.51,1.17 4.51,1.18 4.5,1.2 4.51,1.21 4.51,1.22 4.5,1.23"
           style="fill:none;stroke:#ffa500;stroke-width:2.25;stroke-linecap:round;stroke-linejoin:round;stroke-miterlimit:10;stroke-dasharray:none;stroke-opacity:1"
           id="path779" />
        <path
           d="m 77.07,96.21 4.5,0.35 4.51,0.34 4.51,0.36 4.5,0.35 4.51,0.36 4.51,0.36 4.5,0.36 4.51,0.37 4.51,0.37 4.5,0.37 4.51,0.37 4.51,0.38 4.5,0.38 4.51,0.39 4.51,0.39 4.5,0.39 4.51,0.39 4.51,0.4 4.5,0.4 4.51,0.4 4.51,0.41 4.5,0.41 4.51,0.41 4.51,0.42 4.5,0.42 4.51,0.42 4.51,0.43 4.5,0.43 4.51,0.43 4.51,0.44 4.5,0.44 4.51,0.45 4.51,0.45 4.5,0.45 4.51,0.46 4.51,0.45 4.5,0.47 4.51,0.46 4.51,0.48 4.5,0.47 4.51,0.48 4.51,0.48 4.5,0.49 4.51,0.49 4.51,0.49 4.5,0.5 4.51,0.51 4.51,0.51 4.5,0.51 4.51,0.52 4.51,0.52 4.5,0.53 4.51,0.54 4.51,0.54 4.5,0.54 4.51,0.56 4.51,0.55 4.5,0.57 4.51,0.57 4.51,0.58 4.5,0.58 4.51,0.59 4.51,0.6 4.5,0.61 4.51,0.61 4.51,0.62 4.5,0.63 4.51,0.64 4.51,0.64 4.5,0.66 4.51,0.66 4.51,0.67 4.5,0.68 4.51,0.7 4.51,0.7 4.5,0.71 4.51,0.72 4.51,0.73 4.5,0.75 4.51,0.75 4.51,0.77 4.5,0.78 4.51,0.79 4.51,0.8 4.5,0.81 4.51,0.83 4.51,0.83 4.5,0.85 4.51,0.85 4.51,0.87 4.5,0.88 4.51,0.89 4.51,0.9 4.5,0.92 4.51,0.92 4.51,0.93 4.5,0.94 4.51,0.96 4.51,0.96 4.5,0.97"
           style="fill:none;stroke:#006400;stroke-width:2.25;stroke-linecap:round;stroke-linejoin:round;stroke-miterlimit:10;stroke-dasharray:none;stroke-opacity:1"
           id="path781" />
      </g>
    </g>
    <g
       id="g795"
       transform="matrix(1.3333333,0,0,-1.3333333,-257.99853,1093.6234)">
      <text
         xml:space="preserve"
         transform="matrix(1,0,0,-1,237.87,397.45)"
         style="font-style:normal;font-variant:normal;font-weight:normal;font-stretch:normal;font-size:20px;font-family:Helvetica;-inkscape-font-specification:'Helvetica, Normal';font-variant-ligatures:normal;font-variant-caps:normal;font-variant-numeric:normal;font-variant-east-asian:normal;writing-mode:lr-tb;fill:#000000;fill-opacity:1;fill-rule:nonzero;stroke:none"
         id="text799"><tspan
           sodipodi:role="line"
           id="tspan3041">C) All−cause mortality</tspan></text>
    </g>
  </g>
</svg>
