<?xml version="1.0" encoding="UTF-8" standalone="no"?>
<!-- Created with Inkscape (http://www.inkscape.org/) -->

<svg
   version="1.1"
   id="svg389"
   width="760"
   height="1680"
   viewBox="0 0 760 1680"
   sodipodi:docname="addition_pro_hrv_ir_mace.svg"
   inkscape:export-filename="../../Desktop/PhD/PhD_dissertation/images/addition_pro_hrv_ir_mace.pdf"
   inkscape:export-xdpi="96"
   inkscape:export-ydpi="96"
   inkscape:version="1.2.1 (9c6d41e4, 2022-07-14)"
   xmlns:inkscape="http://www.inkscape.org/namespaces/inkscape"
   xmlns:sodipodi="http://sodipodi.sourceforge.net/DTD/sodipodi-0.dtd"
   xmlns="http://www.w3.org/2000/svg"
   xmlns:svg="http://www.w3.org/2000/svg">
  <defs
     id="defs393">
    <clipPath
       clipPathUnits="userSpaceOnUse"
       id="clipPath495">
      <path
         d="M 59.04,73.44 H 545.76 V 372.96 H 59.04 Z"
         id="path493" />
    </clipPath>
    <clipPath
       clipPathUnits="userSpaceOnUse"
       id="clipPath233">
      <path
         d="M 59.04,73.44 H 545.76 V 372.96 H 59.04 Z"
         id="path231" />
    </clipPath>
    <clipPath
       clipPathUnits="userSpaceOnUse"
       id="clipPath769">
      <path
         d="M 59.04,73.44 H 545.76 V 372.96 H 59.04 Z"
         id="path767" />
    </clipPath>
  </defs>
  <sodipodi:namedview
     id="namedview391"
     pagecolor="#ffffff"
     bordercolor="#000000"
     borderopacity="0.25"
     inkscape:showpageshadow="2"
     inkscape:pageopacity="0.0"
     inkscape:pagecheckerboard="0"
     inkscape:deskcolor="#d1d1d1"
     showgrid="false"
     inkscape:zoom="0.47368437"
     inkscape:cx="143.55551"
     inkscape:cy="1008.0552"
     inkscape:window-width="1419"
     inkscape:window-height="967"
     inkscape:window-x="1538"
     inkscape:window-y="75"
     inkscape:window-maximized="0"
     inkscape:current-layer="g521">
    <inkscape:page
       x="0"
       y="0"
       id="page395"
       width="760"
       height="1680" />
  </sodipodi:namedview>
  <g
     id="g397"
     inkscape:groupmode="layer"
     inkscape:label="Page 1"
     transform="matrix(1.3333333,0,0,-1.3333333,0,576)">
    <g
       id="g399" />
    <g
       id="g401"
       transform="translate(3.926719)">
      <path
         d="M 77.07,73.44 H 527.73"
         style="fill:none;stroke:#000000;stroke-width:0.75;stroke-linecap:round;stroke-linejoin:round;stroke-miterlimit:10;stroke-dasharray:none;stroke-opacity:1"
         id="path403" />
      <path
         d="m 77.07,73.44 v -7.2"
         style="fill:none;stroke:#000000;stroke-width:0.75;stroke-linecap:round;stroke-linejoin:round;stroke-miterlimit:10;stroke-dasharray:none;stroke-opacity:1"
         id="path405" />
      <path
         d="m 167.2,73.44 v -7.2"
         style="fill:none;stroke:#000000;stroke-width:0.75;stroke-linecap:round;stroke-linejoin:round;stroke-miterlimit:10;stroke-dasharray:none;stroke-opacity:1"
         id="path407" />
      <path
         d="m 257.33,73.44 v -7.2"
         style="fill:none;stroke:#000000;stroke-width:0.75;stroke-linecap:round;stroke-linejoin:round;stroke-miterlimit:10;stroke-dasharray:none;stroke-opacity:1"
         id="path409" />
      <path
         d="m 347.47,73.44 v -7.2"
         style="fill:none;stroke:#000000;stroke-width:0.75;stroke-linecap:round;stroke-linejoin:round;stroke-miterlimit:10;stroke-dasharray:none;stroke-opacity:1"
         id="path411" />
      <path
         d="m 437.6,73.44 v -7.2"
         style="fill:none;stroke:#000000;stroke-width:0.75;stroke-linecap:round;stroke-linejoin:round;stroke-miterlimit:10;stroke-dasharray:none;stroke-opacity:1"
         id="path413" />
      <path
         d="m 527.73,73.44 v -7.2"
         style="fill:none;stroke:#000000;stroke-width:0.75;stroke-linecap:round;stroke-linejoin:round;stroke-miterlimit:10;stroke-dasharray:none;stroke-opacity:1"
         id="path415" />
      <text
         xml:space="preserve"
         transform="matrix(1,0,0,-1,70.39,47.52)"
         style="font-variant:normal;font-weight:normal;font-size:12px;font-family:Helvetica;-inkscape-font-specification:Helvetica;writing-mode:lr-tb;fill:#000000;fill-opacity:1;fill-rule:nonzero;stroke:none"
         id="text419"><tspan
           x="0 6.6719999"
           y="0"
           sodipodi:role="line"
           id="tspan417">64</tspan></text>
      <text
         xml:space="preserve"
         transform="matrix(1,0,0,-1,160.53,47.52)"
         style="font-variant:normal;font-weight:normal;font-size:12px;font-family:Helvetica;-inkscape-font-specification:Helvetica;writing-mode:lr-tb;fill:#000000;fill-opacity:1;fill-rule:nonzero;stroke:none"
         id="text423"><tspan
           x="0 6.6719999"
           y="0"
           sodipodi:role="line"
           id="tspan421">66</tspan></text>
      <text
         xml:space="preserve"
         transform="matrix(1,0,0,-1,250.66,47.52)"
         style="font-variant:normal;font-weight:normal;font-size:12px;font-family:Helvetica;-inkscape-font-specification:Helvetica;writing-mode:lr-tb;fill:#000000;fill-opacity:1;fill-rule:nonzero;stroke:none"
         id="text427"><tspan
           x="0 6.6719999"
           y="0"
           sodipodi:role="line"
           id="tspan425">68</tspan></text>
      <text
         xml:space="preserve"
         transform="matrix(1,0,0,-1,340.79,47.52)"
         style="font-variant:normal;font-weight:normal;font-size:12px;font-family:Helvetica;-inkscape-font-specification:Helvetica;writing-mode:lr-tb;fill:#000000;fill-opacity:1;fill-rule:nonzero;stroke:none"
         id="text431"><tspan
           x="0 6.6719999"
           y="0"
           sodipodi:role="line"
           id="tspan429">70</tspan></text>
      <text
         xml:space="preserve"
         transform="matrix(1,0,0,-1,430.93,47.52)"
         style="font-variant:normal;font-weight:normal;font-size:12px;font-family:Helvetica;-inkscape-font-specification:Helvetica;writing-mode:lr-tb;fill:#000000;fill-opacity:1;fill-rule:nonzero;stroke:none"
         id="text435"><tspan
           x="0 6.6719999"
           y="0"
           sodipodi:role="line"
           id="tspan433">72</tspan></text>
      <text
         xml:space="preserve"
         transform="matrix(1,0,0,-1,521.06,47.52)"
         style="font-variant:normal;font-weight:normal;font-size:12px;font-family:Helvetica;-inkscape-font-specification:Helvetica;writing-mode:lr-tb;fill:#000000;fill-opacity:1;fill-rule:nonzero;stroke:none"
         id="text439"><tspan
           x="0 6.6719999"
           y="0"
           sodipodi:role="line"
           id="tspan437">74</tspan></text>
      <path
         d="M 59.04,106.87 V 353.84"
         style="fill:none;stroke:#000000;stroke-width:0.75;stroke-linecap:round;stroke-linejoin:round;stroke-miterlimit:10;stroke-dasharray:none;stroke-opacity:1"
         id="path441" />
      <path
         d="m 59.04,106.87 h -7.2"
         style="fill:none;stroke:#000000;stroke-width:0.75;stroke-linecap:round;stroke-linejoin:round;stroke-miterlimit:10;stroke-dasharray:none;stroke-opacity:1"
         id="path443" />
      <path
         d="m 59.04,156.27 h -7.2"
         style="fill:none;stroke:#000000;stroke-width:0.75;stroke-linecap:round;stroke-linejoin:round;stroke-miterlimit:10;stroke-dasharray:none;stroke-opacity:1"
         id="path445" />
      <path
         d="m 59.04,205.66 h -7.2"
         style="fill:none;stroke:#000000;stroke-width:0.75;stroke-linecap:round;stroke-linejoin:round;stroke-miterlimit:10;stroke-dasharray:none;stroke-opacity:1"
         id="path447" />
      <path
         d="m 59.04,255.05 h -7.2"
         style="fill:none;stroke:#000000;stroke-width:0.75;stroke-linecap:round;stroke-linejoin:round;stroke-miterlimit:10;stroke-dasharray:none;stroke-opacity:1"
         id="path449" />
      <path
         d="m 59.04,304.44 h -7.2"
         style="fill:none;stroke:#000000;stroke-width:0.75;stroke-linecap:round;stroke-linejoin:round;stroke-miterlimit:10;stroke-dasharray:none;stroke-opacity:1"
         id="path451" />
      <path
         d="m 59.04,353.84 h -7.2"
         style="fill:none;stroke:#000000;stroke-width:0.75;stroke-linecap:round;stroke-linejoin:round;stroke-miterlimit:10;stroke-dasharray:none;stroke-opacity:1"
         id="path453" />
      <text
         xml:space="preserve"
         transform="matrix(0,1,1,0,41.76,100.2)"
         style="font-variant:normal;font-weight:normal;font-size:12px;font-family:Helvetica;-inkscape-font-specification:Helvetica;writing-mode:lr-tb;fill:#000000;fill-opacity:1;fill-rule:nonzero;stroke:none"
         id="text457"><tspan
           x="0 6.6719999"
           y="0"
           sodipodi:role="line"
           id="tspan455">30</tspan></text>
      <text
         xml:space="preserve"
         transform="matrix(0,1,1,0,41.76,149.59)"
         style="font-variant:normal;font-weight:normal;font-size:12px;font-family:Helvetica;-inkscape-font-specification:Helvetica;writing-mode:lr-tb;fill:#000000;fill-opacity:1;fill-rule:nonzero;stroke:none"
         id="text461"><tspan
           x="0 6.6719999"
           y="0"
           sodipodi:role="line"
           id="tspan459">40</tspan></text>
      <text
         xml:space="preserve"
         transform="matrix(0,1,1,0,41.76,198.99)"
         style="font-variant:normal;font-weight:normal;font-size:12px;font-family:Helvetica;-inkscape-font-specification:Helvetica;writing-mode:lr-tb;fill:#000000;fill-opacity:1;fill-rule:nonzero;stroke:none"
         id="text465"><tspan
           x="0 6.6719999"
           y="0"
           sodipodi:role="line"
           id="tspan463">50</tspan></text>
      <text
         xml:space="preserve"
         transform="matrix(0,1,1,0,41.76,248.38)"
         style="font-variant:normal;font-weight:normal;font-size:12px;font-family:Helvetica;-inkscape-font-specification:Helvetica;writing-mode:lr-tb;fill:#000000;fill-opacity:1;fill-rule:nonzero;stroke:none"
         id="text469"><tspan
           x="0 6.6719999"
           y="0"
           sodipodi:role="line"
           id="tspan467">60</tspan></text>
      <text
         xml:space="preserve"
         transform="matrix(0,1,1,0,41.76,297.77)"
         style="font-variant:normal;font-weight:normal;font-size:12px;font-family:Helvetica;-inkscape-font-specification:Helvetica;writing-mode:lr-tb;fill:#000000;fill-opacity:1;fill-rule:nonzero;stroke:none"
         id="text473"><tspan
           x="0 6.6719999"
           y="0"
           sodipodi:role="line"
           id="tspan471">70</tspan></text>
      <text
         xml:space="preserve"
         transform="matrix(0,1,1,0,41.76,347.17)"
         style="font-variant:normal;font-weight:normal;font-size:12px;font-family:Helvetica;-inkscape-font-specification:Helvetica;writing-mode:lr-tb;fill:#000000;fill-opacity:1;fill-rule:nonzero;stroke:none"
         id="text477"><tspan
           x="0 6.6719999"
           y="0"
           sodipodi:role="line"
           id="tspan475">80</tspan></text>
    </g>
    <g
       id="g479"
       transform="translate(3.926719)">
      <text
         xml:space="preserve"
         transform="matrix(0,1,1,0,12.96,134.11)"
         style="font-variant:normal;font-weight:normal;font-size:12px;font-family:Helvetica;-inkscape-font-specification:Helvetica;writing-mode:lr-tb;fill:#000000;fill-opacity:1;fill-rule:nonzero;stroke:none"
         id="text487"><tspan
           x="0 3.336 10.008 16.007999 18.672001 25.344 32.015999 38.688 44.688 51.360001 54.695999 61.368 68.040001 72.036003 75.372002 82.043999 88.716003 95.388 102.06 105.396 112.068 118.74 122.736 128.73599 135.408 142.08 149.088 154.84801 161.52 168.192 172.188"
           y="0"
           sodipodi:role="line"
           id="tspan485">Incidence per 1000 person−years</tspan></text>
    </g>
    <g
       id="g489"
       transform="translate(3.926719)">
      <g
         id="g491"
         clip-path="url(#clipPath495)">
        <path
           d="m 77.07,114.9 4.5,0.93 4.51,0.94 4.51,0.93 4.5,0.95 4.51,0.95 4.51,0.95 4.5,0.95 4.51,0.97 4.51,0.96 4.5,0.97 4.51,0.98 4.51,0.98 4.5,0.98 4.51,0.99 4.51,1 4.5,0.99 4.51,1.01 4.51,1.01 4.5,1.01 4.51,1.02 4.51,1.02 4.5,1.02 4.51,1.04 4.51,1.03 4.5,1.04 4.51,1.05 4.51,1.05 4.5,1.06 4.51,1.06 4.51,1.06 4.5,1.08 4.51,1.07 4.51,1.08 4.5,1.09 4.51,1.09 4.51,1.09 4.5,1.1 4.51,1.11 4.51,1.11 4.5,1.12 4.51,1.12 4.51,1.12 4.5,1.13 4.51,1.13 4.51,1.12 4.5,1.13 4.51,1.12 4.51,1.12 4.5,1.12 4.51,1.11 4.51,1.09 4.5,1.09 4.51,1.08 4.51,1.06 4.5,1.05 4.51,1.04 4.51,1.01 4.5,1 4.51,0.98 4.51,0.95 4.5,0.93 4.51,0.91 4.51,0.87 4.5,0.85 4.51,0.81 4.51,0.79 4.5,0.75 4.51,0.71 4.51,0.67 4.5,0.63 4.51,0.59 4.51,0.55 4.5,0.5 4.51,0.45 4.51,0.4 4.5,0.34 4.51,0.29 4.51,0.24 4.5,0.18 4.51,0.11 4.51,0.05 4.5,-0.01 4.51,-0.07 4.51,-0.13 4.5,-0.18 4.51,-0.24 4.51,-0.29 4.5,-0.33 4.51,-0.38 4.51,-0.42 4.5,-0.46 4.51,-0.5 4.51,-0.53 4.5,-0.56 4.51,-0.59 4.51,-0.61 4.5,-0.64 4.51,-0.66 4.51,-0.67 4.5,-0.68 v 164.75 l -4.5,1.03 -4.51,1.04 -4.51,1.05 -4.5,1.06 -4.51,1.05 -4.51,1.05 -4.5,1.04 -4.51,1.01 -4.51,0.98 -4.5,0.95 -4.51,0.9 -4.51,0.86 -4.5,0.8 -4.51,0.73 -4.51,0.65 -4.5,0.58 -4.51,0.48 -4.51,0.39 -4.5,0.28 -4.51,0.16 -4.51,0.05 -4.5,-0.08 -4.51,-0.19 -4.51,-0.31 -4.5,-0.43 -4.51,-0.53 -4.51,-0.64 -4.5,-0.74 -4.51,-0.85 -4.51,-0.94 -4.5,-1.04 -4.51,-1.13 -4.51,-1.21 -4.5,-1.3 -4.51,-1.37 -4.51,-1.45 -4.5,-1.52 -4.51,-1.58 -4.51,-1.65 -4.5,-1.71 -4.51,-1.76 -4.51,-1.81 -4.5,-1.86 -4.51,-1.9 -4.51,-1.94 -4.5,-1.97 -4.51,-2.01 -4.51,-2.03 -4.5,-2.05 -4.51,-2.08 -4.51,-2.09 -4.5,-2.1 -4.51,-2.11 -4.51,-2.12 -4.5,-2.12 -4.51,-2.12 -4.51,-2.12 -4.5,-2.11 -4.51,-2.1 -4.51,-2.09 -4.5,-2.08 -4.51,-2.06 -4.51,-2.05 -4.5,-2.03 -4.51,-2.01 -4.51,-2.01 -4.5,-1.99 -4.51,-1.97 -4.51,-1.96 -4.5,-1.95 -4.51,-1.93 -4.51,-1.92 -4.5,-1.91 -4.51,-1.89 -4.51,-1.88 -4.5,-1.86 -4.51,-1.86 -4.51,-1.84 -4.5,-1.82 -4.51,-1.82 -4.51,-1.8 -4.5,-1.79 -4.51,-1.78 -4.51,-1.76 -4.5,-1.75 -4.51,-1.74 -4.51,-1.73 -4.5,-1.71 -4.51,-1.71 -4.51,-1.69 -4.5,-1.68 -4.51,-1.66 -4.51,-1.66 -4.5,-1.65 -4.51,-1.63 -4.51,-1.62 -4.5,-1.61 -4.51,-1.6 -4.51,-1.59 -4.5,-1.58 z"
           style="fill:#8b0000;fill-opacity:0.149;fill-rule:nonzero;stroke:none"
           id="path497" />
        <path
           d="m 77.07,94.68 4.5,0.82 4.51,0.81 4.51,0.83 4.5,0.82 4.51,0.83 4.51,0.83 4.5,0.84 4.51,0.84 4.51,0.85 4.5,0.84 4.51,0.86 4.51,0.85 4.5,0.86 4.51,0.87 4.51,0.87 4.5,0.87 4.51,0.88 4.51,0.88 4.5,0.88 4.51,0.89 4.51,0.89 4.5,0.9 4.51,0.9 4.51,0.91 4.5,0.91 4.51,0.91 4.51,0.92 4.5,0.92 4.51,0.93 4.51,0.93 4.5,0.93 4.51,0.94 4.51,0.94 4.5,0.95 4.51,0.95 4.51,0.96 4.5,0.96 4.51,0.96 4.51,0.97 4.5,0.97 4.51,0.98 4.51,0.98 4.5,0.98 4.51,0.99 4.51,0.98 4.5,0.98 4.51,0.98 4.51,0.98 4.5,0.97 4.51,0.96 4.51,0.96 4.5,0.94 4.51,0.94 4.51,0.93 4.5,0.91 4.51,0.9 4.51,0.88 4.5,0.87 4.51,0.85 4.51,0.83 4.5,0.8 4.51,0.79 4.51,0.76 4.5,0.73 4.51,0.71 4.51,0.68 4.5,0.64 4.51,0.62 4.51,0.58 4.5,0.54 4.51,0.51 4.51,0.47 4.5,0.43 4.51,0.38 4.51,0.34 4.5,0.3 4.51,0.24 4.51,0.19 4.5,0.15 4.51,0.08 4.51,0.04 4.5,-0.03 4.51,-0.07 4.51,-0.13 4.5,-0.18 4.51,-0.22 4.51,-0.27 4.5,-0.31 4.51,-0.35 4.51,-0.39 4.5,-0.42 4.51,-0.46 4.51,-0.48 4.5,-0.52 4.51,-0.54 4.51,-0.56 4.5,-0.58 4.51,-0.6 4.51,-0.62 4.5,-0.62 v 128.94 l -4.5,0.81 -4.51,0.81 -4.51,0.83 -4.5,0.83 -4.51,0.83 -4.51,0.82 -4.5,0.82 -4.51,0.8 -4.51,0.77 -4.5,0.75 -4.51,0.72 -4.51,0.67 -4.5,0.63 -4.51,0.58 -4.51,0.51 -4.5,0.45 -4.51,0.38 -4.51,0.29 -4.5,0.21 -4.51,0.12 -4.51,0.02 -4.5,-0.08 -4.51,-0.18 -4.51,-0.27 -4.5,-0.37 -4.51,-0.45 -4.51,-0.55 -4.5,-0.63 -4.51,-0.71 -4.51,-0.79 -4.5,-0.87 -4.51,-0.95 -4.51,-1.01 -4.5,-1.08 -4.51,-1.15 -4.51,-1.21 -4.5,-1.27 -4.51,-1.32 -4.51,-1.37 -4.5,-1.42 -4.51,-1.47 -4.51,-1.5 -4.5,-1.55 -4.51,-1.58 -4.51,-1.61 -4.5,-1.64 -4.51,-1.67 -4.51,-1.68 -4.5,-1.71 -4.51,-1.72 -4.51,-1.74 -4.5,-1.74 -4.51,-1.75 -4.51,-1.76 -4.5,-1.76 -4.51,-1.76 -4.51,-1.75 -4.5,-1.75 -4.51,-1.75 -4.51,-1.73 -4.5,-1.72 -4.51,-1.71 -4.51,-1.69 -4.5,-1.68 -4.51,-1.68 -4.51,-1.65 -4.5,-1.65 -4.51,-1.64 -4.51,-1.62 -4.5,-1.61 -4.51,-1.6 -4.51,-1.59 -4.5,-1.58 -4.51,-1.57 -4.51,-1.55 -4.5,-1.55 -4.51,-1.53 -4.51,-1.52 -4.5,-1.51 -4.51,-1.51 -4.51,-1.49 -4.5,-1.48 -4.51,-1.46 -4.51,-1.46 -4.5,-1.45 -4.51,-1.44 -4.51,-1.43 -4.5,-1.41 -4.51,-1.41 -4.51,-1.4 -4.5,-1.39 -4.51,-1.38 -4.51,-1.37 -4.5,-1.35 -4.51,-1.35 -4.51,-1.34 -4.5,-1.33 -4.51,-1.33 -4.51,-1.31 -4.5,-1.3 z"
           style="fill:#ffa500;fill-opacity:0.149;fill-rule:nonzero;stroke:none"
           id="path499" />
        <path
           d="m 77.07,84.53 4.5,0.76 4.51,0.76 4.51,0.76 4.5,0.77 4.51,0.77 4.51,0.77 4.5,0.78 4.51,0.78 4.51,0.78 4.5,0.79 4.51,0.79 4.51,0.8 4.5,0.8 4.51,0.8 4.51,0.81 4.5,0.81 4.51,0.81 4.51,0.82 4.5,0.82 4.51,0.82 4.51,0.83 4.5,0.84 4.51,0.83 4.51,0.85 4.5,0.84 4.51,0.85 4.51,0.85 4.5,0.86 4.51,0.86 4.51,0.86 4.5,0.87 4.51,0.87 4.51,0.88 4.5,0.88 4.51,0.88 4.51,0.89 4.5,0.89 4.51,0.89 4.51,0.9 4.5,0.91 4.51,0.9 4.51,0.91 4.5,0.92 4.51,0.91 4.51,0.91 4.5,0.91 4.51,0.91 4.51,0.91 4.5,0.9 4.51,0.89 4.51,0.89 4.5,0.88 4.51,0.87 4.51,0.86 4.5,0.85 4.51,0.83 4.51,0.82 4.5,0.8 4.51,0.79 4.51,0.76 4.5,0.75 4.51,0.73 4.51,0.7 4.5,0.68 4.51,0.65 4.51,0.63 4.5,0.59 4.51,0.57 4.51,0.53 4.5,0.5 4.51,0.47 4.51,0.43 4.5,0.39 4.51,0.35 4.51,0.31 4.5,0.26 4.51,0.22 4.51,0.17 4.5,0.12 4.51,0.07 4.51,0.02 4.5,-0.03 4.51,-0.08 4.51,-0.13 4.5,-0.18 4.51,-0.22 4.51,-0.26 4.5,-0.3 4.51,-0.34 4.51,-0.38 4.5,-0.41 4.51,-0.43 4.51,-0.47 4.5,-0.5 4.51,-0.51 4.51,-0.54 4.5,-0.56 4.51,-0.57 4.51,-0.58 4.5,-0.6 v 118.55 l -4.5,0.71 -4.51,0.72 -4.51,0.73 -4.5,0.74 -4.51,0.73 -4.51,0.74 -4.5,0.72 -4.51,0.71 -4.51,0.69 -4.5,0.66 -4.51,0.63 -4.51,0.6 -4.5,0.55 -4.51,0.51 -4.51,0.45 -4.5,0.39 -4.51,0.33 -4.51,0.25 -4.5,0.18 -4.51,0.09 h -4.51 l -4.5,-0.09 -4.51,-0.18 -4.51,-0.27 -4.5,-0.35 -4.51,-0.43 -4.51,-0.51 -4.5,-0.59 -4.51,-0.66 -4.51,-0.74 -4.5,-0.81 -4.51,-0.87 -4.51,-0.94 -4.5,-1 -4.51,-1.06 -4.51,-1.12 -4.5,-1.16 -4.51,-1.22 -4.51,-1.27 -4.5,-1.3 -4.51,-1.35 -4.51,-1.39 -4.5,-1.42 -4.51,-1.45 -4.51,-1.49 -4.5,-1.5 -4.51,-1.53 -4.51,-1.55 -4.5,-1.57 -4.51,-1.58 -4.51,-1.6 -4.5,-1.6 -4.51,-1.61 -4.51,-1.61 -4.5,-1.62 -4.51,-1.61 -4.51,-1.61 -4.5,-1.61 -4.51,-1.6 -4.51,-1.59 -4.5,-1.58 -4.51,-1.56 -4.51,-1.56 -4.5,-1.55 -4.51,-1.53 -4.51,-1.52 -4.5,-1.51 -4.51,-1.51 -4.51,-1.49 -4.5,-1.48 -4.51,-1.47 -4.51,-1.45 -4.5,-1.45 -4.51,-1.44 -4.51,-1.43 -4.5,-1.42 -4.51,-1.4 -4.51,-1.4 -4.5,-1.39 -4.51,-1.38 -4.51,-1.36 -4.5,-1.36 -4.51,-1.35 -4.51,-1.34 -4.5,-1.33 -4.51,-1.32 -4.51,-1.31 -4.5,-1.3 -4.51,-1.29 -4.51,-1.29 -4.5,-1.27 -4.51,-1.26 -4.51,-1.26 -4.5,-1.25 -4.51,-1.24 -4.51,-1.23 -4.5,-1.22 -4.51,-1.21 -4.51,-1.2 -4.5,-1.2 z"
           style="fill:#006400;fill-opacity:0.149;fill-rule:nonzero;stroke:none"
           id="path501" />
        <path
           d="m 77.07,164.61 4.5,1.21 4.51,1.22 4.51,1.22 4.5,1.24 4.51,1.24 4.51,1.24 4.5,1.26 4.51,1.26 4.51,1.27 4.5,1.28 4.51,1.28 4.51,1.29 4.5,1.3 4.51,1.31 4.51,1.31 4.5,1.33 4.51,1.33 4.51,1.33 4.5,1.35 4.51,1.35 4.51,1.37 4.5,1.37 4.51,1.37 4.51,1.39 4.5,1.39 4.51,1.41 4.51,1.41 4.5,1.42 4.51,1.42 4.51,1.44 4.5,1.44 4.51,1.46 4.51,1.46 4.5,1.47 4.51,1.48 4.51,1.48 4.5,1.5 4.51,1.5 4.51,1.52 4.5,1.52 4.51,1.53 4.51,1.54 4.5,1.54 4.51,1.55 4.51,1.55 4.5,1.54 4.51,1.55 4.51,1.54 4.5,1.53 4.51,1.52 4.51,1.51 4.5,1.5 4.51,1.48 4.51,1.46 4.5,1.44 4.51,1.42 4.51,1.39 4.5,1.36 4.51,1.33 4.51,1.29 4.5,1.26 4.51,1.23 4.51,1.17 4.5,1.14 4.51,1.09 4.51,1.03 4.5,0.99 4.51,0.93 4.51,0.87 4.5,0.81 4.51,0.75 4.51,0.68 4.5,0.61 4.51,0.54 4.51,0.46 4.5,0.39 4.51,0.31 4.51,0.23 4.5,0.15 4.51,0.05 4.51,-0.02 4.5,-0.12 4.51,-0.19 4.51,-0.27 4.5,-0.34 4.51,-0.4 4.51,-0.47 4.5,-0.52 4.51,-0.57 4.51,-0.62 4.5,-0.66 4.51,-0.71 4.51,-0.73 4.5,-0.76 4.51,-0.79 4.51,-0.8 4.5,-0.82 4.51,-0.84 4.51,-0.83 4.5,-0.84"
           style="fill:none;stroke:#8b0000;stroke-width:2.25;stroke-linecap:round;stroke-linejoin:round;stroke-miterlimit:10;stroke-dasharray:none;stroke-opacity:1"
           id="path503" />
        <path
           d="m 77.07,133.74 4.5,1.03 4.51,1.04 4.51,1.04 4.5,1.05 4.51,1.05 4.51,1.06 4.5,1.07 4.51,1.07 4.51,1.08 4.5,1.09 4.51,1.09 4.51,1.1 4.5,1.1 4.51,1.11 4.51,1.12 4.5,1.12 4.51,1.13 4.51,1.14 4.5,1.15 4.51,1.15 4.51,1.15 4.5,1.17 4.51,1.17 4.51,1.18 4.5,1.18 4.51,1.2 4.51,1.2 4.5,1.2 4.51,1.22 4.51,1.22 4.5,1.22 4.51,1.24 4.51,1.24 4.5,1.25 4.51,1.26 4.51,1.26 4.5,1.27 4.51,1.28 4.51,1.29 4.5,1.29 4.51,1.3 4.51,1.31 4.5,1.31 4.51,1.32 4.51,1.31 4.5,1.32 4.51,1.31 4.51,1.31 4.5,1.3 4.51,1.3 4.51,1.28 4.5,1.27 4.51,1.26 4.51,1.24 4.5,1.23 4.51,1.2 4.51,1.18 4.5,1.16 4.51,1.13 4.51,1.11 4.5,1.07 4.51,1.03 4.51,1.01 4.5,0.96 4.51,0.92 4.51,0.89 4.5,0.83 4.51,0.79 4.51,0.74 4.5,0.69 4.51,0.64 4.51,0.58 4.5,0.52 4.51,0.45 4.51,0.4 4.5,0.33 4.51,0.27 4.51,0.19 4.5,0.12 4.51,0.05 4.51,-0.02 4.5,-0.1 4.51,-0.16 4.51,-0.23 4.5,-0.29 4.51,-0.34 4.51,-0.4 4.5,-0.44 4.51,-0.49 4.51,-0.52 4.5,-0.57 4.51,-0.59 4.51,-0.63 4.5,-0.65 4.51,-0.66 4.51,-0.69 4.5,-0.7 4.51,-0.7 4.51,-0.72 4.5,-0.71"
           style="fill:none;stroke:#ffa500;stroke-width:2.25;stroke-linecap:round;stroke-linejoin:round;stroke-miterlimit:10;stroke-dasharray:none;stroke-opacity:1"
           id="path505" />
        <path
           d="m 77.07,120.3 4.5,0.95 4.51,0.96 4.51,0.96 4.5,0.97 4.51,0.97 4.51,0.98 4.5,0.99 4.51,0.99 4.51,0.99 4.5,1 4.51,1.01 4.51,1.02 4.5,1.02 4.51,1.02 4.51,1.03 4.5,1.04 4.51,1.05 4.51,1.05 4.5,1.05 4.51,1.06 4.51,1.07 4.5,1.08 4.51,1.08 4.51,1.09 4.5,1.09 4.51,1.1 4.51,1.11 4.5,1.11 4.51,1.12 4.51,1.13 4.5,1.13 4.51,1.14 4.51,1.15 4.5,1.15 4.51,1.16 4.51,1.17 4.5,1.18 4.51,1.18 4.51,1.18 4.5,1.2 4.51,1.2 4.51,1.21 4.5,1.21 4.51,1.21 4.51,1.22 4.5,1.21 4.51,1.21 4.51,1.21 4.5,1.2 4.51,1.2 4.51,1.18 4.5,1.18 4.51,1.16 4.51,1.15 4.5,1.13 4.51,1.11 4.51,1.09 4.5,1.07 4.51,1.04 4.51,1.02 4.5,0.99 4.51,0.96 4.51,0.92 4.5,0.89 4.51,0.86 4.51,0.81 4.5,0.77 4.51,0.73 4.51,0.69 4.5,0.63 4.51,0.59 4.51,0.53 4.5,0.48 4.51,0.43 4.51,0.36 4.5,0.31 4.51,0.24 4.51,0.18 4.5,0.11 4.51,0.05 4.51,-0.02 4.5,-0.09 4.51,-0.15 4.51,-0.21 4.5,-0.27 4.51,-0.32 4.51,-0.36 4.5,-0.41 4.51,-0.45 4.51,-0.49 4.5,-0.52 4.51,-0.55 4.51,-0.57 4.5,-0.6 4.51,-0.62 4.51,-0.63 4.5,-0.65 4.51,-0.65 4.51,-0.66 4.5,-0.66"
           style="fill:none;stroke:#006400;stroke-width:2.25;stroke-linecap:round;stroke-linejoin:round;stroke-miterlimit:10;stroke-dasharray:none;stroke-opacity:1"
           id="path507" />
        <text
           xml:space="preserve"
           transform="matrix(1,0,0,-1,128.86,344.59)"
           style="font-variant:normal;font-weight:normal;font-size:12px;font-family:Helvetica;-inkscape-font-specification:Helvetica;writing-mode:lr-tb;fill:#8b0000;fill-opacity:1;fill-rule:nonzero;stroke:none"
           id="text511"><tspan
             x="0 8.0039997 16.667999 25.332001 33.995998 37.332001 44.004002 50.675999 57.348 60.683998 70.68"
             y="0"
             sodipodi:role="line"
             id="tspan509">SDNN 100 ms</tspan></text>
        <text
           xml:space="preserve"
           transform="matrix(1,0,0,-1,128.86,319.89)"
           style="font-variant:normal;font-weight:normal;font-size:12px;font-family:Helvetica;-inkscape-font-specification:Helvetica;writing-mode:lr-tb;fill:#ffa500;fill-opacity:1;fill-rule:nonzero;stroke:none"
           id="text515"><tspan
             x="0 8.0039997 16.667999 25.332001 33.995998 37.332001 44.004002 50.675999 57.348 60.683998 70.68"
             y="0"
             sodipodi:role="line"
             id="tspan513">SDNN 120 ms</tspan></text>
        <text
           xml:space="preserve"
           transform="matrix(1,0,0,-1,128.86,295.2)"
           style="font-variant:normal;font-weight:normal;font-size:12px;font-family:Helvetica;-inkscape-font-specification:Helvetica;writing-mode:lr-tb;fill:#006400;fill-opacity:1;fill-rule:nonzero;stroke:none"
           id="text519"><tspan
             x="0 8.0039997 16.667999 25.332001 33.995998 37.332001 44.004002 50.675999 57.348 60.683998 70.68"
             y="0"
             sodipodi:role="line"
             id="tspan517">SDNN 160 ms</tspan></text>
      </g>
    </g>
    <g
       id="g521">
      <text
         xml:space="preserve"
         transform="scale(1,-1)"
         style="font-style:normal;font-variant:normal;font-weight:normal;font-stretch:normal;font-size:14px;font-family:sans-serif;-inkscape-font-specification:'sans-serif, Normal';font-variant-ligatures:normal;font-variant-caps:normal;font-variant-numeric:normal;font-variant-east-asian:normal;writing-mode:lr-tb;fill:#000000;fill-opacity:1;fill-rule:nonzero;stroke:none"
         id="text525"
         x="44.835938"
         y="-397.45001"><tspan
           sodipodi:role="line"
           id="tspan5069"
           x="44.835938"
           y="-397.45001"><tspan
   style="font-style:normal;font-variant:normal;font-weight:bold;font-stretch:normal;font-size:14px;font-family:sans-serif;-inkscape-font-specification:'sans-serif, Bold';font-variant-ligatures:normal;font-variant-caps:normal;font-variant-numeric:normal;font-variant-east-asian:normal"
   id="tspan5071">A)</tspan> Major adverse cardiovascular events</tspan></text>
    </g>
    <g
       id="g149"
       transform="translate(3.5804309,-409.54213)" />
    <g
       id="g151"
       transform="translate(3.926719,-409.54213)">
      <path
         d="M 77.07,73.44 H 527.73"
         style="fill:none;stroke:#000000;stroke-width:0.75;stroke-linecap:round;stroke-linejoin:round;stroke-miterlimit:10;stroke-dasharray:none;stroke-opacity:1"
         id="path153" />
      <path
         d="m 77.07,73.44 v -7.2"
         style="fill:none;stroke:#000000;stroke-width:0.75;stroke-linecap:round;stroke-linejoin:round;stroke-miterlimit:10;stroke-dasharray:none;stroke-opacity:1"
         id="path155" />
      <path
         d="m 167.2,73.44 v -7.2"
         style="fill:none;stroke:#000000;stroke-width:0.75;stroke-linecap:round;stroke-linejoin:round;stroke-miterlimit:10;stroke-dasharray:none;stroke-opacity:1"
         id="path157" />
      <path
         d="m 257.33,73.44 v -7.2"
         style="fill:none;stroke:#000000;stroke-width:0.75;stroke-linecap:round;stroke-linejoin:round;stroke-miterlimit:10;stroke-dasharray:none;stroke-opacity:1"
         id="path159" />
      <path
         d="m 347.47,73.44 v -7.2"
         style="fill:none;stroke:#000000;stroke-width:0.75;stroke-linecap:round;stroke-linejoin:round;stroke-miterlimit:10;stroke-dasharray:none;stroke-opacity:1"
         id="path161" />
      <path
         d="m 437.6,73.44 v -7.2"
         style="fill:none;stroke:#000000;stroke-width:0.75;stroke-linecap:round;stroke-linejoin:round;stroke-miterlimit:10;stroke-dasharray:none;stroke-opacity:1"
         id="path163" />
      <path
         d="m 527.73,73.44 v -7.2"
         style="fill:none;stroke:#000000;stroke-width:0.75;stroke-linecap:round;stroke-linejoin:round;stroke-miterlimit:10;stroke-dasharray:none;stroke-opacity:1"
         id="path165" />
      <text
         xml:space="preserve"
         transform="matrix(1,0,0,-1,70.39,47.52)"
         style="font-variant:normal;font-weight:normal;font-size:12px;font-family:Helvetica;-inkscape-font-specification:Helvetica;writing-mode:lr-tb;fill:#000000;fill-opacity:1;fill-rule:nonzero;stroke:none"
         id="text169"><tspan
           x="0 6.6719999"
           y="0"
           sodipodi:role="line"
           id="tspan167">64</tspan></text>
      <text
         xml:space="preserve"
         transform="matrix(1,0,0,-1,160.53,47.52)"
         style="font-variant:normal;font-weight:normal;font-size:12px;font-family:Helvetica;-inkscape-font-specification:Helvetica;writing-mode:lr-tb;fill:#000000;fill-opacity:1;fill-rule:nonzero;stroke:none"
         id="text173"><tspan
           x="0 6.6719999"
           y="0"
           sodipodi:role="line"
           id="tspan171">66</tspan></text>
      <text
         xml:space="preserve"
         transform="matrix(1,0,0,-1,250.66,47.52)"
         style="font-variant:normal;font-weight:normal;font-size:12px;font-family:Helvetica;-inkscape-font-specification:Helvetica;writing-mode:lr-tb;fill:#000000;fill-opacity:1;fill-rule:nonzero;stroke:none"
         id="text177"><tspan
           x="0 6.6719999"
           y="0"
           sodipodi:role="line"
           id="tspan175">68</tspan></text>
      <text
         xml:space="preserve"
         transform="matrix(1,0,0,-1,340.79,47.52)"
         style="font-variant:normal;font-weight:normal;font-size:12px;font-family:Helvetica;-inkscape-font-specification:Helvetica;writing-mode:lr-tb;fill:#000000;fill-opacity:1;fill-rule:nonzero;stroke:none"
         id="text181"><tspan
           x="0 6.6719999"
           y="0"
           sodipodi:role="line"
           id="tspan179">70</tspan></text>
      <text
         xml:space="preserve"
         transform="matrix(1,0,0,-1,430.93,47.52)"
         style="font-variant:normal;font-weight:normal;font-size:12px;font-family:Helvetica;-inkscape-font-specification:Helvetica;writing-mode:lr-tb;fill:#000000;fill-opacity:1;fill-rule:nonzero;stroke:none"
         id="text185"><tspan
           x="0 6.6719999"
           y="0"
           sodipodi:role="line"
           id="tspan183">72</tspan></text>
      <text
         xml:space="preserve"
         transform="matrix(1,0,0,-1,521.06,47.52)"
         style="font-variant:normal;font-weight:normal;font-size:12px;font-family:Helvetica;-inkscape-font-specification:Helvetica;writing-mode:lr-tb;fill:#000000;fill-opacity:1;fill-rule:nonzero;stroke:none"
         id="text189"><tspan
           x="0 6.6719999"
           y="0"
           sodipodi:role="line"
           id="tspan187">74</tspan></text>
      <path
         d="M 59.04,104.11 V 370.55"
         style="fill:none;stroke:#000000;stroke-width:0.75;stroke-linecap:round;stroke-linejoin:round;stroke-miterlimit:10;stroke-dasharray:none;stroke-opacity:1"
         id="path191" />
      <path
         d="m 59.04,104.11 h -7.2"
         style="fill:none;stroke:#000000;stroke-width:0.75;stroke-linecap:round;stroke-linejoin:round;stroke-miterlimit:10;stroke-dasharray:none;stroke-opacity:1"
         id="path193" />
      <path
         d="m 59.04,192.92 h -7.2"
         style="fill:none;stroke:#000000;stroke-width:0.75;stroke-linecap:round;stroke-linejoin:round;stroke-miterlimit:10;stroke-dasharray:none;stroke-opacity:1"
         id="path195" />
      <path
         d="m 59.04,281.74 h -7.2"
         style="fill:none;stroke:#000000;stroke-width:0.75;stroke-linecap:round;stroke-linejoin:round;stroke-miterlimit:10;stroke-dasharray:none;stroke-opacity:1"
         id="path197" />
      <path
         d="m 59.04,370.55 h -7.2"
         style="fill:none;stroke:#000000;stroke-width:0.75;stroke-linecap:round;stroke-linejoin:round;stroke-miterlimit:10;stroke-dasharray:none;stroke-opacity:1"
         id="path199" />
      <text
         xml:space="preserve"
         transform="matrix(0,1,1,0,41.76,97.43)"
         style="font-variant:normal;font-weight:normal;font-size:12px;font-family:Helvetica;-inkscape-font-specification:Helvetica;writing-mode:lr-tb;fill:#000000;fill-opacity:1;fill-rule:nonzero;stroke:none"
         id="text203"><tspan
           x="0 6.6719999"
           y="0"
           sodipodi:role="line"
           id="tspan201">15</tspan></text>
      <text
         xml:space="preserve"
         transform="matrix(0,1,1,0,41.76,186.25)"
         style="font-variant:normal;font-weight:normal;font-size:12px;font-family:Helvetica;-inkscape-font-specification:Helvetica;writing-mode:lr-tb;fill:#000000;fill-opacity:1;fill-rule:nonzero;stroke:none"
         id="text207"><tspan
           x="0 6.6719999"
           y="0"
           sodipodi:role="line"
           id="tspan205">20</tspan></text>
      <text
         xml:space="preserve"
         transform="matrix(0,1,1,0,41.76,275.06)"
         style="font-variant:normal;font-weight:normal;font-size:12px;font-family:Helvetica;-inkscape-font-specification:Helvetica;writing-mode:lr-tb;fill:#000000;fill-opacity:1;fill-rule:nonzero;stroke:none"
         id="text211"><tspan
           x="0 6.6719999"
           y="0"
           sodipodi:role="line"
           id="tspan209">25</tspan></text>
      <text
         xml:space="preserve"
         transform="matrix(0,1,1,0,41.76,363.88)"
         style="font-variant:normal;font-weight:normal;font-size:12px;font-family:Helvetica;-inkscape-font-specification:Helvetica;writing-mode:lr-tb;fill:#000000;fill-opacity:1;fill-rule:nonzero;stroke:none"
         id="text215"><tspan
           x="0 6.6719999"
           y="0"
           sodipodi:role="line"
           id="tspan213">30</tspan></text>
    </g>
    <g
       id="g217"
       transform="translate(3.926719,-409.54213)">
      <text
         xml:space="preserve"
         transform="matrix(0,1,1,0,12.96,134.11)"
         style="font-variant:normal;font-weight:normal;font-size:12px;font-family:Helvetica;-inkscape-font-specification:Helvetica;writing-mode:lr-tb;fill:#000000;fill-opacity:1;fill-rule:nonzero;stroke:none"
         id="text225"><tspan
           x="0 3.336 10.008 16.007999 18.672001 25.344 32.015999 38.688 44.688 51.360001 54.695999 61.368 68.040001 72.036003 75.372002 82.043999 88.716003 95.388 102.06 105.396 112.068 118.74 122.736 128.73599 135.408 142.08 149.088 154.84801 161.52 168.192 172.188"
           y="0"
           sodipodi:role="line"
           id="tspan223">Incidence per 1000 person−years</tspan></text>
    </g>
    <g
       id="g227"
       transform="translate(3.926719,-409.54213)">
      <g
         id="g229"
         clip-path="url(#clipPath233)">
        <path
           d="m 77.07,113.18 4.5,-0.38 4.51,-0.38 4.51,-0.38 4.5,-0.38 4.51,-0.38 4.51,-0.38 4.5,-0.38 4.51,-0.38 4.51,-0.38 4.5,-0.38 4.51,-0.38 4.51,-0.38 4.5,-0.38 4.51,-0.38 4.51,-0.38 4.5,-0.38 4.51,-0.38 4.51,-0.37 4.5,-0.38 4.51,-0.38 4.51,-0.38 4.5,-0.38 4.51,-0.38 4.51,-0.38 4.5,-0.38 4.51,-0.38 4.51,-0.37 4.5,-0.38 4.51,-0.38 4.51,-0.38 4.5,-0.38 4.51,-0.37 4.51,-0.38 4.5,-0.38 4.51,-0.38 4.51,-0.38 4.5,-0.37 4.51,-0.38 4.51,-0.38 4.5,-0.38 4.51,-0.37 4.51,-0.38 4.5,-0.37 4.51,-0.37 4.51,-0.36 4.5,-0.35 4.51,-0.34 4.51,-0.33 4.5,-0.32 4.51,-0.3 4.51,-0.29 4.5,-0.26 4.51,-0.25 4.51,-0.23 4.5,-0.2 4.51,-0.18 4.51,-0.16 4.5,-0.12 4.51,-0.1 4.51,-0.07 4.5,-0.03 h 4.51 l 4.51,0.04 4.5,0.07 4.51,0.11 4.51,0.16 4.5,0.19 4.51,0.24 4.51,0.29 4.5,0.33 4.51,0.38 4.51,0.44 4.5,0.48 4.51,0.54 4.51,0.6 4.5,0.65 4.51,0.72 4.51,0.78 4.5,0.84 4.51,0.91 4.51,0.97 4.5,1.04 4.51,1.1 4.51,1.16 4.5,1.22 4.51,1.27 4.51,1.32 4.5,1.37 4.51,1.42 4.51,1.45 4.5,1.49 4.51,1.53 4.51,1.56 4.5,1.58 4.51,1.62 4.51,1.63 4.5,1.65 4.51,1.67 4.51,1.68 4.5,1.69 v 233.04 l -4.5,-3.09 -4.51,-3.06 -4.51,-3.01 -4.5,-2.97 -4.51,-2.92 -4.51,-2.87 -4.5,-2.8 -4.51,-2.74 -4.51,-2.67 -4.5,-2.6 -4.51,-2.52 -4.51,-2.44 -4.5,-2.35 -4.51,-2.25 -4.51,-2.17 -4.5,-2.07 -4.51,-1.96 -4.51,-1.86 -4.5,-1.75 -4.51,-1.63 -4.51,-1.52 -4.5,-1.41 -4.51,-1.3 -4.51,-1.2 -4.5,-1.09 -4.51,-1 -4.51,-0.9 -4.5,-0.81 -4.51,-0.73 -4.51,-0.65 -4.5,-0.56 -4.51,-0.49 -4.51,-0.41 -4.5,-0.34 -4.51,-0.27 -4.51,-0.21 -4.5,-0.14 -4.51,-0.09 -4.51,-0.02 -4.5,0.03 -4.51,0.08 -4.51,0.13 -4.5,0.18 -4.51,0.22 -4.51,0.27 -4.5,0.3 -4.51,0.34 -4.51,0.38 -4.5,0.41 -4.51,0.44 -4.51,0.46 -4.5,0.5 -4.51,0.51 -4.51,0.53 -4.5,0.55 -4.51,0.57 -4.51,0.58 -4.5,0.58 -4.51,0.6 -4.51,0.59 -4.5,0.6 -4.51,0.6 -4.51,0.61 -4.5,0.6 -4.51,0.61 -4.51,0.61 -4.5,0.6 -4.51,0.62 -4.51,0.61 -4.5,0.61 -4.51,0.62 -4.51,0.61 -4.5,0.62 -4.51,0.62 -4.51,0.63 -4.5,0.62 -4.51,0.63 -4.51,0.62 -4.5,0.63 -4.51,0.63 -4.51,0.63 -4.5,0.64 -4.51,0.63 -4.51,0.64 -4.5,0.64 -4.51,0.64 -4.51,0.64 -4.5,0.65 -4.51,0.64 -4.51,0.65 -4.5,0.65 -4.51,0.65 -4.51,0.65 -4.5,0.66 -4.51,0.65 -4.51,0.66 -4.5,0.66 -4.51,0.66 -4.51,0.66 -4.5,0.67 z"
           style="fill:#8b0000;fill-opacity:0.149;fill-rule:nonzero;stroke:none"
           id="path235" />
        <path
           d="m 77.07,104.21 4.5,-0.36 4.51,-0.36 4.51,-0.37 4.5,-0.36 4.51,-0.36 4.51,-0.37 4.5,-0.36 4.51,-0.36 4.51,-0.37 4.5,-0.36 4.51,-0.36 4.51,-0.36 4.5,-0.37 4.51,-0.36 4.51,-0.36 4.5,-0.37 4.51,-0.36 4.51,-0.36 4.5,-0.37 4.51,-0.36 4.51,-0.36 4.5,-0.36 4.51,-0.37 4.51,-0.36 4.5,-0.36 4.51,-0.36 4.51,-0.37 4.5,-0.36 4.51,-0.36 4.51,-0.36 4.5,-0.37 4.51,-0.36 4.51,-0.36 4.5,-0.36 4.51,-0.37 4.51,-0.36 4.5,-0.36 4.51,-0.36 4.51,-0.36 4.5,-0.37 4.51,-0.36 4.51,-0.36 4.5,-0.35 4.51,-0.36 4.51,-0.34 4.5,-0.34 4.51,-0.33 4.51,-0.31 4.5,-0.31 4.51,-0.29 4.51,-0.27 4.5,-0.26 4.51,-0.24 4.51,-0.22 4.5,-0.19 4.51,-0.18 4.51,-0.15 4.5,-0.12 4.51,-0.09 4.51,-0.06 4.5,-0.04 h 4.51 l 4.51,0.04 4.5,0.07 4.51,0.1 4.51,0.15 4.5,0.19 4.51,0.23 4.51,0.27 4.5,0.32 4.51,0.36 4.51,0.42 4.5,0.46 4.51,0.52 4.51,0.57 4.5,0.63 4.51,0.68 4.51,0.75 4.5,0.8 4.51,0.87 4.51,0.94 4.5,0.99 4.51,1.05 4.51,1.12 4.5,1.16 4.51,1.21 4.51,1.27 4.5,1.31 4.51,1.35 4.51,1.39 4.5,1.42 4.51,1.46 4.51,1.49 4.5,1.51 4.51,1.54 4.51,1.56 4.5,1.58 4.51,1.59 4.51,1.6 4.5,1.61 v 213.77 l -4.5,-2.96 -4.51,-2.92 -4.51,-2.89 -4.5,-2.84 -4.51,-2.8 -4.51,-2.74 -4.5,-2.68 -4.51,-2.62 -4.51,-2.56 -4.5,-2.48 -4.51,-2.41 -4.51,-2.33 -4.5,-2.24 -4.51,-2.16 -4.51,-2.07 -4.5,-1.97 -4.51,-1.88 -4.51,-1.78 -4.5,-1.67 -4.51,-1.56 -4.51,-1.45 -4.5,-1.35 -4.51,-1.24 -4.51,-1.14 -4.5,-1.04 -4.51,-0.95 -4.51,-0.87 -4.5,-0.77 -4.51,-0.7 -4.51,-0.61 -4.5,-0.54 -4.51,-0.47 -4.51,-0.39 -4.5,-0.33 -4.51,-0.26 -4.51,-0.2 -4.5,-0.13 -4.51,-0.08 -4.51,-0.03 -4.5,0.03 -4.51,0.07 -4.51,0.13 -4.5,0.17 -4.51,0.21 -4.51,0.25 -4.5,0.29 -4.51,0.33 -4.51,0.36 -4.5,0.39 -4.51,0.41 -4.51,0.45 -4.5,0.47 -4.51,0.49 -4.51,0.5 -4.5,0.53 -4.51,0.54 -4.51,0.55 -4.5,0.56 -4.51,0.56 -4.51,0.57 -4.5,0.57 -4.51,0.58 -4.51,0.57 -4.5,0.58 -4.51,0.57 -4.51,0.58 -4.5,0.58 -4.51,0.59 -4.51,0.58 -4.5,0.59 -4.51,0.58 -4.51,0.59 -4.5,0.59 -4.51,0.6 -4.51,0.59 -4.5,0.59 -4.51,0.6 -4.51,0.6 -4.5,0.6 -4.51,0.6 -4.51,0.61 -4.5,0.6 -4.51,0.61 -4.51,0.6 -4.5,0.61 -4.51,0.62 -4.51,0.61 -4.5,0.61 -4.51,0.62 -4.51,0.62 -4.5,0.62 -4.51,0.62 -4.51,0.62 -4.5,0.63 -4.51,0.63 -4.51,0.62 -4.5,0.63 -4.51,0.64 -4.51,0.63 -4.5,0.64 z"
           style="fill:#ffa500;fill-opacity:0.149;fill-rule:nonzero;stroke:none"
           id="path237" />
        <path
           d="m 77.07,108.07 4.5,-0.37 4.51,-0.36 4.51,-0.37 4.5,-0.37 4.51,-0.37 4.51,-0.37 4.5,-0.36 4.51,-0.37 4.51,-0.37 4.5,-0.37 4.51,-0.36 4.51,-0.37 4.5,-0.37 4.51,-0.37 4.51,-0.36 4.5,-0.37 4.51,-0.37 4.51,-0.37 4.5,-0.37 4.51,-0.36 4.51,-0.37 4.5,-0.37 4.51,-0.37 4.51,-0.36 4.5,-0.37 4.51,-0.37 4.51,-0.36 4.5,-0.37 4.51,-0.37 4.51,-0.37 4.5,-0.36 4.51,-0.37 4.51,-0.37 4.5,-0.36 4.51,-0.37 4.51,-0.37 4.5,-0.37 4.51,-0.36 4.51,-0.37 4.5,-0.37 4.51,-0.36 4.51,-0.37 4.5,-0.36 4.51,-0.35 4.51,-0.35 4.5,-0.35 4.51,-0.33 4.51,-0.32 4.5,-0.31 4.51,-0.29 4.51,-0.28 4.5,-0.26 4.51,-0.24 4.51,-0.23 4.5,-0.2 4.51,-0.17 4.51,-0.15 4.5,-0.13 4.51,-0.09 4.51,-0.07 4.5,-0.03 h 4.51 l 4.51,0.03 4.5,0.07 4.51,0.11 4.51,0.15 4.5,0.19 4.51,0.23 4.51,0.27 4.5,0.32 4.51,0.37 4.51,0.42 4.5,0.47 4.51,0.52 4.51,0.58 4.5,0.63 4.51,0.69 4.51,0.76 4.5,0.81 4.51,0.88 4.51,0.94 4.5,1 4.51,1.07 4.51,1.12 4.5,1.18 4.51,1.22 4.51,1.28 4.5,1.32 4.51,1.36 4.51,1.41 4.5,1.43 4.51,1.48 4.51,1.5 4.5,1.53 4.51,1.55 4.51,1.58 4.5,1.59 4.51,1.6 4.51,1.62 4.5,1.62 v 214.63 l -4.5,-2.99 -4.51,-2.97 -4.51,-2.93 -4.5,-2.88 -4.51,-2.83 -4.51,-2.78 -4.5,-2.72 -4.51,-2.66 -4.51,-2.59 -4.5,-2.52 -4.51,-2.44 -4.51,-2.36 -4.5,-2.28 -4.51,-2.19 -4.51,-2.09 -4.5,-2.01 -4.51,-1.9 -4.51,-1.8 -4.5,-1.69 -4.51,-1.59 -4.51,-1.47 -4.5,-1.36 -4.51,-1.26 -4.51,-1.16 -4.5,-1.06 -4.51,-0.96 -4.51,-0.88 -4.5,-0.78 -4.51,-0.71 -4.51,-0.62 -4.5,-0.55 -4.51,-0.47 -4.51,-0.4 -4.5,-0.33 -4.51,-0.27 -4.51,-0.2 -4.5,-0.14 -4.51,-0.08 -4.51,-0.03 -4.5,0.02 -4.51,0.08 -4.51,0.12 -4.5,0.17 -4.51,0.22 -4.51,0.25 -4.5,0.29 -4.51,0.33 -4.51,0.37 -4.5,0.39 -4.51,0.42 -4.51,0.45 -4.5,0.47 -4.51,0.5 -4.51,0.51 -4.5,0.53 -4.51,0.54 -4.51,0.56 -4.5,0.56 -4.51,0.58 -4.51,0.57 -4.5,0.58 -4.51,0.58 -4.51,0.58 -4.5,0.58 -4.51,0.59 -4.51,0.58 -4.5,0.59 -4.51,0.59 -4.51,0.59 -4.5,0.59 -4.51,0.59 -4.51,0.6 -4.5,0.59 -4.51,0.6 -4.51,0.6 -4.5,0.6 -4.51,0.61 -4.51,0.6 -4.5,0.61 -4.51,0.61 -4.51,0.61 -4.5,0.61 -4.51,0.61 -4.51,0.62 -4.5,0.61 -4.51,0.62 -4.51,0.62 -4.5,0.62 -4.51,0.63 -4.51,0.62 -4.5,0.63 -4.51,0.63 -4.51,0.63 -4.5,0.63 -4.51,0.63 -4.51,0.64 -4.5,0.64 -4.51,0.63 -4.51,0.65 -4.5,0.64 z"
           style="fill:#006400;fill-opacity:0.149;fill-rule:nonzero;stroke:none"
           id="path239" />
        <path
           d="m 77.07,206.91 4.5,-0.51 4.51,-0.5 4.51,-0.5 4.5,-0.5 4.51,-0.5 4.51,-0.5 4.5,-0.5 4.51,-0.5 4.51,-0.49 4.5,-0.5 4.51,-0.5 4.51,-0.49 4.5,-0.5 4.51,-0.49 4.51,-0.49 4.5,-0.5 4.51,-0.49 4.51,-0.49 4.5,-0.49 4.51,-0.49 4.51,-0.49 4.5,-0.49 4.51,-0.48 4.51,-0.49 4.5,-0.49 4.51,-0.48 4.51,-0.49 4.5,-0.48 4.51,-0.49 4.51,-0.48 4.5,-0.48 4.51,-0.48 4.51,-0.49 4.5,-0.48 4.51,-0.48 4.51,-0.48 4.5,-0.47 4.51,-0.48 4.51,-0.48 4.5,-0.48 4.51,-0.47 4.51,-0.47 4.5,-0.47 4.51,-0.46 4.51,-0.46 4.5,-0.44 4.51,-0.43 4.51,-0.41 4.5,-0.39 4.51,-0.38 4.51,-0.36 4.5,-0.33 4.51,-0.31 4.51,-0.28 4.5,-0.25 4.51,-0.22 4.51,-0.18 4.5,-0.15 4.51,-0.12 4.51,-0.07 4.5,-0.03 4.51,0.01 4.51,0.05 4.5,0.1 4.51,0.16 4.51,0.2 4.5,0.26 4.51,0.31 4.51,0.38 4.5,0.43 4.51,0.5 4.51,0.56 4.5,0.63 4.51,0.7 4.51,0.77 4.5,0.85 4.51,0.92 4.51,1.01 4.5,1.09 4.51,1.17 4.51,1.27 4.5,1.34 4.51,1.44 4.51,1.51 4.5,1.59 4.51,1.65 4.51,1.73 4.5,1.8 4.51,1.85 4.51,1.92 4.5,1.96 4.51,2.02 4.51,2.07 4.5,2.11 4.51,2.15 4.51,2.18 4.5,2.22 4.51,2.24 4.51,2.27 4.5,2.28"
           style="fill:none;stroke:#8b0000;stroke-width:2.25;stroke-linecap:round;stroke-linejoin:round;stroke-miterlimit:10;stroke-dasharray:none;stroke-opacity:1"
           id="path241" />
        <path
           d="m 77.07,190.51 4.5,-0.48 4.51,-0.48 4.51,-0.48 4.5,-0.48 4.51,-0.48 4.51,-0.47 4.5,-0.48 4.51,-0.47 4.51,-0.48 4.5,-0.47 4.51,-0.48 4.51,-0.47 4.5,-0.47 4.51,-0.48 4.51,-0.47 4.5,-0.47 4.51,-0.47 4.51,-0.47 4.5,-0.47 4.51,-0.46 4.51,-0.47 4.5,-0.47 4.51,-0.46 4.51,-0.47 4.5,-0.46 4.51,-0.47 4.51,-0.46 4.5,-0.47 4.51,-0.46 4.51,-0.46 4.5,-0.46 4.51,-0.46 4.51,-0.46 4.5,-0.46 4.51,-0.46 4.51,-0.46 4.5,-0.45 4.51,-0.46 4.51,-0.46 4.5,-0.45 4.51,-0.46 4.51,-0.45 4.5,-0.45 4.51,-0.44 4.51,-0.43 4.5,-0.42 4.51,-0.41 4.51,-0.39 4.5,-0.38 4.51,-0.36 4.51,-0.34 4.5,-0.32 4.51,-0.29 4.51,-0.27 4.5,-0.24 4.51,-0.21 4.51,-0.18 4.5,-0.14 4.51,-0.11 4.51,-0.07 4.5,-0.03 4.51,0.01 4.51,0.05 4.5,0.1 4.51,0.14 4.51,0.2 4.5,0.24 4.51,0.31 4.51,0.35 4.5,0.42 4.51,0.47 4.51,0.54 4.5,0.6 4.51,0.67 4.51,0.73 4.5,0.81 4.51,0.89 4.51,0.96 4.5,1.04 4.51,1.12 4.51,1.21 4.5,1.29 4.51,1.37 4.51,1.44 4.5,1.52 4.51,1.59 4.51,1.65 4.5,1.71 4.51,1.77 4.51,1.83 4.5,1.88 4.51,1.93 4.51,1.98 4.5,2.02 4.51,2.05 4.51,2.09 4.5,2.11 4.51,2.15 4.51,2.16 4.5,2.18"
           style="fill:none;stroke:#ffa500;stroke-width:2.25;stroke-linecap:round;stroke-linejoin:round;stroke-miterlimit:10;stroke-dasharray:none;stroke-opacity:1"
           id="path243" />
        <path
           d="m 77.07,194.68 4.5,-0.49 4.51,-0.49 4.51,-0.48 4.5,-0.48 4.51,-0.49 4.51,-0.48 4.5,-0.48 4.51,-0.48 4.51,-0.49 4.5,-0.48 4.51,-0.47 4.51,-0.48 4.5,-0.48 4.51,-0.48 4.51,-0.48 4.5,-0.47 4.51,-0.48 4.51,-0.47 4.5,-0.48 4.51,-0.47 4.51,-0.47 4.5,-0.48 4.51,-0.47 4.51,-0.47 4.5,-0.47 4.51,-0.47 4.51,-0.47 4.5,-0.47 4.51,-0.46 4.51,-0.47 4.5,-0.47 4.51,-0.46 4.51,-0.47 4.5,-0.46 4.51,-0.47 4.51,-0.46 4.5,-0.46 4.51,-0.47 4.51,-0.46 4.5,-0.46 4.51,-0.46 4.51,-0.45 4.5,-0.46 4.51,-0.44 4.51,-0.44 4.5,-0.43 4.51,-0.41 4.51,-0.4 4.5,-0.38 4.51,-0.37 4.51,-0.34 4.5,-0.32 4.51,-0.3 4.51,-0.27 4.5,-0.24 4.51,-0.21 4.51,-0.18 4.5,-0.15 4.51,-0.11 4.51,-0.07 4.5,-0.04 4.51,0.01 4.51,0.06 4.5,0.1 4.51,0.15 4.51,0.19 4.5,0.25 4.51,0.31 4.51,0.36 4.5,0.42 4.51,0.48 4.51,0.54 4.5,0.61 4.51,0.67 4.51,0.75 4.5,0.82 4.51,0.89 4.51,0.98 4.5,1.05 4.51,1.14 4.51,1.22 4.5,1.3 4.51,1.39 4.51,1.46 4.5,1.53 4.51,1.61 4.51,1.67 4.5,1.73 4.51,1.8 4.51,1.85 4.5,1.9 4.51,1.95 4.51,2 4.5,2.04 4.51,2.08 4.51,2.11 4.5,2.14 4.51,2.17 4.51,2.19 4.5,2.21"
           style="fill:none;stroke:#006400;stroke-width:2.25;stroke-linecap:round;stroke-linejoin:round;stroke-miterlimit:10;stroke-dasharray:none;stroke-opacity:1"
           id="path245" />
      </g>
    </g>
    <g
       id="g259"
       transform="translate(3.5804309,-409.54213)">
      <text
         xml:space="preserve"
         transform="scale(1,-1)"
         style="font-style:normal;font-variant:normal;font-weight:normal;font-stretch:normal;font-size:14px;font-family:sans-serif;-inkscape-font-specification:'sans-serif, Normal';font-variant-ligatures:normal;font-variant-caps:normal;font-variant-numeric:normal;font-variant-east-asian:normal;writing-mode:lr-tb;fill:#000000;fill-opacity:1;fill-rule:nonzero;stroke:none"
         id="text263"
         x="41.241837"
         y="-397.45001"><tspan
           sodipodi:role="line"
           id="tspan4949"
           x="41.241837"
           y="-397.45001"><tspan
   style="font-weight:bold"
   id="tspan5053">B) </tspan>Hospital diagnosed heart failure</tspan></text>
    </g>
  </g>
  <g
     inkscape:groupmode="layer"
     id="layer2"
     inkscape:label="Page 2">
    <g
       id="g661"
       transform="matrix(1.3333333,0,0,-1.3333333,4.7739117,1680.944)" />
    <g
       id="g663"
       transform="matrix(1.3333333,0,0,-1.3333333,5.2356251,1680.944)">
      <path
         d="M 77.07,73.44 H 527.73"
         style="fill:none;stroke:#000000;stroke-width:0.75;stroke-linecap:round;stroke-linejoin:round;stroke-miterlimit:10;stroke-dasharray:none;stroke-opacity:1"
         id="path665" />
      <path
         d="m 77.07,73.44 v -7.2"
         style="fill:none;stroke:#000000;stroke-width:0.75;stroke-linecap:round;stroke-linejoin:round;stroke-miterlimit:10;stroke-dasharray:none;stroke-opacity:1"
         id="path667" />
      <path
         d="m 167.2,73.44 v -7.2"
         style="fill:none;stroke:#000000;stroke-width:0.75;stroke-linecap:round;stroke-linejoin:round;stroke-miterlimit:10;stroke-dasharray:none;stroke-opacity:1"
         id="path669" />
      <path
         d="m 257.33,73.44 v -7.2"
         style="fill:none;stroke:#000000;stroke-width:0.75;stroke-linecap:round;stroke-linejoin:round;stroke-miterlimit:10;stroke-dasharray:none;stroke-opacity:1"
         id="path671" />
      <path
         d="m 347.47,73.44 v -7.2"
         style="fill:none;stroke:#000000;stroke-width:0.75;stroke-linecap:round;stroke-linejoin:round;stroke-miterlimit:10;stroke-dasharray:none;stroke-opacity:1"
         id="path673" />
      <path
         d="m 437.6,73.44 v -7.2"
         style="fill:none;stroke:#000000;stroke-width:0.75;stroke-linecap:round;stroke-linejoin:round;stroke-miterlimit:10;stroke-dasharray:none;stroke-opacity:1"
         id="path675" />
      <path
         d="m 527.73,73.44 v -7.2"
         style="fill:none;stroke:#000000;stroke-width:0.75;stroke-linecap:round;stroke-linejoin:round;stroke-miterlimit:10;stroke-dasharray:none;stroke-opacity:1"
         id="path677" />
      <text
         xml:space="preserve"
         transform="matrix(1,0,0,-1,70.39,47.52)"
         style="font-variant:normal;font-weight:normal;font-size:12px;font-family:Helvetica;-inkscape-font-specification:Helvetica;writing-mode:lr-tb;fill:#000000;fill-opacity:1;fill-rule:nonzero;stroke:none"
         id="text681"><tspan
           x="0 6.6719999"
           y="0"
           sodipodi:role="line"
           id="tspan679">64</tspan></text>
      <text
         xml:space="preserve"
         transform="matrix(1,0,0,-1,160.53,47.52)"
         style="font-variant:normal;font-weight:normal;font-size:12px;font-family:Helvetica;-inkscape-font-specification:Helvetica;writing-mode:lr-tb;fill:#000000;fill-opacity:1;fill-rule:nonzero;stroke:none"
         id="text685"><tspan
           x="0 6.6719999"
           y="0"
           sodipodi:role="line"
           id="tspan683">66</tspan></text>
      <text
         xml:space="preserve"
         transform="matrix(1,0,0,-1,250.66,47.52)"
         style="font-variant:normal;font-weight:normal;font-size:12px;font-family:Helvetica;-inkscape-font-specification:Helvetica;writing-mode:lr-tb;fill:#000000;fill-opacity:1;fill-rule:nonzero;stroke:none"
         id="text689"><tspan
           x="0 6.6719999"
           y="0"
           sodipodi:role="line"
           id="tspan687">68</tspan></text>
      <text
         xml:space="preserve"
         transform="matrix(1,0,0,-1,340.79,47.52)"
         style="font-variant:normal;font-weight:normal;font-size:12px;font-family:Helvetica;-inkscape-font-specification:Helvetica;writing-mode:lr-tb;fill:#000000;fill-opacity:1;fill-rule:nonzero;stroke:none"
         id="text693"><tspan
           x="0 6.6719999"
           y="0"
           sodipodi:role="line"
           id="tspan691">70</tspan></text>
      <text
         xml:space="preserve"
         transform="matrix(1,0,0,-1,430.93,47.52)"
         style="font-variant:normal;font-weight:normal;font-size:12px;font-family:Helvetica;-inkscape-font-specification:Helvetica;writing-mode:lr-tb;fill:#000000;fill-opacity:1;fill-rule:nonzero;stroke:none"
         id="text697"><tspan
           x="0 6.6719999"
           y="0"
           sodipodi:role="line"
           id="tspan695">72</tspan></text>
      <text
         xml:space="preserve"
         transform="matrix(1,0,0,-1,521.06,47.52)"
         style="font-variant:normal;font-weight:normal;font-size:12px;font-family:Helvetica;-inkscape-font-specification:Helvetica;writing-mode:lr-tb;fill:#000000;fill-opacity:1;fill-rule:nonzero;stroke:none"
         id="text701"><tspan
           x="0 6.6719999"
           y="0"
           sodipodi:role="line"
           id="tspan699">74</tspan></text>
      <path
         d="M 59.04,92.24 V 361.87"
         style="fill:none;stroke:#000000;stroke-width:0.75;stroke-linecap:round;stroke-linejoin:round;stroke-miterlimit:10;stroke-dasharray:none;stroke-opacity:1"
         id="path703" />
      <path
         d="m 59.04,92.24 h -7.2"
         style="fill:none;stroke:#000000;stroke-width:0.75;stroke-linecap:round;stroke-linejoin:round;stroke-miterlimit:10;stroke-dasharray:none;stroke-opacity:1"
         id="path705" />
      <path
         d="m 59.04,130.76 h -7.2"
         style="fill:none;stroke:#000000;stroke-width:0.75;stroke-linecap:round;stroke-linejoin:round;stroke-miterlimit:10;stroke-dasharray:none;stroke-opacity:1"
         id="path707" />
      <path
         d="m 59.04,169.27 h -7.2"
         style="fill:none;stroke:#000000;stroke-width:0.75;stroke-linecap:round;stroke-linejoin:round;stroke-miterlimit:10;stroke-dasharray:none;stroke-opacity:1"
         id="path709" />
      <path
         d="m 59.04,207.79 h -7.2"
         style="fill:none;stroke:#000000;stroke-width:0.75;stroke-linecap:round;stroke-linejoin:round;stroke-miterlimit:10;stroke-dasharray:none;stroke-opacity:1"
         id="path711" />
      <path
         d="m 59.04,246.31 h -7.2"
         style="fill:none;stroke:#000000;stroke-width:0.75;stroke-linecap:round;stroke-linejoin:round;stroke-miterlimit:10;stroke-dasharray:none;stroke-opacity:1"
         id="path713" />
      <path
         d="m 59.04,284.83 h -7.2"
         style="fill:none;stroke:#000000;stroke-width:0.75;stroke-linecap:round;stroke-linejoin:round;stroke-miterlimit:10;stroke-dasharray:none;stroke-opacity:1"
         id="path715" />
      <path
         d="m 59.04,323.35 h -7.2"
         style="fill:none;stroke:#000000;stroke-width:0.75;stroke-linecap:round;stroke-linejoin:round;stroke-miterlimit:10;stroke-dasharray:none;stroke-opacity:1"
         id="path717" />
      <path
         d="m 59.04,361.87 h -7.2"
         style="fill:none;stroke:#000000;stroke-width:0.75;stroke-linecap:round;stroke-linejoin:round;stroke-miterlimit:10;stroke-dasharray:none;stroke-opacity:1"
         id="path719" />
      <text
         xml:space="preserve"
         transform="matrix(0,1,1,0,41.76,88.9)"
         style="font-variant:normal;font-weight:normal;font-size:12px;font-family:Helvetica;-inkscape-font-specification:Helvetica;writing-mode:lr-tb;fill:#000000;fill-opacity:1;fill-rule:nonzero;stroke:none"
         id="text723"><tspan
           x="0"
           y="0"
           id="tspan721">5</tspan></text>
      <text
         xml:space="preserve"
         transform="matrix(0,1,1,0,41.76,124.08)"
         style="font-variant:normal;font-weight:normal;font-size:12px;font-family:Helvetica;-inkscape-font-specification:Helvetica;writing-mode:lr-tb;fill:#000000;fill-opacity:1;fill-rule:nonzero;stroke:none"
         id="text727"><tspan
           x="0 6.6719999"
           y="0"
           sodipodi:role="line"
           id="tspan725">10</tspan></text>
      <text
         xml:space="preserve"
         transform="matrix(0,1,1,0,41.76,162.6)"
         style="font-variant:normal;font-weight:normal;font-size:12px;font-family:Helvetica;-inkscape-font-specification:Helvetica;writing-mode:lr-tb;fill:#000000;fill-opacity:1;fill-rule:nonzero;stroke:none"
         id="text731"><tspan
           x="0 6.6719999"
           y="0"
           sodipodi:role="line"
           id="tspan729">15</tspan></text>
      <text
         xml:space="preserve"
         transform="matrix(0,1,1,0,41.76,201.12)"
         style="font-variant:normal;font-weight:normal;font-size:12px;font-family:Helvetica;-inkscape-font-specification:Helvetica;writing-mode:lr-tb;fill:#000000;fill-opacity:1;fill-rule:nonzero;stroke:none"
         id="text735"><tspan
           x="0 6.6719999"
           y="0"
           sodipodi:role="line"
           id="tspan733">20</tspan></text>
      <text
         xml:space="preserve"
         transform="matrix(0,1,1,0,41.76,239.64)"
         style="font-variant:normal;font-weight:normal;font-size:12px;font-family:Helvetica;-inkscape-font-specification:Helvetica;writing-mode:lr-tb;fill:#000000;fill-opacity:1;fill-rule:nonzero;stroke:none"
         id="text739"><tspan
           x="0 6.6719999"
           y="0"
           sodipodi:role="line"
           id="tspan737">25</tspan></text>
      <text
         xml:space="preserve"
         transform="matrix(0,1,1,0,41.76,278.16)"
         style="font-variant:normal;font-weight:normal;font-size:12px;font-family:Helvetica;-inkscape-font-specification:Helvetica;writing-mode:lr-tb;fill:#000000;fill-opacity:1;fill-rule:nonzero;stroke:none"
         id="text743"><tspan
           x="0 6.6719999"
           y="0"
           sodipodi:role="line"
           id="tspan741">30</tspan></text>
      <text
         xml:space="preserve"
         transform="matrix(0,1,1,0,41.76,316.68)"
         style="font-variant:normal;font-weight:normal;font-size:12px;font-family:Helvetica;-inkscape-font-specification:Helvetica;writing-mode:lr-tb;fill:#000000;fill-opacity:1;fill-rule:nonzero;stroke:none"
         id="text747"><tspan
           x="0 6.6719999"
           y="0"
           sodipodi:role="line"
           id="tspan745">35</tspan></text>
      <text
         xml:space="preserve"
         transform="matrix(0,1,1,0,41.76,355.19)"
         style="font-variant:normal;font-weight:normal;font-size:12px;font-family:Helvetica;-inkscape-font-specification:Helvetica;writing-mode:lr-tb;fill:#000000;fill-opacity:1;fill-rule:nonzero;stroke:none"
         id="text751"><tspan
           x="0 6.6719999"
           y="0"
           sodipodi:role="line"
           id="tspan749">40</tspan></text>
    </g>
    <g
       id="g753"
       transform="matrix(1.3333333,0,0,-1.3333333,5.2356251,1680.944)">
      <text
         xml:space="preserve"
         transform="matrix(1,0,0,-1,271.51,18.72)"
         style="font-variant:normal;font-weight:normal;font-size:12px;font-family:Helvetica;-inkscape-font-specification:Helvetica;writing-mode:lr-tb;fill:#000000;fill-opacity:1;fill-rule:nonzero;stroke:none"
         id="text757"><tspan
           x="0 8.0039997 14.676 21.348 24.684 28.68 34.439999 41.112 47.784 51.779999 57.779999"
           y="0"
           sodipodi:role="line"
           id="tspan755">Age (years)</tspan></text>
      <text
         xml:space="preserve"
         transform="matrix(0,1,1,0,12.96,134.11)"
         style="font-variant:normal;font-weight:normal;font-size:12px;font-family:Helvetica;-inkscape-font-specification:Helvetica;writing-mode:lr-tb;fill:#000000;fill-opacity:1;fill-rule:nonzero;stroke:none"
         id="text761"><tspan
           x="0 3.336 10.008 16.007999 18.672001 25.344 32.015999 38.688 44.688 51.360001 54.695999 61.368 68.040001 72.036003 75.372002 82.043999 88.716003 95.388 102.06 105.396 112.068 118.74 122.736 128.73599 135.408 142.08 149.088 154.84801 161.52 168.192 172.188"
           y="0"
           sodipodi:role="line"
           id="tspan759">Incidence per 1000 person−years</tspan></text>
    </g>
    <g
       id="g763"
       transform="matrix(1.3333333,0,0,-1.3333333,5.2356251,1680.944)">
      <g
         id="g765"
         clip-path="url(#clipPath769)">
        <path
           d="m 77.07,98.41 4.5,0.39 4.51,0.39 4.51,0.39 4.5,0.39 4.51,0.4 4.51,0.4 4.5,0.4 4.51,0.4 4.51,0.4 4.5,0.41 4.51,0.41 4.51,0.41 4.5,0.41 4.51,0.41 4.51,0.42 4.5,0.42 4.51,0.42 4.51,0.42 4.5,0.42 4.51,0.43 4.51,0.43 4.5,0.43 4.51,0.43 4.51,0.44 4.5,0.43 4.51,0.44 4.51,0.44 4.5,0.44 4.51,0.45 4.51,0.45 4.5,0.44 4.51,0.45 4.51,0.46 4.5,0.45 4.51,0.46 4.51,0.45 4.5,0.46 4.51,0.46 4.51,0.47 4.5,0.46 4.51,0.47 4.51,0.47 4.5,0.47 4.51,0.48 4.51,0.47 4.5,0.48 4.51,0.49 4.51,0.48 4.5,0.5 4.51,0.49 4.51,0.5 4.5,0.51 4.51,0.51 4.51,0.52 4.5,0.53 4.51,0.53 4.51,0.54 4.5,0.55 4.51,0.56 4.51,0.57 4.5,0.57 4.51,0.59 4.51,0.6 4.5,0.61 4.51,0.62 4.51,0.63 4.5,0.65 4.51,0.66 4.51,0.68 4.5,0.69 4.51,0.71 4.51,0.72 4.5,0.74 4.51,0.76 4.51,0.77 4.5,0.8 4.51,0.81 4.51,0.83 4.5,0.85 4.51,0.87 4.51,0.89 4.5,0.91 4.51,0.93 4.51,0.95 4.5,0.96 4.51,0.98 4.51,0.99 4.5,1 4.51,1.02 4.51,1.03 4.5,1.04 4.51,1.04 4.51,1.06 4.5,1.06 4.51,1.06 4.51,1.08 4.5,1.07 4.51,1.08 4.51,1.07 4.5,1.08 v 249.34 l -4.5,-3.32 -4.51,-3.25 -4.51,-3.18 -4.5,-3.12 -4.51,-3.05 -4.51,-3 -4.5,-2.94 -4.51,-2.88 -4.51,-2.83 -4.5,-2.78 -4.51,-2.74 -4.51,-2.7 -4.5,-2.65 -4.51,-2.62 -4.51,-2.58 -4.5,-2.56 -4.51,-2.53 -4.51,-2.5 -4.5,-2.49 -4.51,-2.46 -4.51,-2.45 -4.5,-2.44 -4.51,-2.43 -4.51,-2.41 -4.5,-2.41 -4.51,-2.39 -4.51,-2.38 -4.5,-2.38 -4.51,-2.36 -4.51,-2.36 -4.5,-2.34 -4.51,-2.34 -4.51,-2.32 -4.5,-2.32 -4.51,-2.3 -4.51,-2.29 -4.5,-2.27 -4.51,-2.27 -4.51,-2.25 -4.5,-2.23 -4.51,-2.22 -4.51,-2.21 -4.5,-2.18 -4.51,-2.18 -4.51,-2.15 -4.5,-2.13 -4.51,-2.12 -4.51,-2.1 -4.5,-2.08 -4.51,-2.06 -4.51,-2.03 -4.5,-2.02 -4.51,-2 -4.51,-1.97 -4.5,-1.96 -4.51,-1.93 -4.51,-1.91 -4.5,-1.89 -4.51,-1.87 -4.51,-1.85 -4.5,-1.82 -4.51,-1.8 -4.51,-1.79 -4.5,-1.76 -4.51,-1.74 -4.51,-1.72 -4.5,-1.7 -4.51,-1.68 -4.51,-1.67 -4.5,-1.64 -4.51,-1.62 -4.51,-1.61 -4.5,-1.58 -4.51,-1.57 -4.51,-1.55 -4.5,-1.53 -4.51,-1.52 -4.51,-1.49 -4.5,-1.48 -4.51,-1.47 -4.51,-1.44 -4.5,-1.43 -4.51,-1.41 -4.51,-1.4 -4.5,-1.38 -4.51,-1.37 -4.51,-1.35 -4.5,-1.33 -4.51,-1.32 -4.51,-1.31 -4.5,-1.29 -4.51,-1.27 -4.51,-1.26 -4.5,-1.25 -4.51,-1.24 -4.51,-1.21 -4.5,-1.21 -4.51,-1.19 -4.51,-1.18 -4.5,-1.17 z"
           style="fill:#8b0000;fill-opacity:0.149;fill-rule:nonzero;stroke:none"
           id="path771" />
        <path
           d="m 77.07,84.41 4.5,0.27 4.51,0.27 4.51,0.27 4.5,0.27 4.51,0.28 4.51,0.28 4.5,0.27 4.51,0.28 4.51,0.28 4.5,0.29 4.51,0.28 4.51,0.28 4.5,0.29 4.51,0.29 4.51,0.29 4.5,0.29 4.51,0.29 4.51,0.29 4.5,0.3 4.51,0.29 4.51,0.3 4.5,0.3 4.51,0.3 4.51,0.3 4.5,0.3 4.51,0.31 4.51,0.3 4.5,0.31 4.51,0.31 4.51,0.31 4.5,0.31 4.51,0.31 4.51,0.31 4.5,0.31 4.51,0.32 4.51,0.31 4.5,0.32 4.51,0.32 4.51,0.32 4.5,0.32 4.51,0.32 4.51,0.33 4.5,0.32 4.51,0.33 4.51,0.33 4.5,0.33 4.51,0.33 4.51,0.34 4.5,0.33 4.51,0.35 4.51,0.34 4.5,0.35 4.51,0.35 4.51,0.36 4.5,0.36 4.51,0.36 4.51,0.37 4.5,0.38 4.51,0.38 4.51,0.39 4.5,0.39 4.51,0.4 4.51,0.41 4.5,0.42 4.51,0.42 4.51,0.43 4.5,0.45 4.51,0.45 4.51,0.46 4.5,0.47 4.51,0.48 4.51,0.49 4.5,0.5 4.51,0.52 4.51,0.53 4.5,0.53 4.51,0.56 4.51,0.56 4.5,0.57 4.51,0.59 4.51,0.61 4.5,0.61 4.51,0.63 4.51,0.63 4.5,0.65 4.51,0.66 4.51,0.67 4.5,0.67 4.51,0.68 4.51,0.69 4.5,0.69 4.51,0.7 4.51,0.7 4.5,0.71 4.51,0.7 4.51,0.71 4.5,0.71 4.51,0.71 4.51,0.71 4.5,0.71 v 148.49 l -4.5,-2.15 -4.51,-2.1 -4.51,-2.05 -4.5,-2.01 -4.51,-1.97 -4.51,-1.93 -4.5,-1.89 -4.51,-1.85 -4.51,-1.82 -4.5,-1.78 -4.51,-1.75 -4.51,-1.72 -4.5,-1.69 -4.51,-1.66 -4.51,-1.65 -4.5,-1.62 -4.51,-1.6 -4.51,-1.58 -4.5,-1.57 -4.51,-1.56 -4.51,-1.54 -4.5,-1.53 -4.51,-1.53 -4.51,-1.51 -4.5,-1.51 -4.51,-1.5 -4.51,-1.49 -4.5,-1.49 -4.51,-1.48 -4.51,-1.47 -4.5,-1.46 -4.51,-1.46 -4.51,-1.44 -4.5,-1.45 -4.51,-1.43 -4.51,-1.42 -4.5,-1.42 -4.51,-1.41 -4.51,-1.39 -4.5,-1.39 -4.51,-1.38 -4.51,-1.37 -4.5,-1.35 -4.51,-1.35 -4.51,-1.33 -4.5,-1.33 -4.51,-1.31 -4.51,-1.29 -4.5,-1.29 -4.51,-1.27 -4.51,-1.26 -4.5,-1.25 -4.51,-1.23 -4.51,-1.22 -4.5,-1.21 -4.51,-1.19 -4.51,-1.18 -4.5,-1.16 -4.51,-1.15 -4.51,-1.14 -4.5,-1.12 -4.51,-1.11 -4.51,-1.1 -4.5,-1.09 -4.51,-1.07 -4.51,-1.06 -4.5,-1.04 -4.51,-1.03 -4.51,-1.02 -4.5,-1.01 -4.51,-1 -4.51,-0.99 -4.5,-0.97 -4.51,-0.96 -4.51,-0.95 -4.5,-0.94 -4.51,-0.93 -4.51,-0.92 -4.5,-0.9 -4.51,-0.9 -4.51,-0.88 -4.5,-0.88 -4.51,-0.86 -4.51,-0.86 -4.5,-0.84 -4.51,-0.84 -4.51,-0.82 -4.5,-0.82 -4.51,-0.8 -4.51,-0.8 -4.5,-0.79 -4.51,-0.78 -4.51,-0.77 -4.5,-0.76 -4.51,-0.75 -4.51,-0.74 -4.5,-0.74 -4.51,-0.72 -4.51,-0.72 -4.5,-0.71 z"
           style="fill:#ffa500;fill-opacity:0.149;fill-rule:nonzero;stroke:none"
           id="path773" />
        <path
           d="m 77.07,77.97 4.5,0.21 4.51,0.22 4.51,0.21 4.5,0.22 4.51,0.22 4.51,0.22 4.5,0.22 4.51,0.23 4.51,0.22 4.5,0.22 4.51,0.23 4.51,0.23 4.5,0.23 4.51,0.22 4.51,0.24 4.5,0.23 4.51,0.23 4.51,0.23 4.5,0.24 4.51,0.23 4.51,0.24 4.5,0.24 4.51,0.24 4.51,0.24 4.5,0.24 4.51,0.24 4.51,0.25 4.5,0.24 4.51,0.25 4.51,0.24 4.5,0.25 4.51,0.25 4.51,0.25 4.5,0.25 4.51,0.25 4.51,0.25 4.5,0.26 4.51,0.25 4.51,0.26 4.5,0.25 4.51,0.26 4.51,0.26 4.5,0.26 4.51,0.26 4.51,0.26 4.5,0.26 4.51,0.27 4.51,0.27 4.5,0.27 4.51,0.27 4.51,0.27 4.5,0.28 4.51,0.28 4.51,0.28 4.5,0.29 4.51,0.29 4.51,0.3 4.5,0.3 4.51,0.3 4.51,0.31 4.5,0.31 4.51,0.32 4.51,0.32 4.5,0.33 4.51,0.34 4.51,0.34 4.5,0.35 4.51,0.35 4.51,0.37 4.5,0.37 4.51,0.38 4.51,0.38 4.5,0.4 4.51,0.4 4.51,0.42 4.5,0.42 4.51,0.43 4.51,0.44 4.5,0.45 4.51,0.46 4.51,0.47 4.5,0.48 4.51,0.49 4.51,0.5 4.5,0.5 4.51,0.51 4.51,0.52 4.5,0.52 4.51,0.53 4.51,0.53 4.5,0.54 4.51,0.54 4.51,0.54 4.5,0.54 4.51,0.55 4.51,0.54 4.5,0.55 4.51,0.54 4.51,0.55 4.5,0.55 v 117.07 l -4.5,-1.74 -4.51,-1.7 -4.51,-1.66 -4.5,-1.63 -4.51,-1.59 -4.51,-1.56 -4.5,-1.53 -4.51,-1.49 -4.51,-1.47 -4.5,-1.43 -4.51,-1.41 -4.51,-1.39 -4.5,-1.36 -4.51,-1.34 -4.51,-1.32 -4.5,-1.3 -4.51,-1.28 -4.51,-1.27 -4.5,-1.26 -4.51,-1.24 -4.51,-1.23 -4.5,-1.22 -4.51,-1.21 -4.51,-1.21 -4.5,-1.19 -4.51,-1.19 -4.51,-1.18 -4.5,-1.18 -4.51,-1.17 -4.51,-1.16 -4.5,-1.15 -4.51,-1.15 -4.51,-1.14 -4.5,-1.13 -4.51,-1.13 -4.51,-1.12 -4.5,-1.11 -4.51,-1.1 -4.51,-1.1 -4.5,-1.09 -4.51,-1.08 -4.51,-1.07 -4.5,-1.06 -4.51,-1.05 -4.51,-1.05 -4.5,-1.03 -4.51,-1.03 -4.51,-1.01 -4.5,-1 -4.51,-1 -4.51,-0.98 -4.5,-0.97 -4.51,-0.96 -4.51,-0.95 -4.5,-0.95 -4.51,-0.92 -4.51,-0.92 -4.5,-0.91 -4.51,-0.9 -4.51,-0.88 -4.5,-0.88 -4.51,-0.87 -4.51,-0.85 -4.5,-0.85 -4.51,-0.83 -4.51,-0.83 -4.5,-0.81 -4.51,-0.81 -4.51,-0.79 -4.5,-0.79 -4.51,-0.77 -4.51,-0.77 -4.5,-0.76 -4.51,-0.75 -4.51,-0.74 -4.5,-0.73 -4.51,-0.73 -4.51,-0.71 -4.5,-0.71 -4.51,-0.7 -4.51,-0.69 -4.5,-0.68 -4.51,-0.67 -4.51,-0.67 -4.5,-0.66 -4.51,-0.65 -4.51,-0.64 -4.5,-0.64 -4.51,-0.62 -4.51,-0.63 -4.5,-0.61 -4.51,-0.61 -4.51,-0.6 -4.5,-0.59 -4.51,-0.59 -4.51,-0.58 -4.5,-0.57 -4.51,-0.57 -4.51,-0.56 -4.5,-0.55 z"
           style="fill:#006400;fill-opacity:0.149;fill-rule:nonzero;stroke:none"
           id="path775" />
        <path
           d="m 77.07,136.4 4.5,0.67 4.51,0.68 4.51,0.69 4.5,0.69 4.51,0.69 4.51,0.7 4.5,0.71 4.51,0.71 4.51,0.72 4.5,0.73 4.51,0.73 4.51,0.73 4.5,0.74 4.51,0.75 4.51,0.76 4.5,0.76 4.51,0.76 4.51,0.78 4.5,0.77 4.51,0.79 4.51,0.79 4.5,0.8 4.51,0.8 4.51,0.82 4.5,0.81 4.51,0.83 4.51,0.83 4.5,0.84 4.51,0.84 4.51,0.85 4.5,0.86 4.51,0.87 4.51,0.87 4.5,0.88 4.51,0.89 4.51,0.89 4.5,0.9 4.51,0.91 4.51,0.92 4.5,0.92 4.51,0.93 4.51,0.94 4.5,0.95 4.51,0.95 4.51,0.97 4.5,0.97 4.51,0.98 4.51,0.99 4.5,1 4.51,1.01 4.51,1.02 4.5,1.03 4.51,1.04 4.51,1.05 4.5,1.06 4.51,1.08 4.51,1.08 4.5,1.1 4.51,1.11 4.51,1.13 4.5,1.13 4.51,1.15 4.51,1.17 4.5,1.18 4.51,1.19 4.51,1.21 4.5,1.22 4.51,1.24 4.51,1.26 4.5,1.27 4.51,1.29 4.51,1.31 4.5,1.33 4.51,1.34 4.51,1.37 4.5,1.38 4.51,1.41 4.51,1.42 4.5,1.45 4.51,1.47 4.51,1.49 4.5,1.52 4.51,1.53 4.51,1.56 4.5,1.58 4.51,1.61 4.51,1.62 4.5,1.65 4.51,1.67 4.51,1.69 4.5,1.71 4.51,1.73 4.51,1.76 4.5,1.77 4.51,1.79 4.51,1.82 4.5,1.83 4.51,1.86 4.51,1.87 4.5,1.89"
           style="fill:none;stroke:#8b0000;stroke-width:2.25;stroke-linecap:round;stroke-linejoin:round;stroke-miterlimit:10;stroke-dasharray:none;stroke-opacity:1"
           id="path777" />
        <path
           d="m 77.07,107.61 4.5,0.44 4.51,0.44 4.51,0.44 4.5,0.45 4.51,0.46 4.51,0.45 4.5,0.47 4.51,0.46 4.51,0.47 4.5,0.47 4.51,0.48 4.51,0.48 4.5,0.48 4.51,0.49 4.51,0.49 4.5,0.49 4.51,0.5 4.51,0.51 4.5,0.5 4.51,0.52 4.51,0.51 4.5,0.52 4.51,0.53 4.51,0.53 4.5,0.53 4.51,0.54 4.51,0.54 4.5,0.54 4.51,0.55 4.51,0.56 4.5,0.56 4.51,0.56 4.51,0.57 4.5,0.58 4.51,0.57 4.51,0.59 4.5,0.58 4.51,0.6 4.51,0.59 4.5,0.6 4.51,0.61 4.51,0.61 4.5,0.62 4.51,0.62 4.51,0.63 4.5,0.63 4.51,0.64 4.51,0.65 4.5,0.65 4.51,0.66 4.51,0.66 4.5,0.68 4.51,0.67 4.51,0.69 4.5,0.69 4.51,0.7 4.51,0.71 4.5,0.71 4.51,0.73 4.51,0.73 4.5,0.74 4.51,0.75 4.51,0.76 4.5,0.77 4.51,0.78 4.51,0.78 4.5,0.8 4.51,0.81 4.51,0.82 4.5,0.83 4.51,0.84 4.51,0.85 4.5,0.87 4.51,0.88 4.51,0.88 4.5,0.91 4.51,0.91 4.51,0.93 4.5,0.95 4.51,0.95 4.51,0.98 4.5,0.98 4.51,1 4.51,1.02 4.5,1.03 4.51,1.05 4.51,1.05 4.5,1.08 4.51,1.09 4.51,1.1 4.5,1.11 4.51,1.13 4.51,1.15 4.5,1.15 4.51,1.17 4.51,1.18 4.5,1.2 4.51,1.21 4.51,1.22 4.5,1.23"
           style="fill:none;stroke:#ffa500;stroke-width:2.25;stroke-linecap:round;stroke-linejoin:round;stroke-miterlimit:10;stroke-dasharray:none;stroke-opacity:1"
           id="path779" />
        <path
           d="m 77.07,96.21 4.5,0.35 4.51,0.34 4.51,0.36 4.5,0.35 4.51,0.36 4.51,0.36 4.5,0.36 4.51,0.37 4.51,0.37 4.5,0.37 4.51,0.37 4.51,0.38 4.5,0.38 4.51,0.39 4.51,0.39 4.5,0.39 4.51,0.39 4.51,0.4 4.5,0.4 4.51,0.4 4.51,0.41 4.5,0.41 4.51,0.41 4.51,0.42 4.5,0.42 4.51,0.42 4.51,0.43 4.5,0.43 4.51,0.43 4.51,0.44 4.5,0.44 4.51,0.45 4.51,0.45 4.5,0.45 4.51,0.46 4.51,0.45 4.5,0.47 4.51,0.46 4.51,0.48 4.5,0.47 4.51,0.48 4.51,0.48 4.5,0.49 4.51,0.49 4.51,0.49 4.5,0.5 4.51,0.51 4.51,0.51 4.5,0.51 4.51,0.52 4.51,0.52 4.5,0.53 4.51,0.54 4.51,0.54 4.5,0.54 4.51,0.56 4.51,0.55 4.5,0.57 4.51,0.57 4.51,0.58 4.5,0.58 4.51,0.59 4.51,0.6 4.5,0.61 4.51,0.61 4.51,0.62 4.5,0.63 4.51,0.64 4.51,0.64 4.5,0.66 4.51,0.66 4.51,0.67 4.5,0.68 4.51,0.7 4.51,0.7 4.5,0.71 4.51,0.72 4.51,0.73 4.5,0.75 4.51,0.75 4.51,0.77 4.5,0.78 4.51,0.79 4.51,0.8 4.5,0.81 4.51,0.83 4.51,0.83 4.5,0.85 4.51,0.85 4.51,0.87 4.5,0.88 4.51,0.89 4.51,0.9 4.5,0.92 4.51,0.92 4.51,0.93 4.5,0.94 4.51,0.96 4.51,0.96 4.5,0.97"
           style="fill:none;stroke:#006400;stroke-width:2.25;stroke-linecap:round;stroke-linejoin:round;stroke-miterlimit:10;stroke-dasharray:none;stroke-opacity:1"
           id="path781" />
      </g>
    </g>
    <g
       id="g795"
       transform="matrix(1.3333333,0,0,-1.3333333,-257.99853,1680.944)">
      <text
         xml:space="preserve"
         transform="matrix(1,0,0,-1,237.87,397.45)"
         style="font-style:normal;font-variant:normal;font-weight:bold;font-stretch:normal;font-size:14px;font-family:Helvetica;-inkscape-font-specification:'Helvetica, Bold';font-variant-ligatures:normal;font-variant-caps:normal;font-variant-numeric:normal;font-variant-east-asian:normal;writing-mode:lr-tb;fill:#000000;fill-opacity:1;fill-rule:nonzero;stroke:none"
         id="text799"><tspan
           sodipodi:role="line"
           id="tspan5055"
           x="0"
           y="0">C) <tspan
   style="font-style:normal;font-variant:normal;font-weight:normal;font-stretch:normal;font-size:14px;font-family:Helvetica;-inkscape-font-specification:'Helvetica, Normal';font-variant-ligatures:normal;font-variant-caps:normal;font-variant-numeric:normal;font-variant-east-asian:normal"
   id="tspan5063">All−cause mortality</tspan></tspan></text>
    </g>
  </g>
</svg>
