<?xml version="1.0" encoding="UTF-8" standalone="no"?>
<!-- Generator: $$$/GeneralStr/196=Adobe Illustrator 27.6.0, SVG Export Plug-In . SVG Version: 6.00 Build 0)  -->

<svg
   version="1.1"
   id="Ebene_1"
   x="0px"
   y="0px"
   viewBox="0 0 1810.1 370"
   xml:space="preserve"
   sodipodi:docname="efsd-logo.svg"
   inkscape:export-filename="efsd-logo.png"
   inkscape:export-xdpi="300.20001"
   inkscape:export-ydpi="300.20001"
   width="1810.1"
   height="370"
   inkscape:version="1.2.1 (9c6d41e4, 2022-07-14)"
   xmlns:inkscape="http://www.inkscape.org/namespaces/inkscape"
   xmlns:sodipodi="http://sodipodi.sourceforge.net/DTD/sodipodi-0.dtd"
   xmlns:xlink="http://www.w3.org/1999/xlink"
   xmlns="http://www.w3.org/2000/svg"
   xmlns:svg="http://www.w3.org/2000/svg"><defs
   id="defs249" /><sodipodi:namedview
   id="namedview247"
   pagecolor="#ffffff"
   bordercolor="#000000"
   borderopacity="0.25"
   inkscape:showpageshadow="2"
   inkscape:pageopacity="0.0"
   inkscape:pagecheckerboard="0"
   inkscape:deskcolor="#d1d1d1"
   showgrid="false"
   inkscape:zoom="0.3362594"
   inkscape:cx="1061.6804"
   inkscape:cy="637.90038"
   inkscape:window-width="1440"
   inkscape:window-height="847"
   inkscape:window-x="2"
   inkscape:window-y="25"
   inkscape:window-maximized="0"
   inkscape:current-layer="Ebene_1" />
<style
   type="text/css"
   id="style139">
	.st0{fill:#24388B;}
	.st1{fill:#2CB4D7;}
	.st2{clip-path:url(#SVGID_00000097492302981073236390000002574149085978026648_);}
	.st3{fill:#26336A;}
</style>
<g
   id="EFSD"
   transform="matrix(1.4887047,0,0,1.53432,20.5841,39.476405)">
	<path
   class="st0"
   d="m 267.4,41.5 c 4.1,0 6.6,-2.5 6.6,-6.6 0,-4.1 -2.5,-6.6 -6.6,-6.6 h -45.9 c -1.9,0 -3.7,0.8 -5.1,2.2 -1.4,1.4 -2.2,3.2 -2.2,5.1 v 98.3 c 0,1.9 0.8,3.7 2.2,5.1 1.4,1.4 3.2,2.2 5.1,2.2 h 45.9 c 4.1,0 6.6,-2.5 6.6,-6.6 0,-4.1 -2.5,-6.6 -6.6,-6.6 H 228.8 V 84.4 h 35.4 c 4.1,0 6.6,-2.5 6.6,-6.6 0,-4.1 -2.5,-6.6 -6.6,-6.6 H 228.8 V 41.6 Z"
   id="path141" />
	<path
   class="st0"
   d="m 349,28.4 h -44.6 c -1.9,0 -3.7,0.8 -5.1,2.2 -1.4,1.4 -2.2,3.2 -2.2,5.1 v 99 c 0,4.5 2.7,7.2 7.2,7.2 4.5,0 7.2,-2.7 7.2,-7.2 V 85.1 h 34 c 4.1,0 6.6,-2.5 6.6,-6.6 0,-4.1 -2.5,-6.6 -6.6,-6.6 h -34 V 41.5 H 349 c 4.1,0 6.6,-2.5 6.6,-6.6 0,-4.1 -2.5,-6.5 -6.6,-6.5 z"
   id="path143" />
	<path
   class="st0"
   d="m 389.7,59.6 c -1.9,-1.8 -2.9,-4 -2.9,-6.8 0,-3.5 1,-6.2 3,-8.3 1.9,-2 4.2,-2.9 7,-2.9 h 26.4 c 4.1,0 6.6,-2.5 6.6,-6.6 0,-4.1 -2.5,-6.6 -6.6,-6.6 h -26.4 c -6.7,0 -12.5,2.4 -17.3,7.1 -4.8,4.7 -7.2,10.5 -7.2,17.3 0,6.8 2.5,12.9 7.3,17.3 l 37.5,34.6 c 2.8,2.6 4.1,5.6 4.1,9.3 0,4.5 -1.2,7.9 -3.8,10.5 -2.3,2.4 -5.3,3.5 -9,3.5 H 377 c -4.1,0 -6.6,2.5 -6.6,6.6 0,4.1 2.5,6.6 6.6,6.6 h 31.4 c 7.5,0 13.9,-2.7 19.2,-7.9 5.3,-5.3 8,-11.7 8,-19.2 0,-7.8 -2.9,-14.5 -8.7,-19.9 z"
   id="path145" />
	<path
   class="st0"
   d="m 512.4,71.8 v 26 c 0,8.4 -2.9,15.4 -8.8,21.4 -6,6 -13,8.9 -21.4,8.9 H 472.1 V 41.5 h 10.1 c 8.4,0 15.4,2.9 21.4,8.9 6,6 8.8,13 8.8,21.4 z m 1.4,-30.3 C 505.1,32.8 494.5,28.4 482.2,28.4 h -17.4 c -1.9,0 -3.7,0.8 -5.1,2.2 -1.4,1.4 -2.2,3.2 -2.2,5.1 V 134 c 0,1.9 0.8,3.7 2.2,5.1 1.4,1.4 3.2,2.2 5.1,2.2 h 17.4 c 12.3,0 22.9,-4.4 31.6,-13.1 8.7,-8.7 13.1,-19.3 13.1,-31.6 V 73.1 c 0,-12.3 -4.4,-22.9 -13.1,-31.6 z"
   id="path147" />
	<path
   class="st1"
   d="m 11.2,85 c -0.4,38.9 31.6,71.7 70.6,69.6 36.6,-1 67.5,-33.4 66.8,-69.6 C 149.3,48.7 118.4,16.5 81.8,15.4 42.9,13.3 10.9,46.1 11.2,85 Z M 9.3,85 C 8.7,33.3 62.4,-4.1 111.1,14.4 c 65,24.8 65,116.4 0,141.2 C 62.4,174.2 8.7,136.7 9.3,85 Z"
   id="path149" />
	<g
   id="g163">
		<defs
   id="defs152">
			<rect
   id="SVGID_1_"
   x="-27.200001"
   y="-14.2"
   width="595.29999"
   height="198.39999" />
		</defs>
		<clipPath
   id="SVGID_00000043447851747501002710000005053018917649882533_">
			<use
   xlink:href="#SVGID_1_"
   style="overflow:visible"
   id="use154" />
		</clipPath>
		<g
   clip-path="url(#SVGID_00000043447851747501002710000005053018917649882533_)"
   id="g161">
			<path
   class="st3"
   d="m 167.9,85.1 c 0.5,-36.6 -30,-67.4 -66.5,-64.8 -34,1.5 -61.9,31.5 -61.4,64.8 -0.5,33.4 27.4,63.4 61.4,64.9 36.5,2.5 67,-28.3 66.5,-64.9 z m 2,0 c 0.4,49.1 -50,84.9 -96.7,67.8 C 10.1,129.5 10.1,40.7 73.2,17.3 119.9,0.1 170.4,36 169.9,85.1 Z"
   id="path157" />
			<path
   class="st0"
   d="M 168.1,85.1 C 168.6,41.3 132.2,4.7 88.5,7.3 47.6,8.6 13.5,44.7 14.1,85.1 c -0.7,40.3 33.4,76.5 74.4,77.9 43.8,2.5 80.1,-34.2 79.6,-77.9 z m 2,0 C 169.9,159.1 81.1,197.9 26.6,147 -8.8,114 -8.9,56.1 26.5,23.1 81.1,-27.9 169.9,11 170.1,85.1 Z"
   id="path159" />
		</g>
	</g>
</g>
<g
   id="g244"
   transform="matrix(1.4887047,0,0,1.53432,20.5841,39.476405)">
	<path
   class="st0"
   d="m 589.2,36.8 h 22.1 v 5.6 h -15.5 v 9.2 h 13.1 v 5.6 h -13.1 v 10.6 h 16 v 5.6 H 589.1 V 36.8 Z"
   id="path166" />
	<path
   class="st0"
   d="M 619.3,63.2 V 45.9 h 6.6 v 16.4 c 0,4.5 1.3,6.2 4.2,6.2 2.4,0 4,-1.1 6,-3.8 V 45.9 h 6.6 v 27.6 h -5.4 l -0.5,-4 h -0.2 c -2.4,2.9 -5,4.7 -8.8,4.7 -5.9,-0.1 -8.5,-4.1 -8.5,-11 z"
   id="path168" />
	<path
   class="st0"
   d="m 651.8,45.9 h 5.4 l 0.5,4.9 h 0.2 c 2,-3.6 4.9,-5.6 7.8,-5.6 1.4,0 2.3,0.2 3.1,0.6 l -1.3,5.7 c -0.8,-0.2 -1.5,-0.3 -2.6,-0.3 -2.2,0 -4.8,1.5 -6.4,5.7 v 16.7 h -6.7 z"
   id="path170" />
	<path
   class="st0"
   d="m 671.4,59.7 c 0,-9.2 6.3,-14.5 13.2,-14.5 6.9,0 13.1,5.3 13.1,14.5 0,9.2 -6.3,14.4 -13.1,14.4 -6.8,0 -13.2,-5.2 -13.2,-14.4 z m 19.5,0 c 0,-5.5 -2.3,-9.1 -6.3,-9.1 -4,0 -6.3,3.6 -6.3,9.1 0,5.5 2.3,9 6.3,9 4,0 6.3,-3.5 6.3,-9 z"
   id="path172" />
	<path
   class="st0"
   d="m 704.8,45.9 h 5.4 l 0.5,2.9 h 0.2 c 2.3,-2 5.3,-3.6 8.3,-3.6 6.8,0 10.8,5.5 10.8,14.1 0,9.4 -5.6,14.8 -11.7,14.8 -2.5,0 -4.9,-1.1 -7.1,-3 l 0.2,4.6 v 8.6 h -6.7 z m 18.4,13.5 c 0,-5.4 -1.8,-8.6 -5.9,-8.6 -2,0 -3.8,0.9 -5.9,3 v 12.7 c 1.9,1.6 3.8,2.2 5.4,2.2 3.6,-0.1 6.4,-3.2 6.4,-9.3 z"
   id="path174" />
	<path
   class="st0"
   d="m 735.5,59.7 c 0,-9 6.3,-14.4 12.7,-14.4 7.5,0 11.5,5.4 11.5,13.1 0,1.3 -0.1,2.4 -0.3,3.4 H 742 c 0.7,4.6 3.6,7.3 8,7.3 2.3,0 4.5,-0.7 6.4,-1.9 l 2.2,4.1 c -2.6,1.9 -5.9,2.9 -9.5,2.9 -7.6,-0.1 -13.6,-5.3 -13.6,-14.5 z m 18.4,-2.9 c 0,-4 -1.9,-6.4 -5.5,-6.4 -3.1,0 -5.8,2.2 -6.4,6.4 z"
   id="path176" />
	<path
   class="st0"
   d="m 764.6,66.1 c 0,-6.1 4.8,-9.1 16.1,-10.3 -0.1,-2.8 -1.2,-5.1 -4.9,-5.1 -2.7,0 -5.3,1.1 -7.7,2.6 l -2.3,-4.4 c 3,-1.9 6.9,-3.6 11.3,-3.6 6.8,0 10.3,4.3 10.3,11.9 V 73.5 H 782 l -0.6,-3 h -0.2 c -2.5,2.1 -5.2,3.7 -8.4,3.7 -4.9,0 -8.3,-3.3 -8.2,-8.1 z m 16.1,0 v -5.8 c -7.5,0.9 -9.7,2.6 -9.7,5.4 0,2.4 1.6,3.2 3.8,3.2 2.2,0 3.9,-0.9 5.9,-2.8 z"
   id="path178" />
	<path
   class="st0"
   d="m 795.8,45.9 h 5.4 l 0.5,3.7 h 0.2 c 2.5,-2.4 5.3,-4.4 9,-4.4 5.9,0 8.5,4 8.5,11 v 17.3 h -6.6 V 57.1 c 0,-4.5 -1.3,-6.1 -4.2,-6.1 -2.4,0 -4,1.1 -6.2,3.4 v 19.1 h -6.7 z"
   id="path180" />
	<path
   class="st0"
   d="M 840.8,36.8 H 863 v 5.6 h -15.5 v 10.2 h 13.2 v 5.6 h -13.2 v 15.2 h -6.7 z"
   id="path182" />
	<path
   class="st0"
   d="m 867,59.7 c 0,-9.2 6.3,-14.5 13.2,-14.5 6.9,0 13.1,5.3 13.1,14.5 0,9.2 -6.3,14.4 -13.1,14.4 -6.8,0 -13.2,-5.2 -13.2,-14.4 z m 19.5,0 c 0,-5.5 -2.3,-9.1 -6.3,-9.1 -4,0 -6.3,3.6 -6.3,9.1 0,5.5 2.3,9 6.3,9 4,0 6.3,-3.5 6.3,-9 z"
   id="path184" />
	<path
   class="st0"
   d="M 900.2,63.2 V 45.9 h 6.6 v 16.4 c 0,4.5 1.3,6.2 4.2,6.2 2.4,0 4,-1.1 6,-3.8 V 45.9 h 6.6 v 27.6 h -5.4 l -0.5,-4 h -0.2 c -2.4,2.9 -5,4.7 -8.8,4.7 -5.9,-0.1 -8.5,-4.1 -8.5,-11 z"
   id="path186" />
	<path
   class="st0"
   d="m 932.6,45.9 h 5.4 l 0.5,3.7 h 0.2 c 2.5,-2.4 5.3,-4.4 9,-4.4 5.9,0 8.5,4 8.5,11 v 17.3 h -6.6 V 57.1 c 0,-4.5 -1.3,-6.1 -4.2,-6.1 -2.4,0 -4,1.1 -6.2,3.4 v 19.1 h -6.7 z"
   id="path188" />
	<path
   class="st0"
   d="m 963.3,59.7 c 0,-9 5.6,-14.5 11.7,-14.5 3.1,0 5,1.2 7.2,3 l -0.3,-4.4 v -9.9 h 6.6 v 39.5 h -5.4 l -0.5,-3 h -0.2 c -2,2 -4.8,3.6 -7.7,3.6 -7,0.1 -11.4,-5.2 -11.4,-14.3 z m 18.5,5.9 V 53 c -1.8,-1.7 -3.6,-2.2 -5.5,-2.2 -3.4,0 -6.3,3.2 -6.3,8.9 0,5.9 2.2,9 6.2,9 2.1,-0.1 3.9,-1 5.6,-3.1 z"
   id="path190" />
	<path
   class="st0"
   d="m 996,66.1 c 0,-6.1 4.8,-9.1 16.1,-10.3 -0.1,-2.8 -1.2,-5.1 -4.9,-5.1 -2.7,0 -5.3,1.1 -7.7,2.6 l -2.3,-4.4 c 3,-1.9 6.9,-3.6 11.3,-3.6 6.8,0 10.3,4.3 10.3,11.9 v 16.3 h -5.4 l -0.6,-3 h -0.2 c -2.5,2.1 -5.2,3.7 -8.4,3.7 -4.9,0 -8.2,-3.3 -8.2,-8.1 z m 16.1,0 v -5.8 c -7.5,0.9 -9.7,2.6 -9.7,5.4 0,2.4 1.6,3.2 3.8,3.2 2.2,0 3.9,-0.9 5.9,-2.8 z"
   id="path192" />
	<path
   class="st0"
   d="M 1027.4,64.1 V 51.2 h -3.9 v -4.9 l 4.3,-0.3 0.8,-8.6 h 5.5 V 46 h 7 v 5.3 h -7 v 12.9 c 0,3.2 1.3,4.8 3.9,4.8 0.9,0 1.9,-0.2 2.9,-0.6 l 1.2,4.6 c -1.5,0.7 -3.5,1.2 -5.7,1.2 -6.7,-0.1 -9,-4.1 -9,-10.1 z"
   id="path194" />
	<path
   class="st0"
   d="m 1047,37.5 c 0,-2.2 1.6,-3.8 4,-3.8 2.4,0 4,1.5 4,3.8 0,2.3 -1.6,3.8 -4,3.8 -2.4,0 -4,-1.6 -4,-3.8 z m 0.6,8.4 h 6.7 v 27.6 h -6.7 z"
   id="path196" />
	<path
   class="st0"
   d="m 1061.4,59.7 c 0,-9.2 6.3,-14.5 13.2,-14.5 6.9,0 13.1,5.3 13.1,14.5 0,9.2 -6.3,14.4 -13.1,14.4 -6.8,0 -13.2,-5.2 -13.2,-14.4 z m 19.5,0 c 0,-5.5 -2.3,-9.1 -6.3,-9.1 -4,0 -6.3,3.6 -6.3,9.1 0,5.5 2.3,9 6.3,9 4,0 6.3,-3.5 6.3,-9 z"
   id="path198" />
	<path
   class="st0"
   d="m 1094.8,45.9 h 5.4 l 0.5,3.7 h 0.2 c 2.5,-2.4 5.3,-4.4 9,-4.4 5.9,0 8.5,4 8.5,11 v 17.3 h -6.6 V 57.1 c 0,-4.5 -1.3,-6.1 -4.2,-6.1 -2.4,0 -4,1.1 -6.2,3.4 v 19.1 h -6.7 z"
   id="path200" />
	<path
   class="st0"
   d="M 589.7,112.2 H 586 v -4.9 l 3.7,-0.3 v -2.7 c 0,-5.7 2.6,-10 9.2,-10 2,0 3.9,0.5 5.1,0.9 l -1.3,4.8 c -1,-0.3 -2,-0.4 -2.9,-0.4 -2.3,0 -3.5,1.5 -3.5,4.6 v 2.8 h 5.3 v 5.3 h -5.3 v 22.3 h -6.6 z"
   id="path202" />
	<path
   class="st0"
   d="m 605,120.7 c 0,-9.2 6.3,-14.5 13.2,-14.5 6.9,0 13.1,5.3 13.1,14.5 0,9.2 -6.3,14.4 -13.1,14.4 -6.8,0 -13.2,-5.2 -13.2,-14.4 z m 19.4,0 c 0,-5.5 -2.3,-9.1 -6.3,-9.1 -4,0 -6.3,3.6 -6.3,9.1 0,5.5 2.3,9 6.3,9 4,0 6.3,-3.5 6.3,-9 z"
   id="path204" />
	<path
   class="st0"
   d="m 638.4,106.9 h 5.4 l 0.5,4.9 h 0.2 c 2,-3.6 4.9,-5.6 7.8,-5.6 1.4,0 2.3,0.2 3.1,0.6 l -1.3,5.7 c -0.8,-0.2 -1.5,-0.3 -2.6,-0.3 -2.2,0 -4.8,1.5 -6.4,5.7 v 16.7 h -6.7 z"
   id="path206" />
	<path
   class="st0"
   d="m 673.4,125.1 v -12.9 h -3.9 v -4.9 l 4.3,-0.3 0.8,-8.6 h 5.5 v 8.6 h 7 v 5.3 h -7 v 12.9 c 0,3.2 1.3,4.8 3.9,4.8 1,0 1.9,-0.2 2.9,-0.6 l 1.2,4.6 c -1.5,0.7 -3.5,1.2 -5.7,1.2 -6.6,-0.1 -8.9,-4.1 -9,-10.1 z"
   id="path208" />
	<path
   class="st0"
   d="m 693.7,94.9 h 6.7 v 10.2 l -0.3,5.3 c 2.2,-2.1 5,-4.1 8.7,-4.1 5.9,0 8.5,4 8.5,11 v 17.2 h -6.6 v -16.4 c 0,-4.5 -1.3,-6.1 -4.2,-6.1 -2.4,0 -4,1.1 -6.2,3.4 v 19.1 h -6.7 V 94.9 Z"
   id="path210" />
	<path
   class="st0"
   d="m 724.1,120.7 c 0,-9 6.3,-14.4 12.7,-14.4 7.5,0 11.5,5.4 11.5,13.1 0,1.3 -0.1,2.4 -0.3,3.4 h -17.4 c 0.7,4.6 3.6,7.3 8,7.3 2.3,0 4.5,-0.7 6.4,-1.9 l 2.2,4.1 c -2.6,1.9 -5.9,2.9 -9.5,2.9 -7.7,-0.1 -13.6,-5.3 -13.6,-14.5 z m 18.3,-2.9 c 0,-4 -1.9,-6.4 -5.5,-6.4 -3.1,0 -5.8,2.2 -6.4,6.4 z"
   id="path212" />
	<path
   class="st0"
   d="m 765.4,129.8 3.6,-4.4 c 2.6,2.5 6.3,4 9.8,4 4,0 6.3,-1.9 6.3,-4.6 0,-2.7 -2.3,-3.9 -5.7,-5.3 l -5,-2.2 c -3.6,-1.5 -7.4,-4.4 -7.4,-9.7 0,-5.9 5.2,-10.4 12.3,-10.4 4.4,0 8.5,1.8 11.4,4.5 l -3.6,4.4 c -2.3,-2 -5,-3.1 -7.8,-3.1 -3.4,0 -5.6,1.6 -5.6,4.2 0,2.8 2.7,3.8 5.8,5.1 l 4.9,2 c 4.4,1.9 7.4,4.6 7.4,9.9 0,5.9 -4.9,10.9 -13.2,10.9 -5,0 -9.7,-1.8 -13.2,-5.3 z"
   id="path214" />
	<path
   class="st0"
   d="m 798.3,125.1 v -12.9 h -3.9 v -4.9 l 4.3,-0.3 0.8,-8.6 h 5.5 v 8.6 h 7 v 5.3 h -7 v 12.9 c 0,3.2 1.3,4.8 3.9,4.8 1,0 1.9,-0.2 2.9,-0.6 l 1.2,4.6 c -1.5,0.7 -3.5,1.2 -5.7,1.2 -6.6,-0.1 -9,-4.1 -9,-10.1 z"
   id="path216" />
	<path
   class="st0"
   d="M 818.3,124.2 V 107 h 6.6 v 16.4 c 0,4.5 1.3,6.2 4.2,6.2 2.4,0 4,-1.1 6,-3.8 V 107 h 6.6 v 27.6 h -5.4 l -0.5,-4 h -0.2 c -2.4,2.9 -5,4.7 -8.8,4.7 -6,-0.2 -8.5,-4.2 -8.5,-11.1 z"
   id="path218" />
	<path
   class="st0"
   d="m 849.1,120.7 c 0,-9 5.6,-14.5 11.7,-14.5 3.1,0 5,1.2 7.2,3 l -0.3,-4.4 v -9.9 h 6.6 v 39.5 h -5.4 l -0.5,-3 h -0.2 c -2,2 -4.8,3.6 -7.7,3.6 -7,0.1 -11.4,-5.2 -11.4,-14.3 z m 18.5,5.9 V 114 c -1.8,-1.7 -3.6,-2.2 -5.5,-2.2 -3.4,0 -6.3,3.2 -6.3,8.9 0,5.9 2.2,9 6.2,9 2.1,-0.1 3.9,-1 5.6,-3.1 z"
   id="path220" />
	<path
   class="st0"
   d="m 881.5,145.1 1.3,-5 c 0.8,0.2 1.3,0.3 1.9,0.3 2.9,0 4.5,-1.9 5.4,-4.6 l 0.5,-1.7 -10.8,-27.2 h 6.7 l 4.7,13.4 c 0.8,2.4 1.6,5.1 2.4,7.8 h 0.2 c 0.7,-2.6 1.4,-5.3 2.1,-7.8 l 4,-13.4 h 6.4 l -9.9,28.7 c -2.3,6.3 -5.2,10.1 -11.3,10.1 -1.5,0 -2.5,-0.2 -3.6,-0.6 z"
   id="path222" />
	<path
   class="st0"
   d="m 922.2,120.7 c 0,-9.2 6.3,-14.5 13.2,-14.5 6.9,0 13.1,5.3 13.1,14.5 0,9.2 -6.3,14.4 -13.1,14.4 -6.8,0 -13.2,-5.2 -13.2,-14.4 z m 19.5,0 c 0,-5.5 -2.3,-9.1 -6.3,-9.1 -4,0 -6.3,3.6 -6.3,9.1 0,5.5 2.3,9 6.3,9 4,0.1 6.3,-3.5 6.3,-9 z"
   id="path224" />
	<path
   class="st0"
   d="m 956.6,112.2 h -3.7 v -4.9 l 3.7,-0.3 v -2.7 c 0,-5.7 2.6,-10 9.2,-10 2,0 3.9,0.5 5.1,0.9 l -1.3,4.8 c -1,-0.3 -2,-0.4 -2.9,-0.4 -2.3,0 -3.5,1.5 -3.5,4.6 v 2.8 h 5.3 v 5.3 h -5.3 v 22.3 h -6.6 z"
   id="path226" />
	<path
   class="st0"
   d="m 986.9,97.8 h 9.8 c 11.2,0 17.9,6 17.9,18.1 0,12.1 -6.7,18.5 -17.6,18.5 h -10.1 z m 9.4,31.3 c 7.3,0 11.5,-4.1 11.5,-13.1 0,-9 -4.2,-12.7 -11.5,-12.7 h -2.7 v 25.8 z"
   id="path228" />
	<path
   class="st0"
   d="m 1021.6,98.5 c 0,-2.2 1.6,-3.8 4,-3.8 2.4,0 4,1.5 4,3.8 0,2.3 -1.6,3.8 -4,3.8 -2.3,-0.1 -4,-1.6 -4,-3.8 z m 0.7,8.4 h 6.7 v 27.6 h -6.7 z"
   id="path230" />
	<path
   class="st0"
   d="m 1036.4,127.1 c 0,-6.1 4.8,-9.1 16.1,-10.3 -0.1,-2.8 -1.2,-5.1 -4.9,-5.1 -2.7,0 -5.3,1.1 -7.7,2.6 l -2.3,-4.4 c 3,-1.9 6.9,-3.6 11.3,-3.6 6.8,0 10.3,4.3 10.3,11.9 v 16.3 h -5.4 l -0.6,-3 h -0.2 c -2.5,2.1 -5.2,3.7 -8.4,3.7 -4.8,0 -8.2,-3.3 -8.2,-8.1 z m 16.2,0 v -5.8 c -7.5,0.9 -9.7,2.6 -9.7,5.4 0,2.4 1.6,3.2 3.8,3.2 2.2,0 3.9,-0.9 5.9,-2.8 z"
   id="path232" />
	<path
   class="st0"
   d="m 1073.7,131.5 h -0.2 l -0.6,2.9 h -5.2 V 94.9 h 6.7 v 10.2 l -0.2,4.5 c 2.3,-2 5.1,-3.4 7.9,-3.4 6.9,0 10.9,5.5 10.9,14 0,9.5 -5.6,14.9 -11.7,14.9 -2.7,0 -5.3,-1.3 -7.6,-3.6 z m 12.4,-11.2 c 0,-5.4 -1.8,-8.6 -5.9,-8.6 -2,0 -3.9,0.9 -5.9,3 v 12.7 c 1.8,1.6 3.8,2.2 5.4,2.2 3.6,0 6.4,-3.1 6.4,-9.3 z"
   id="path234" />
	<path
   class="st0"
   d="m 1098.4,120.7 c 0,-9 6.3,-14.4 12.7,-14.4 7.4,0 11.5,5.4 11.5,13.1 0,1.3 -0.1,2.4 -0.3,3.4 h -17.4 c 0.7,4.6 3.6,7.3 7.9,7.3 2.3,0 4.5,-0.7 6.4,-1.9 l 2.2,4.1 c -2.6,1.9 -5.9,2.9 -9.5,2.9 -7.6,-0.1 -13.5,-5.3 -13.5,-14.5 z m 18.3,-2.9 c 0,-4 -1.9,-6.4 -5.5,-6.4 -3.1,0 -5.8,2.2 -6.4,6.4 z"
   id="path236" />
	<path
   class="st0"
   d="m 1129.9,125.1 v -12.9 h -3.9 v -4.9 l 4.3,-0.3 0.8,-8.6 h 5.5 v 8.6 h 7 v 5.3 h -7 v 12.9 c 0,3.2 1.3,4.8 3.9,4.8 0.9,0 1.9,-0.2 2.9,-0.6 l 1.2,4.6 c -1.5,0.7 -3.5,1.2 -5.7,1.2 -6.6,-0.1 -8.9,-4.1 -9,-10.1 z"
   id="path238" />
	<path
   class="st0"
   d="m 1147.5,120.7 c 0,-9 6.3,-14.4 12.7,-14.4 7.4,0 11.5,5.4 11.5,13.1 0,1.3 -0.1,2.4 -0.3,3.4 H 1154 c 0.7,4.6 3.6,7.3 7.9,7.3 2.3,0 4.5,-0.7 6.4,-1.9 l 2.2,4.1 c -2.6,1.9 -5.9,2.9 -9.5,2.9 -7.6,-0.1 -13.5,-5.3 -13.5,-14.5 z m 18.3,-2.9 c 0,-4 -1.9,-6.4 -5.5,-6.4 -3.1,0 -5.8,2.2 -6.4,6.4 z"
   id="path240" />
	<path
   class="st0"
   d="m 1175.9,131.1 2.9,-3.8 c 2.4,2 4.9,2.8 7.7,2.8 2.8,0 4.3,-1.3 4.3,-3.2 0,-2.3 -2.7,-3.2 -5.8,-4.3 -4,-1.5 -7.7,-3.8 -7.7,-8.1 0,-4.8 3.9,-8.3 10.1,-8.3 3.8,0 6.9,1.4 9.2,3.4 l -2.9,3.8 c -2,-1.5 -4,-2.1 -6.2,-2.1 -2.7,0 -4,1.3 -4,3 0,2 2,2.8 5.4,4 4.3,1.5 8,3.6 8,8.4 0,4.8 -3.8,8.6 -10.8,8.6 -3.6,-0.2 -7.5,-1.6 -10.2,-4.2 z"
   id="path242" />
</g>
</svg>
