<?xml version="1.0" encoding="UTF-8" standalone="no"?>
<!-- Created with Inkscape (http://www.inkscape.org/) -->

<svg
   version="1.1"
   id="svg2"
   width="1395.6495"
   height="1050.0892"
   viewBox="0 0 1395.6495 1050.0892"
   xmlns="http://www.w3.org/2000/svg"
   xmlns:svg="http://www.w3.org/2000/svg">
  <defs
     id="defs6">
    <clipPath
       clipPathUnits="userSpaceOnUse"
       id="clipPath94">
      <path
         d="m 59.035,39.715 h 486.719 v 299.52 H 59.035 Z"
         id="path92" />
    </clipPath>
    <clipPath
       clipPathUnits="userSpaceOnUse"
       id="clipPath102">
      <path
         d="M 0,0 H 1047 V 788 H 0 Z"
         id="path100" />
    </clipPath>
    <clipPath
       clipPathUnits="userSpaceOnUse"
       id="clipPath208">
      <path
         d="M 570.453,39.781 H 1047 V 339.304 H 570.453 Z"
         id="path206" />
    </clipPath>
    <clipPath
       clipPathUnits="userSpaceOnUse"
       id="clipPath216">
      <path
         d="M 0,0 H 1047 V 788 H 0 Z"
         id="path214" />
    </clipPath>
    <clipPath
       clipPathUnits="userSpaceOnUse"
       id="clipPath344">
      <path
         d="M 59.035,429.344 H 545.754 V 728.867 H 59.035 Z"
         id="path342" />
    </clipPath>
    <clipPath
       clipPathUnits="userSpaceOnUse"
       id="clipPath352">
      <path
         d="M 0,0 H 1047 V 788 H 0 Z"
         id="path350" />
    </clipPath>
  </defs>
  <g
     id="g8"
     transform="matrix(1.3333333,0,0,1.3333333,0,-7.0811025e-6)">
    <g
       id="g10">
      <g
         id="g12"
         transform="scale(1,-1)">
        <path
           d="M 77.066,-339.234 H 527.727"
           style="fill:none;stroke:#000000;stroke-width:0.75;stroke-linecap:round;stroke-linejoin:round;stroke-miterlimit:10;stroke-dasharray:none;stroke-opacity:1"
           id="path14" />
      </g>
      <g
         id="g16"
         transform="scale(1,-1)">
        <path
           d="m 77.066,-339.234 v -7.2"
           style="fill:none;stroke:#000000;stroke-width:0.75;stroke-linecap:round;stroke-linejoin:round;stroke-miterlimit:10;stroke-dasharray:none;stroke-opacity:1"
           id="path18" />
      </g>
      <g
         id="g20"
         transform="scale(1,-1)">
        <path
           d="m 167.195,-339.234 v -7.2"
           style="fill:none;stroke:#000000;stroke-width:0.75;stroke-linecap:round;stroke-linejoin:round;stroke-miterlimit:10;stroke-dasharray:none;stroke-opacity:1"
           id="path22" />
      </g>
      <g
         id="g24"
         transform="scale(1,-1)">
        <path
           d="m 257.324,-339.234 v -7.2"
           style="fill:none;stroke:#000000;stroke-width:0.75;stroke-linecap:round;stroke-linejoin:round;stroke-miterlimit:10;stroke-dasharray:none;stroke-opacity:1"
           id="path26" />
      </g>
      <g
         id="g28"
         transform="scale(1,-1)">
        <path
           d="m 347.465,-339.234 v -7.2"
           style="fill:none;stroke:#000000;stroke-width:0.75;stroke-linecap:round;stroke-linejoin:round;stroke-miterlimit:10;stroke-dasharray:none;stroke-opacity:1"
           id="path30" />
      </g>
      <g
         id="g32"
         transform="scale(1,-1)">
        <path
           d="m 437.594,-339.234 v -7.2"
           style="fill:none;stroke:#000000;stroke-width:0.75;stroke-linecap:round;stroke-linejoin:round;stroke-miterlimit:10;stroke-dasharray:none;stroke-opacity:1"
           id="path34" />
      </g>
      <g
         id="g36"
         transform="scale(1,-1)">
        <path
           d="m 527.727,-339.234 v -7.2"
           style="fill:none;stroke:#000000;stroke-width:0.75;stroke-linecap:round;stroke-linejoin:round;stroke-miterlimit:10;stroke-dasharray:none;stroke-opacity:1"
           id="path38" />
      </g>
      <text
         xml:space="preserve"
         transform="translate(68.885076,365.15461)"
         style="font-variant:normal;font-weight:normal;font-size:16px;font-family:Helvetica;-inkscape-font-specification:Helvetica;writing-mode:lr-tb;fill:#000000;fill-opacity:1;fill-rule:nonzero;stroke:none"
         id="text42"><tspan
           x="0 8.8984375 88.644875 97.543312 178.77776 187.67619 270.40002 279.29846 360.5329 369.43134 449.17776 458.0762"
           y="0"
           id="tspan40">646668707274</tspan></text>
      <g
         id="g44"
         transform="scale(1,-1)">
        <path
           d="M 59.035,-305.805 V -58.836"
           style="fill:none;stroke:#000000;stroke-width:0.75;stroke-linecap:round;stroke-linejoin:round;stroke-miterlimit:10;stroke-dasharray:none;stroke-opacity:1"
           id="path46" />
      </g>
      <g
         id="g48"
         transform="scale(1,-1)">
        <path
           d="M 59.035,-305.805 H 51.836"
           style="fill:none;stroke:#000000;stroke-width:0.75;stroke-linecap:round;stroke-linejoin:round;stroke-miterlimit:10;stroke-dasharray:none;stroke-opacity:1"
           id="path50" />
      </g>
      <g
         id="g52"
         transform="scale(1,-1)">
        <path
           d="M 59.035,-256.406 H 51.836"
           style="fill:none;stroke:#000000;stroke-width:0.75;stroke-linecap:round;stroke-linejoin:round;stroke-miterlimit:10;stroke-dasharray:none;stroke-opacity:1"
           id="path54" />
      </g>
      <g
         id="g56"
         transform="scale(1,-1)">
        <path
           d="M 59.035,-207.016 H 51.836"
           style="fill:none;stroke:#000000;stroke-width:0.75;stroke-linecap:round;stroke-linejoin:round;stroke-miterlimit:10;stroke-dasharray:none;stroke-opacity:1"
           id="path58" />
      </g>
      <g
         id="g60"
         transform="scale(1,-1)">
        <path
           d="M 59.035,-157.625 H 51.836"
           style="fill:none;stroke:#000000;stroke-width:0.75;stroke-linecap:round;stroke-linejoin:round;stroke-miterlimit:10;stroke-dasharray:none;stroke-opacity:1"
           id="path62" />
      </g>
      <g
         id="g64"
         transform="scale(1,-1)">
        <path
           d="M 59.035,-108.234 H 51.836"
           style="fill:none;stroke:#000000;stroke-width:0.75;stroke-linecap:round;stroke-linejoin:round;stroke-miterlimit:10;stroke-dasharray:none;stroke-opacity:1"
           id="path66" />
      </g>
      <g
         id="g68"
         transform="scale(1,-1)">
        <path
           d="M 59.035,-58.836 H 51.836"
           style="fill:none;stroke:#000000;stroke-width:0.75;stroke-linecap:round;stroke-linejoin:round;stroke-miterlimit:10;stroke-dasharray:none;stroke-opacity:1"
           id="path70" />
      </g>
      <text
         xml:space="preserve"
         transform="rotate(-90,177.86485,136.10977)"
         style="font-variant:normal;font-weight:normal;font-size:16px;font-family:Helvetica;-inkscape-font-specification:Helvetica;writing-mode:lr-tb;fill:#000000;fill-opacity:1;fill-rule:nonzero;stroke:none"
         id="text74"><tspan
           x="0 8.8984375 49.396873 58.295311 98.793747 107.69218 148.17462 157.07306 197.5715 206.46994 246.96837 255.86681"
           y="0"
           id="tspan72">304050607080</tspan></text>
      <text
         xml:space="preserve"
         transform="rotate(-90,160.75985,147.80477)"
         style="font-variant:normal;font-weight:normal;font-size:18px;font-family:Helvetica;-inkscape-font-specification:Helvetica;writing-mode:lr-tb;fill:#000000;fill-opacity:1;fill-rule:nonzero;stroke:none"
         id="text78"><tspan
           x="0 5.0009766 15.011719 24.011719 28.010742 38.021484 48.032227 58.042969 67.042969 77.053711 82.054688 92.06543 102.07617 108.07031 113.07129 123.08203 133.09277 143.10352 153.11426 158.11523 168.12598 178.13672 184.13086 193.13086 203.1416"
           y="0"
           id="tspan76">Incidence per 1000 person</tspan></text>
      <text
         xml:space="preserve"
         transform="rotate(-90,54.183675,41.228597)"
         style="font-variant:normal;font-weight:normal;font-size:18px;font-family:Helvetica;-inkscape-font-specification:Helvetica;writing-mode:lr-tb;fill:#000000;fill-opacity:1;fill-rule:nonzero;stroke:none"
         id="text82"><tspan
           x="0"
           y="0"
           id="tspan80">−</tspan></text>
      <text
         xml:space="preserve"
         transform="rotate(-90,48.927815,35.972737)"
         style="font-variant:normal;font-weight:normal;font-size:18px;font-family:Helvetica;-inkscape-font-specification:Helvetica;writing-mode:lr-tb;fill:#000000;fill-opacity:1;fill-rule:nonzero;stroke:none"
         id="text86"><tspan
           x="0 9 19.010742 29.021484 35.015625"
           y="0"
           id="tspan84">years</tspan></text>
    </g>
    <g
       id="g88">
      <g
         id="g90"
         clip-path="url(#clipPath94)">
        <g
           id="g96">
          <g
             id="g98" />
          <g
             id="g138">
            <g
               clip-path="url(#clipPath102)"
               id="g136">
              <g
                 id="g134">
                <path
                   d="m 77.066,297.773 4.5,-0.929 4.508,-0.938 4.512,-0.929 4.5,-0.954 4.508,-0.949 4.511,-0.949 4.5,-0.949 4.508,-0.973 4.512,-0.957 4.5,-0.973 4.512,-0.98 4.508,-0.977 4.5,-0.98 4.511,-0.992 4.508,-1 4.5,-0.989 4.512,-1.011 4.508,-1.008 4.5,-1.012 4.511,-1.019 4.508,-1.02 4.5,-1.019 4.512,-1.039 4.512,-1.032 4.5,-1.039 4.507,-1.051 4.512,-1.05 4.5,-1.059 4.508,-1.062 4.512,-1.059 4.5,-1.082 4.507,-1.066 4.512,-1.082 4.5,-1.09 4.512,-1.09 4.508,-1.09 4.5,-1.102 4.511,-1.109 4.508,-1.109 4.5,-1.121 4.512,-1.118 4.508,-1.121 4.5,-1.129 4.511,-1.132 4.508,-1.118 4.5,-1.132 4.512,-1.118 4.512,-1.121 4.5,-1.121 4.508,-1.109 4.511,-1.09 4.5,-1.09 4.508,-1.082 4.512,-1.058 4.5,-1.051 4.508,-1.039 4.511,-1.012 4.5,-1 4.508,-0.977 4.512,-0.953 4.5,-0.929 4.512,-0.911 4.507,-0.867 4.5,-0.851 4.512,-0.809 4.508,-0.793 4.5,-0.75 4.512,-0.707 4.507,-0.672 4.5,-0.629 4.512,-0.59 4.512,-0.55 4.5,-0.5 4.508,-0.45 4.511,-0.402 4.5,-0.34 4.508,-0.289 4.512,-0.238 4.5,-0.18 4.508,-0.113 4.511,-0.047 4.5,0.008 4.508,0.07 4.512,0.129 4.5,0.18 4.512,0.242 4.508,0.289 4.5,0.332 4.511,0.379 4.508,0.418 4.5,0.461 4.512,0.5 4.508,0.531 4.5,0.559 4.511,0.59 4.508,0.609 4.5,0.641 4.512,0.66 4.512,0.672 4.5,0.679 V 66.945 l -4.5,-1.031 -4.512,-1.039 -4.512,-1.051 -4.5,-1.058 -4.508,-1.051 -4.511,-1.051 -4.5,-1.039 -4.508,-1.012 -4.512,-0.98 -4.5,-0.949 -4.508,-0.899 -4.511,-0.859 -4.5,-0.801 -4.508,-0.73 -4.512,-0.649 -4.5,-0.582 -4.512,-0.48 -4.508,-0.391 -4.5,-0.277 -4.511,-0.161 -4.508,-0.05 -4.5,0.078 -4.512,0.191 -4.508,0.309 -4.5,0.433 -4.511,0.528 -4.508,0.64 -4.5,0.743 -4.512,0.847 -4.512,0.942 -4.5,1.039 -4.507,1.129 -4.512,1.211 -4.5,1.3 -4.508,1.371 -4.512,1.45 -4.5,1.519 -4.507,1.578 -4.512,1.653 -4.5,1.711 -4.512,1.757 -4.508,1.809 -4.5,1.863 -4.511,1.899 -4.508,1.941 -4.5,1.969 -4.512,2.012 -4.508,2.027 -4.5,2.051 -4.511,2.078 -4.508,2.094 -4.5,2.097 -4.512,2.11 -4.512,2.121 -4.5,2.121 -4.508,2.117 -4.511,2.121 -4.5,2.109 -4.508,2.102 -4.512,2.09 -4.5,2.078 -4.508,2.062 -4.511,2.051 -4.5,2.028 -4.508,2.011 -4.512,2.008 -4.5,1.992 -4.512,1.969 -4.507,1.961 -4.5,1.949 -4.512,1.93 -4.508,1.922 -4.5,1.91 -4.512,1.891 -4.507,1.878 -4.5,1.86 -4.512,1.859 -4.512,1.84 -4.5,1.82 -4.508,1.821 -4.511,1.8 -4.5,1.79 -4.508,1.781 -4.512,1.758 -4.5,1.75 -4.508,1.742 -4.511,1.73 -4.5,1.707 -4.508,1.711 -4.512,1.692 -4.5,1.679 -4.512,1.66 -4.508,1.661 -4.5,1.648 -4.511,1.629 -4.508,1.621 -4.5,1.609 -4.512,1.602 -4.508,1.59 -4.5,1.578 z"
                   style="fill:#8b0000;fill-opacity:0.149;fill-rule:nonzero;stroke:none"
                   id="path104" />
                <path
                   d="m 77.066,317.996 4.5,-0.82 4.508,-0.813 4.512,-0.828 4.5,-0.82 4.508,-0.832 4.511,-0.828 4.5,-0.84 4.508,-0.84 4.512,-0.852 4.5,-0.839 4.512,-0.86 4.508,-0.847 4.5,-0.864 4.511,-0.867 4.508,-0.871 4.5,-0.871 4.512,-0.879 4.508,-0.879 4.5,-0.883 4.511,-0.886 4.508,-0.891 4.5,-0.902 4.512,-0.899 4.512,-0.91 4.5,-0.91 4.507,-0.91 4.512,-0.922 4.5,-0.918 4.508,-0.93 4.512,-0.93 4.5,-0.929 4.507,-0.942 4.512,-0.941 4.5,-0.949 4.512,-0.949 4.508,-0.961 4.5,-0.957 4.511,-0.961 4.508,-0.973 4.5,-0.969 4.512,-0.98 4.508,-0.981 4.5,-0.98 4.511,-0.988 4.508,-0.981 4.5,-0.98 4.512,-0.981 4.512,-0.976 4.5,-0.973 4.508,-0.961 4.511,-0.957 4.5,-0.941 4.508,-0.942 4.512,-0.93 4.5,-0.91 4.508,-0.898 4.511,-0.879 4.5,-0.871 4.508,-0.852 4.512,-0.828 4.5,-0.801 4.512,-0.789 4.507,-0.761 4.5,-0.731 4.512,-0.707 4.508,-0.68 4.5,-0.64 4.512,-0.621 4.507,-0.578 4.5,-0.543 4.512,-0.508 4.512,-0.473 4.5,-0.43 4.508,-0.378 4.511,-0.34 4.5,-0.301 4.508,-0.238 4.512,-0.192 4.5,-0.148 4.508,-0.082 4.511,-0.039 4.5,0.031 4.508,0.07 4.512,0.129 4.5,0.18 4.512,0.219 4.508,0.269 4.5,0.313 4.511,0.347 4.508,0.391 4.5,0.422 4.512,0.457 4.508,0.48 4.5,0.52 4.511,0.543 4.508,0.558 4.5,0.582 4.512,0.598 4.512,0.621 4.5,0.621 V 131.965 l -4.5,-0.809 -4.512,-0.812 -4.512,-0.828 -4.5,-0.832 -4.508,-0.829 -4.511,-0.82 -4.5,-0.82 -4.508,-0.801 -4.512,-0.769 -4.5,-0.75 -4.508,-0.719 -4.511,-0.672 -4.5,-0.629 -4.508,-0.582 -4.512,-0.508 -4.5,-0.449 -4.512,-0.383 -4.508,-0.289 -4.5,-0.211 -4.511,-0.117 -4.508,-0.02 -4.5,0.079 -4.512,0.179 -4.508,0.27 -4.5,0.371 -4.511,0.449 -4.508,0.551 -4.5,0.629 -4.512,0.711 -4.512,0.789 -4.5,0.871 -4.507,0.949 -4.512,1.012 -4.5,1.078 -4.508,1.152 -4.512,1.207 -4.5,1.27 -4.507,1.32 -4.512,1.371 -4.5,1.422 -4.512,1.469 -4.508,1.5 -4.5,1.551 -4.511,1.578 -4.508,1.609 -4.5,1.641 -4.512,1.672 -4.508,1.679 -4.5,1.711 -4.511,1.719 -4.508,1.738 -4.5,1.742 -4.512,1.75 -4.512,1.758 -4.5,1.762 -4.508,1.758 -4.511,1.75 -4.5,1.75 -4.508,1.75 -4.512,1.73 -4.5,1.723 -4.508,1.707 -4.511,1.691 -4.5,1.68 -4.508,1.68 -4.512,1.652 -4.5,1.649 -4.512,1.64 -4.507,1.621 -4.5,1.61 -4.512,1.597 -4.508,1.59 -4.5,1.582 -4.512,1.57 -4.507,1.551 -4.5,1.547 -4.512,1.531 -4.512,1.52 -4.5,1.512 -4.508,1.507 -4.511,1.493 -4.5,1.48 -4.508,1.457 -4.512,1.461 -4.5,1.449 -4.508,1.442 -4.511,1.429 -4.5,1.411 -4.508,1.41 -4.512,1.398 -4.5,1.391 -4.512,1.383 -4.508,1.367 -4.5,1.351 -4.511,1.348 -4.508,1.34 -4.5,1.332 -4.512,1.328 -4.508,1.312 -4.5,1.301 z"
                   style="fill:#ffa500;fill-opacity:0.149;fill-rule:nonzero;stroke:none"
                   id="path106" />
                <path
                   d="m 77.066,328.145 4.5,-0.762 4.508,-0.758 4.512,-0.762 4.5,-0.769 4.508,-0.77 4.511,-0.769 4.5,-0.782 4.508,-0.777 4.512,-0.781 4.5,-0.789 4.512,-0.793 4.508,-0.797 4.5,-0.801 4.511,-0.801 4.508,-0.808 4.5,-0.813 4.512,-0.808 4.508,-0.821 4.5,-0.82 4.511,-0.82 4.508,-0.828 4.5,-0.84 4.512,-0.832 4.512,-0.848 4.5,-0.84 4.507,-0.851 4.512,-0.852 4.5,-0.859 4.508,-0.86 4.512,-0.859 4.5,-0.871 4.507,-0.871 4.512,-0.879 4.5,-0.879 4.512,-0.879 4.508,-0.891 4.5,-0.89 4.511,-0.891 4.508,-0.898 4.5,-0.91 4.512,-0.903 4.508,-0.91 4.5,-0.918 4.511,-0.91 4.508,-0.91 4.5,-0.91 9.024,-1.821 4.5,-0.898 4.508,-0.891 4.511,-0.89 4.5,-0.879 4.508,-0.871 4.512,-0.86 4.5,-0.851 4.508,-0.828 4.511,-0.821 4.5,-0.8 4.508,-0.79 4.512,-0.761 4.5,-0.75 4.512,-0.731 4.507,-0.699 4.5,-0.68 4.512,-0.648 4.508,-0.633 4.5,-0.59 4.512,-0.57 4.507,-0.527 4.5,-0.5 4.512,-0.473 4.512,-0.43 4.5,-0.386 4.508,-0.352 4.511,-0.309 4.5,-0.261 4.508,-0.219 4.512,-0.172 4.5,-0.121 4.508,-0.066 4.511,-0.024 4.5,0.031 4.508,0.082 4.512,0.129 4.5,0.18 4.512,0.219 4.508,0.261 4.5,0.301 4.511,0.34 4.508,0.379 4.5,0.41 4.512,0.43 4.508,0.469 4.5,0.5 4.511,0.511 4.508,0.539 4.5,0.559 4.512,0.57 4.512,0.582 4.5,0.598 V 156.996 l -4.5,-0.711 -4.512,-0.719 -4.512,-0.73 -4.5,-0.742 -4.508,-0.731 -4.511,-0.738 -4.5,-0.719 -4.508,-0.711 -4.512,-0.691 -4.5,-0.66 -4.508,-0.629 -4.511,-0.602 -4.5,-0.547 -4.508,-0.511 -4.512,-0.45 -4.5,-0.39 -4.512,-0.332 -4.508,-0.25 -4.5,-0.18 -4.511,-0.09 h -4.508 l -4.5,0.09 -4.512,0.18 -4.508,0.273 -4.5,0.348 -4.511,0.43 -4.508,0.511 -4.5,0.59 -4.512,0.66 -4.512,0.739 -4.5,0.812 -4.507,0.867 -4.512,0.942 -4.5,1 -4.508,1.058 -4.512,1.121 -4.5,1.161 -4.507,1.218 -4.512,1.27 -4.5,1.301 -4.512,1.351 -4.508,1.391 -4.5,1.418 -4.511,1.449 -4.508,1.492 -4.5,1.5 -4.512,1.531 -4.508,1.547 -4.5,1.571 -4.511,1.582 -4.508,1.597 -4.5,1.602 -9.024,3.219 -4.5,1.621 -4.508,1.609 -4.511,1.609 -4.5,1.61 -4.508,1.601 -4.512,1.59 -4.5,1.582 -4.508,1.559 -4.511,1.558 -4.5,1.551 -4.508,1.531 -4.512,1.52 -4.5,1.508 -4.512,1.512 -4.507,1.488 -4.5,1.48 -4.512,1.473 -4.508,1.449 -4.5,1.449 -4.512,1.442 -4.507,1.429 -4.5,1.418 -4.512,1.403 -4.512,1.398 -4.5,1.391 -4.508,1.379 -4.511,1.359 -4.5,1.363 -4.508,1.348 -4.512,1.34 -4.5,1.332 -4.508,1.32 -4.511,1.309 -4.5,1.301 -4.508,1.289 -4.512,1.289 -4.5,1.269 -4.512,1.262 -4.508,1.258 -4.5,1.25 -4.511,1.242 -4.508,1.23 -4.5,1.219 -4.512,1.211 -4.508,1.199 -4.5,1.2 z"
                   style="fill:#006400;fill-opacity:0.149;fill-rule:nonzero;stroke:none"
                   id="path108" />
                <g
                   transform="scale(1,-1)"
                   id="g112">
                  <path
                     d="m 77.066,-248.066 4.5,1.211 4.508,1.222 4.512,1.219 4.5,1.238 4.508,1.242 4.511,1.239 4.5,1.261 4.508,1.258 4.512,1.27 4.5,1.281 4.512,1.281 4.508,1.289 4.5,1.301 4.511,1.309 4.508,1.312 4.5,1.328 4.512,1.328 4.508,1.332 4.5,1.352 4.511,1.348 4.508,1.371 4.5,1.371 4.512,1.367 4.512,1.391 4.5,1.39 4.507,1.41 4.512,1.411 4.5,1.418 4.508,1.421 4.512,1.442 4.5,1.437 4.507,1.461 4.512,1.461 4.5,1.469 4.512,1.48 4.508,1.481 4.5,1.5 4.511,1.5 4.508,1.519 4.5,1.52 4.512,1.531 4.508,1.539 4.5,1.539 4.511,1.551 4.508,1.551 4.5,1.539 4.512,1.551 4.512,1.539 4.5,1.531 4.508,1.52 4.511,1.507 4.5,1.5 4.508,1.481 4.512,1.461 4.5,1.441 4.508,1.418 4.511,1.391 4.5,1.359 4.508,1.332 4.512,1.289 4.5,1.262 4.512,1.227 4.507,1.171 4.5,1.141 4.512,1.09 4.508,1.031 4.5,0.988 4.512,0.93 4.507,0.871 4.5,0.809 4.512,0.75 4.512,0.68 4.5,0.609 4.508,0.543 4.511,0.457 4.5,0.391 4.508,0.312 4.512,0.227 4.5,0.152 4.508,0.051 4.511,-0.02 4.5,-0.121 4.508,-0.191 4.512,-0.27 4.5,-0.34 4.512,-0.398 4.508,-0.473 4.5,-0.519 4.511,-0.571 4.508,-0.617 4.5,-0.66 4.512,-0.711 4.508,-0.73 4.5,-0.762 4.511,-0.789 4.508,-0.801 4.5,-0.82 4.512,-0.84 4.512,-0.828 4.5,-0.84"
                     style="fill:none;stroke:#8b0000;stroke-width:2.25;stroke-linecap:round;stroke-linejoin:round;stroke-miterlimit:10;stroke-dasharray:none;stroke-opacity:1"
                     id="path110" />
                </g>
                <g
                   transform="scale(1,-1)"
                   id="g116">
                  <path
                     d="m 77.066,-278.934 4.5,1.028 4.508,1.043 4.512,1.039 4.5,1.051 4.508,1.046 4.511,1.063 4.5,1.07 4.508,1.071 4.512,1.078 4.5,1.09 4.512,1.089 4.508,1.102 4.5,1.098 4.511,1.113 4.508,1.117 4.5,1.121 4.512,1.129 4.508,1.141 4.5,1.152 4.511,1.148 4.508,1.149 4.5,1.172 4.512,1.168 4.512,1.179 4.5,1.184 4.507,1.199 4.512,1.199 4.5,1.2 4.508,1.218 4.512,1.223 4.5,1.219 4.507,1.242 4.512,1.238 4.5,1.25 4.512,1.262 4.508,1.258 4.5,1.269 4.511,1.282 4.508,1.289 4.5,1.289 4.512,1.301 4.508,1.312 4.5,1.309 4.511,1.32 4.508,1.309 4.5,1.32 4.512,1.308 4.512,1.313 4.5,1.301 4.508,1.297 4.511,1.281 4.5,1.269 4.508,1.262 4.512,1.238 4.5,1.231 4.508,1.199 4.511,1.18 4.5,1.16 4.508,1.133 4.512,1.109 4.5,1.07 4.512,1.028 4.507,1.011 4.5,0.961 4.512,0.918 4.508,0.891 4.5,0.832 4.512,0.789 4.507,0.738 4.5,0.692 4.512,0.64 4.512,0.579 4.5,0.519 4.508,0.453 4.511,0.399 4.5,0.328 4.508,0.273 4.512,0.188 4.5,0.121 4.508,0.051 4.511,-0.02 4.5,-0.102 4.508,-0.16 4.512,-0.23 4.5,-0.289 4.512,-0.34 4.508,-0.402 4.5,-0.438 4.511,-0.492 4.508,-0.52 4.5,-0.57 4.512,-0.59 4.508,-0.629 4.5,-0.648 4.511,-0.66 4.508,-0.692 4.5,-0.699 4.512,-0.699 4.512,-0.723 4.5,-0.707"
                     style="fill:none;stroke:#ffa500;stroke-width:2.25;stroke-linecap:round;stroke-linejoin:round;stroke-miterlimit:10;stroke-dasharray:none;stroke-opacity:1"
                     id="path114" />
                </g>
                <g
                   transform="scale(1,-1)"
                   id="g120">
                  <path
                     d="m 77.066,-292.375 4.5,0.949 4.508,0.961 4.512,0.961 4.5,0.969 4.508,0.969 4.511,0.98 4.5,0.992 4.508,0.989 4.512,0.992 4.5,1 4.512,1.008 4.508,1.019 4.5,1.02 4.511,1.023 4.508,1.027 4.5,1.039 4.512,1.051 4.508,1.051 4.5,1.051 4.511,1.058 4.508,1.071 4.5,1.082 4.512,1.078 4.512,1.09 4.5,1.09 4.507,1.101 4.512,1.109 4.5,1.11 4.508,1.121 4.512,1.129 4.5,1.129 4.507,1.14 4.512,1.153 4.5,1.148 4.512,1.16 4.508,1.172 4.5,1.18 4.511,1.18 4.508,1.179 4.5,1.199 4.512,1.2 4.508,1.211 4.5,1.211 4.511,1.207 4.508,1.222 4.5,1.211 4.512,1.207 4.512,1.211 4.5,1.199 4.508,1.2 4.511,1.183 4.5,1.18 4.508,1.16 4.512,1.148 4.5,1.129 4.508,1.11 4.511,1.09 4.5,1.07 4.508,1.043 4.512,1.019 4.5,0.989 4.512,0.961 4.507,0.918 4.5,0.89 4.512,0.86 4.508,0.812 4.5,0.77 4.512,0.73 4.507,0.688 4.5,0.632 4.512,0.59 4.512,0.528 4.5,0.48 4.508,0.43 4.511,0.363 4.5,0.309 4.508,0.238 4.512,0.18 4.5,0.113 4.508,0.047 4.511,-0.02 4.5,-0.09 4.508,-0.148 4.512,-0.211 4.5,-0.27 4.512,-0.32 4.508,-0.359 4.5,-0.41 4.511,-0.45 4.508,-0.492 4.5,-0.519 4.512,-0.551 4.508,-0.57 4.5,-0.598 4.511,-0.621 4.508,-0.629 4.5,-0.652 4.512,-0.649 4.512,-0.66 4.5,-0.66"
                     style="fill:none;stroke:#006400;stroke-width:2.25;stroke-linecap:round;stroke-linejoin:round;stroke-miterlimit:10;stroke-dasharray:none;stroke-opacity:1"
                     id="path118" />
                </g>
                <text
                   xml:space="preserve"
                   transform="translate(128.85507,68.084622)"
                   style="font-variant:normal;font-weight:normal;font-size:18px;font-family:Helvetica;-inkscape-font-specification:Helvetica;writing-mode:lr-tb;fill:#8b0000;fill-opacity:1;fill-rule:nonzero;stroke:none"
                   id="text124"><tspan
                     x="0 12.005859 25.004883 38.003906 51.00293 56.003906 66.014648 76.025391 86.036133 91.037109 106.03125"
                     y="0"
                     id="tspan122">SDNN 100 ms</tspan></text>
                <text
                   xml:space="preserve"
                   transform="translate(128.85507,92.784621)"
                   style="font-variant:normal;font-weight:normal;font-size:18px;font-family:Helvetica;-inkscape-font-specification:Helvetica;writing-mode:lr-tb;fill:#ffa500;fill-opacity:1;fill-rule:nonzero;stroke:none"
                   id="text128"><tspan
                     x="0 12.005859 25.004883 38.003906 51.00293 56.003906 66.014648 76.025391 86.036133 91.037109 106.03125"
                     y="0"
                     id="tspan126">SDNN 120 ms</tspan></text>
                <text
                   xml:space="preserve"
                   transform="translate(128.85507,117.47462)"
                   style="font-variant:normal;font-weight:normal;font-size:18px;font-family:Helvetica;-inkscape-font-specification:Helvetica;writing-mode:lr-tb;fill:#006400;fill-opacity:1;fill-rule:nonzero;stroke:none"
                   id="text132"><tspan
                     x="0 12.005859 25.004883 38.003906 51.00293 56.003906 66.014648 76.025391 86.036133 91.037109 106.03125"
                     y="0"
                     id="tspan130">SDNN 160 ms</tspan></text>
              </g>
            </g>
          </g>
        </g>
      </g>
    </g>
    <g
       id="g140">
      <text
         xml:space="preserve"
         transform="translate(40.904296,15.224621)"
         style="font-variant:normal;font-weight:normal;font-size:20px;font-family:Verdana;-inkscape-font-specification:Verdana;writing-mode:lr-tb;fill:#000000;fill-opacity:1;fill-rule:nonzero;stroke:none"
         id="text144"><tspan
           x="0 13.671875 22.753906 29.785156 46.640625 58.652344 65.537109 77.675781 86.210938 93.242188 105.25391 117.71484 129.37079 141.28485 149.82001 160.23993 172.15399 179.18524 189.60516 201.61688 210.15204 222.61298 228.10126 240.09991 251.53586 263.54758 273.9675 284.38742 297.04367 302.53195 314.54367 323.07883 330.11008 342.02414 353.70007 365.61414 378.27039 386.15125"
           y="0"
           id="tspan142">A) Major adverse cardiovascular events</tspan></text>
      <g
         id="g146"
         transform="scale(1,-1)">
        <path
           d="m 588.48,-339.305 h 450.661"
           style="fill:none;stroke:#000000;stroke-width:0.75;stroke-linecap:round;stroke-linejoin:round;stroke-miterlimit:10;stroke-dasharray:none;stroke-opacity:1"
           id="path148" />
      </g>
      <g
         id="g150"
         transform="scale(1,-1)">
        <path
           d="m 588.48,-339.305 v -7.199"
           style="fill:none;stroke:#000000;stroke-width:0.75;stroke-linecap:round;stroke-linejoin:round;stroke-miterlimit:10;stroke-dasharray:none;stroke-opacity:1"
           id="path152" />
      </g>
      <g
         id="g154"
         transform="scale(1,-1)">
        <path
           d="m 678.613,-339.305 v -7.199"
           style="fill:none;stroke:#000000;stroke-width:0.75;stroke-linecap:round;stroke-linejoin:round;stroke-miterlimit:10;stroke-dasharray:none;stroke-opacity:1"
           id="path156" />
      </g>
      <g
         id="g158"
         transform="scale(1,-1)">
        <path
           d="m 768.742,-339.305 v -7.199"
           style="fill:none;stroke:#000000;stroke-width:0.75;stroke-linecap:round;stroke-linejoin:round;stroke-miterlimit:10;stroke-dasharray:none;stroke-opacity:1"
           id="path160" />
      </g>
      <g
         id="g162"
         transform="scale(1,-1)">
        <path
           d="m 858.883,-339.305 v -7.199"
           style="fill:none;stroke:#000000;stroke-width:0.75;stroke-linecap:round;stroke-linejoin:round;stroke-miterlimit:10;stroke-dasharray:none;stroke-opacity:1"
           id="path164" />
      </g>
      <g
         id="g166"
         transform="scale(1,-1)">
        <path
           d="m 949.012,-339.305 v -7.199"
           style="fill:none;stroke:#000000;stroke-width:0.75;stroke-linecap:round;stroke-linejoin:round;stroke-miterlimit:10;stroke-dasharray:none;stroke-opacity:1"
           id="path168" />
      </g>
      <g
         id="g170"
         transform="scale(1,-1)">
        <path
           d="m 1039.141,-339.305 v -7.199"
           style="fill:none;stroke:#000000;stroke-width:0.75;stroke-linecap:round;stroke-linejoin:round;stroke-miterlimit:10;stroke-dasharray:none;stroke-opacity:1"
           id="path172" />
      </g>
      <text
         xml:space="preserve"
         transform="translate(580.30156,365.22297)"
         style="font-variant:normal;font-weight:normal;font-size:16px;font-family:Helvetica;-inkscape-font-specification:Helvetica;writing-mode:lr-tb;fill:#000000;fill-opacity:1;fill-rule:nonzero;stroke:none"
         id="text176"><tspan
           x="0 8.8984375 90.132874 99.031311 180.26575 189.16418 270.40002 279.29846 360.5329 369.43134 449.17776 458.0762"
           y="0"
           id="tspan174">646668707274</tspan></text>
      <g
         id="g178"
         transform="scale(1,-1)">
        <path
           d="M 570.453,-308.633 V -42.191"
           style="fill:none;stroke:#000000;stroke-width:0.75;stroke-linecap:round;stroke-linejoin:round;stroke-miterlimit:10;stroke-dasharray:none;stroke-opacity:1"
           id="path180" />
      </g>
      <g
         id="g182"
         transform="scale(1,-1)">
        <path
           d="M 570.453,-308.633 H 563.25"
           style="fill:none;stroke:#000000;stroke-width:0.75;stroke-linecap:round;stroke-linejoin:round;stroke-miterlimit:10;stroke-dasharray:none;stroke-opacity:1"
           id="path184" />
      </g>
      <g
         id="g186"
         transform="scale(1,-1)">
        <path
           d="M 570.453,-219.824 H 563.25"
           style="fill:none;stroke:#000000;stroke-width:0.75;stroke-linecap:round;stroke-linejoin:round;stroke-miterlimit:10;stroke-dasharray:none;stroke-opacity:1"
           id="path188" />
      </g>
      <g
         id="g190"
         transform="scale(1,-1)">
        <path
           d="M 570.453,-131.004 H 563.25"
           style="fill:none;stroke:#000000;stroke-width:0.75;stroke-linecap:round;stroke-linejoin:round;stroke-miterlimit:10;stroke-dasharray:none;stroke-opacity:1"
           id="path192" />
      </g>
      <g
         id="g194"
         transform="scale(1,-1)">
        <path
           d="M 570.453,-42.191 H 563.25"
           style="fill:none;stroke:#000000;stroke-width:0.75;stroke-linecap:round;stroke-linejoin:round;stroke-miterlimit:10;stroke-dasharray:none;stroke-opacity:1"
           id="path196" />
      </g>
      <text
         xml:space="preserve"
         transform="rotate(-90,435.74227,-117.42929)"
         style="font-variant:normal;font-weight:normal;font-size:16px;font-family:Helvetica;-inkscape-font-specification:Helvetica;writing-mode:lr-tb;fill:#000000;fill-opacity:1;fill-rule:nonzero;stroke:none"
         id="text200"><tspan
           x="0 8.8984375 90.324875 99.223312 177.62575 186.52419 267.95001 276.84845"
           y="0"
           id="tspan198">15202530</tspan></text>
    </g>
    <g
       id="g202">
      <g
         id="g204"
         clip-path="url(#clipPath208)">
        <g
           id="g210">
          <g
             id="g212" />
          <g
             id="g240">
            <g
               clip-path="url(#clipPath216)"
               id="g238">
              <g
                 id="g236">
                <path
                   d="m 588.48,299.562 4.5,0.379 4.512,0.383 4.508,0.379 4.5,0.379 4.512,0.383 4.511,0.379 4.5,0.379 4.508,0.379 4.512,0.382 4.5,0.379 4.508,0.379 4.511,0.379 4.5,0.383 4.508,0.379 4.512,0.379 4.5,0.383 4.508,0.378 4.512,0.372 4.5,0.378 4.511,0.379 4.508,0.379 4.5,0.383 4.512,0.379 4.508,0.379 4.5,0.383 4.511,0.379 4.508,0.371 4.5,0.379 4.512,0.378 4.508,0.379 4.5,0.383 4.511,0.367 4.512,0.383 4.5,0.379 4.508,0.379 4.512,0.383 4.5,0.367 4.507,0.383 4.512,0.379 4.5,0.379 4.508,0.371 4.512,0.379 4.5,0.371 4.511,0.371 4.508,0.359 4.5,0.348 4.512,0.34 4.508,0.332 4.5,0.32 4.511,0.301 4.508,0.289 4.5,0.258 4.512,0.25 4.508,0.23 4.5,0.199 4.512,0.18 4.511,0.16 4.5,0.121 4.508,0.102 4.512,0.07 4.5,0.028 h 4.508 l 4.511,-0.04 4.5,-0.07 4.508,-0.109 4.512,-0.16 4.5,-0.192 4.508,-0.238 4.511,-0.289 4.5,-0.332 4.512,-0.379 4.508,-0.441 4.5,-0.481 4.512,-0.539 4.507,-0.598 4.5,-0.652 4.512,-0.719 4.508,-0.781 4.5,-0.84 4.512,-0.91 4.511,-0.969 4.5,-1.039 4.508,-1.101 4.512,-1.161 4.5,-1.218 4.508,-1.27 4.511,-1.32 4.5,-1.371 4.508,-1.418 4.512,-1.453 4.5,-1.489 4.508,-1.531 4.512,-1.558 4.5,-1.582 4.511,-1.618 4.508,-1.632 4.5,-1.649 4.512,-1.672 4.508,-1.679 4.5,-1.688 V 50.871 l -4.5,3.094 -4.508,3.058 -4.512,3.008 -4.5,2.973 -4.508,2.918 -4.511,2.871 -4.5,2.801 -4.512,2.738 -4.508,2.672 -4.5,2.598 -4.512,2.519 -4.508,2.441 -4.5,2.352 -4.511,2.25 -4.508,2.168 -4.5,2.07 -4.512,1.961 -4.508,1.86 -4.5,1.75 -4.511,1.629 -4.512,1.519 -4.5,1.41 -4.508,1.301 -4.512,1.199 -4.5,1.09 -4.507,1 -4.512,0.902 -4.5,0.809 -4.508,0.73 -4.512,0.653 -4.5,0.558 -4.511,0.489 -4.508,0.41 -4.5,0.34 -4.512,0.269 -4.508,0.211 -4.5,0.141 -4.511,0.09 -4.508,0.019 -4.5,-0.027 -4.512,-0.082 -4.508,-0.129 -4.5,-0.18 -4.511,-0.222 -4.512,-0.27 -4.5,-0.301 -4.508,-0.34 -4.512,-0.379 -4.5,-0.41 -4.508,-0.437 -4.511,-0.461 -4.5,-0.5 -4.508,-0.512 -4.512,-0.527 -4.5,-0.551 -4.508,-0.57 -4.511,-0.582 -4.5,-0.578 -4.512,-0.602 -4.508,-0.59 -4.5,-0.597 -4.512,-0.602 -4.507,-0.609 -4.5,-0.602 -4.512,-0.609 -4.508,-0.61 -4.5,-0.601 -4.512,-0.617 -4.511,-0.614 -4.5,-0.609 -4.508,-0.617 -4.512,-0.614 -4.5,-0.617 -4.508,-0.621 -4.511,-0.629 -4.5,-0.621 -4.508,-0.629 -4.512,-0.621 -4.5,-0.629 -4.508,-0.633 -4.511,-0.629 -4.5,-0.64 -4.512,-0.629 -4.508,-0.641 -4.5,-0.64 -4.512,-0.641 -4.508,-0.637 -4.5,-0.652 -4.511,-0.641 -4.508,-0.648 -4.5,-0.648 -4.512,-0.653 -4.508,-0.648 -4.5,-0.66 -4.511,-0.653 -4.512,-0.66 -4.5,-0.656 -4.508,-0.66 -4.512,-0.66 -4.5,-0.672 z"
                   style="fill:#8b0000;fill-opacity:0.149;fill-rule:nonzero;stroke:none"
                   id="path218" />
                <path
                   d="m 588.48,308.531 4.5,0.364 4.512,0.359 4.508,0.367 4.5,0.363 4.512,0.36 4.511,0.371 4.5,0.359 4.508,0.36 4.512,0.371 4.5,0.359 4.508,0.359 4.511,0.36 4.5,0.371 4.508,0.359 4.512,0.36 4.5,0.371 4.508,0.359 4.512,0.359 4.5,0.372 4.511,0.359 4.508,0.359 4.5,0.36 4.512,0.371 4.508,0.359 4.5,0.36 4.511,0.363 4.508,0.367 4.5,0.359 4.512,0.364 4.508,0.359 4.5,0.367 4.511,0.364 4.512,0.359 4.5,0.359 4.508,0.371 4.512,0.36 4.5,0.359 4.507,0.359 4.512,0.36 4.5,0.371 4.508,0.359 4.512,0.36 4.5,0.351 4.511,0.36 4.508,0.339 4.5,0.34 4.512,0.332 4.508,0.309 4.5,0.309 4.511,0.293 4.508,0.269 4.5,0.258 4.512,0.242 4.508,0.219 4.5,0.191 4.512,0.18 4.511,0.148 4.5,0.121 4.508,0.09 4.512,0.059 4.5,0.043 h 4.508 l 4.511,-0.043 4.5,-0.07 4.508,-0.098 4.512,-0.152 4.5,-0.188 4.508,-0.23 4.511,-0.27 4.5,-0.32 4.512,-0.36 4.508,-0.422 4.5,-0.46 4.512,-0.52 4.507,-0.57 4.5,-0.629 4.512,-0.68 4.508,-0.75 4.5,-0.801 4.512,-0.871 4.511,-0.937 4.5,-0.992 4.508,-1.047 4.512,-1.121 4.5,-1.161 4.508,-1.211 4.511,-1.269 4.5,-1.309 4.508,-1.351 4.512,-1.391 4.5,-1.418 4.508,-1.461 4.512,-1.492 4.5,-1.508 4.511,-1.539 4.508,-1.562 4.5,-1.578 4.512,-1.59 4.508,-1.602 4.5,-1.609 V 79.863 l -4.5,2.961 -4.508,2.918 -4.512,2.891 -4.5,2.84 -4.508,2.8 -4.511,2.739 -4.5,2.679 -4.512,2.621 -4.508,2.559 -4.5,2.481 -4.512,2.41 -4.508,2.332 -4.5,2.238 -4.511,2.16 -4.508,2.07 -4.5,1.969 -4.512,1.883 -4.508,1.777 -4.5,1.672 -4.511,1.559 -4.512,1.449 -4.5,1.352 -4.508,1.242 -4.512,1.137 -4.5,1.043 -4.507,0.949 -4.512,0.871 -4.5,0.769 -4.508,0.7 -4.512,0.609 -4.5,0.539 -4.511,0.473 -4.508,0.386 -4.5,0.332 -4.512,0.258 -4.508,0.203 -4.5,0.129 -4.511,0.078 -4.508,0.032 -4.5,-0.032 -4.512,-0.07 -4.508,-0.129 -4.5,-0.168 -4.511,-0.211 -4.512,-0.25 -4.5,-0.289 -4.508,-0.332 -4.512,-0.359 -4.5,-0.391 -4.508,-0.41 -4.511,-0.449 -4.5,-0.469 -4.508,-0.492 -4.512,-0.5 -4.5,-0.527 -4.508,-0.543 -4.511,-0.547 -4.5,-0.563 -4.512,-0.558 -4.508,-0.571 -4.5,-0.57 -4.512,-0.578 -4.507,-0.57 -4.5,-0.583 -4.512,-0.57 -4.508,-0.578 -4.5,-0.582 -4.512,-0.59 -4.511,-0.578 -4.5,-0.59 -4.508,-0.582 -4.512,-0.59 -4.5,-0.59 -4.508,-0.597 -4.511,-0.594 -4.5,-0.59 -4.508,-0.597 -4.512,-0.602 -4.5,-0.598 -4.508,-0.601 -4.511,-0.61 -4.5,-0.601 -4.512,-0.61 -4.508,-0.597 -4.5,-0.613 -4.512,-0.618 -4.508,-0.613 -4.5,-0.609 -4.511,-0.617 -4.508,-0.622 -4.5,-0.621 -4.512,-0.621 -4.508,-0.617 -4.5,-0.633 -4.511,-0.629 -4.512,-0.621 -4.5,-0.629 -4.508,-0.64 -4.512,-0.629 -4.5,-0.641 z"
                   style="fill:#ffa500;fill-opacity:0.149;fill-rule:nonzero;stroke:none"
                   id="path220" />
                <path
                   d="m 588.48,304.672 4.5,0.371 4.512,0.359 4.508,0.371 4.5,0.372 4.512,0.367 4.511,0.371 4.5,0.359 4.508,0.371 4.512,0.371 4.5,0.368 4.508,0.363 4.511,0.367 4.5,0.371 4.508,0.371 4.512,0.36 4.5,0.371 4.508,0.367 4.512,0.371 4.5,0.371 4.511,0.359 4.508,0.372 4.5,0.367 4.512,0.371 4.508,0.359 4.5,0.371 4.511,0.371 4.508,0.36 4.5,0.371 4.512,0.367 4.508,0.371 4.5,0.359 9.023,0.743 4.5,0.359 4.508,0.367 4.512,0.371 4.5,0.371 4.507,0.36 4.512,0.371 4.5,0.367 4.508,0.363 4.512,0.368 4.5,0.363 4.511,0.347 4.508,0.352 4.5,0.348 4.512,0.332 4.508,0.32 4.5,0.309 4.511,0.289 4.508,0.281 4.5,0.262 4.512,0.238 4.508,0.23 4.5,0.2 4.512,0.172 4.511,0.148 4.5,0.129 4.508,0.09 4.512,0.07 4.5,0.031 h 4.508 l 4.511,-0.031 4.5,-0.07 4.508,-0.11 4.512,-0.148 4.5,-0.192 4.508,-0.23 4.511,-0.27 4.5,-0.32 4.512,-0.371 4.508,-0.418 4.5,-0.469 4.512,-0.519 4.507,-0.582 4.5,-0.629 4.512,-0.692 4.508,-0.757 4.5,-0.813 4.512,-0.879 4.511,-0.941 4.5,-1 4.508,-1.07 4.512,-1.118 4.5,-1.179 4.508,-1.223 4.511,-1.277 4.5,-1.321 4.508,-1.363 4.512,-1.406 4.5,-1.434 4.508,-1.476 4.512,-1.5 4.5,-1.532 4.511,-1.55 4.508,-1.578 4.5,-1.59 4.512,-1.602 4.508,-1.621 4.5,-1.617 V 75.082 l -4.5,2.992 -4.508,2.969 -4.512,2.93 -4.5,2.879 -4.508,2.832 -4.511,2.781 -4.5,2.719 -4.512,2.66 -4.508,2.59 -4.5,2.519 -4.512,2.442 -4.508,2.359 -4.5,2.277 -4.511,2.192 -4.508,2.089 -4.5,2.012 -4.512,1.899 -4.508,1.8 -4.5,1.692 -4.511,1.59 -4.512,1.468 -4.5,1.36 -4.508,1.262 -4.512,1.16 -4.5,1.058 -4.507,0.961 -4.512,0.879 -4.5,0.781 -4.508,0.707 -4.512,0.621 -4.5,0.551 -4.511,0.469 -4.508,0.402 -4.5,0.328 -4.512,0.27 -4.508,0.199 -4.5,0.141 -4.511,0.082 -4.508,0.027 -4.5,-0.019 -4.512,-0.078 -4.508,-0.122 -4.5,-0.167 -4.511,-0.223 -4.512,-0.25 -4.5,-0.289 -4.508,-0.328 -4.512,-0.371 -4.5,-0.391 -4.508,-0.422 -4.511,-0.449 -4.5,-0.469 -4.508,-0.5 -4.512,-0.512 -4.5,-0.527 -4.508,-0.543 -4.511,-0.559 -4.5,-0.558 -4.512,-0.582 -4.508,-0.57 -4.5,-0.579 -4.512,-0.582 -4.507,-0.578 -4.5,-0.582 -4.512,-0.59 -4.508,-0.578 -4.5,-0.59 -9.023,-1.179 -4.5,-0.59 -4.508,-0.59 -4.512,-0.602 -4.5,-0.589 -4.508,-0.602 -4.511,-0.598 -4.5,-0.601 -4.508,-0.61 -4.512,-0.597 -4.5,-0.613 -4.508,-0.61 -4.511,-0.609 -4.5,-0.61 -4.512,-0.609 -4.508,-0.621 -4.5,-0.609 -4.512,-0.622 -4.508,-0.621 -4.5,-0.617 -4.511,-0.633 -4.508,-0.617 -4.5,-0.633 -4.512,-0.629 -4.508,-0.628 -4.5,-0.629 -4.511,-0.633 -4.512,-0.641 -4.5,-0.636 -4.508,-0.633 -4.512,-0.649 -4.5,-0.64 z"
                   style="fill:#006400;fill-opacity:0.149;fill-rule:nonzero;stroke:none"
                   id="path222" />
                <g
                   transform="scale(1,-1)"
                   id="g226">
                  <path
                     d="m 588.48,-205.832 4.5,-0.512 4.512,-0.5 4.508,-0.5 4.5,-0.5 9.023,-1 4.5,-0.5 4.508,-0.5 4.512,-0.488 4.5,-0.5 4.508,-0.5 4.511,-0.492 4.5,-0.5 4.508,-0.488 4.512,-0.493 4.5,-0.5 4.508,-0.488 4.512,-0.488 4.5,-0.492 4.511,-0.489 4.508,-0.492 4.5,-0.488 4.512,-0.481 4.508,-0.492 4.5,-0.488 4.511,-0.481 4.508,-0.488 4.5,-0.48 4.512,-0.493 4.508,-0.476 4.5,-0.481 4.511,-0.48 4.512,-0.492 4.5,-0.481 4.508,-0.476 4.512,-0.481 4.5,-0.472 4.507,-0.481 4.512,-0.476 4.5,-0.481 4.508,-0.473 4.512,-0.468 4.5,-0.469 4.511,-0.461 4.508,-0.461 4.5,-0.437 4.512,-0.43 4.508,-0.41 4.5,-0.391 4.511,-0.383 4.508,-0.359 4.5,-0.328 4.512,-0.313 4.508,-0.277 4.5,-0.25 4.512,-0.223 4.511,-0.179 4.5,-0.149 4.508,-0.121 4.512,-0.07 4.5,-0.028 4.508,0.008 4.511,0.051 4.5,0.102 4.508,0.16 4.512,0.199 4.5,0.258 4.508,0.312 4.511,0.379 4.5,0.43 4.512,0.5 4.508,0.558 4.5,0.633 4.512,0.7 4.507,0.769 4.5,0.852 4.512,0.918 4.508,1.011 4.5,1.09 4.512,1.168 4.511,1.27 4.5,1.339 4.508,1.442 4.512,1.512 4.5,1.589 4.508,1.649 4.511,1.73 4.5,1.801 4.508,1.848 4.512,1.922 4.5,1.961 4.508,2.019 4.512,2.07 4.5,2.11 4.511,2.148 4.508,2.18 4.5,2.223 4.512,2.238 4.508,2.269 4.5,2.282"
                     style="fill:none;stroke:#8b0000;stroke-width:2.25;stroke-linecap:round;stroke-linejoin:round;stroke-miterlimit:10;stroke-dasharray:none;stroke-opacity:1"
                     id="path224" />
                </g>
                <g
                   transform="scale(1,-1)"
                   id="g230">
                  <path
                     d="m 588.48,-222.234 4.5,-0.481 4.512,-0.476 4.508,-0.481 4.5,-0.48 4.512,-0.481 4.511,-0.469 4.5,-0.48 4.508,-0.473 4.512,-0.476 4.5,-0.473 4.508,-0.48 4.511,-0.469 4.5,-0.469 4.508,-0.48 4.512,-0.469 4.5,-0.473 4.508,-0.468 4.512,-0.469 4.5,-0.473 4.511,-0.461 4.508,-0.469 4.5,-0.468 4.512,-0.461 4.508,-0.469 4.5,-0.461 4.511,-0.469 4.508,-0.461 4.5,-0.468 4.512,-0.461 4.508,-0.461 4.5,-0.461 4.511,-0.457 4.512,-0.461 4.5,-0.461 4.508,-0.461 4.512,-0.457 4.5,-0.453 4.507,-0.457 4.512,-0.461 4.5,-0.449 4.508,-0.461 4.512,-0.45 4.5,-0.453 4.511,-0.437 4.508,-0.43 4.5,-0.422 4.512,-0.41 4.508,-0.391 4.5,-0.378 4.511,-0.36 4.508,-0.34 4.5,-0.32 4.512,-0.289 4.508,-0.27 4.5,-0.242 4.512,-0.211 4.511,-0.179 4.5,-0.137 4.508,-0.113 4.512,-0.071 4.5,-0.027 4.508,0.008 4.511,0.051 4.5,0.101 4.508,0.141 4.512,0.199 4.5,0.238 4.508,0.313 4.511,0.347 4.5,0.422 4.512,0.469 4.508,0.539 4.5,0.602 4.512,0.668 4.507,0.73 4.5,0.813 4.512,0.886 4.508,0.961 4.5,1.039 4.512,1.121 4.511,1.211 4.5,1.289 4.508,1.372 4.512,1.441 4.5,1.519 4.508,1.59 4.511,1.649 4.5,1.711 4.508,1.769 4.512,1.828 4.5,1.883 4.508,1.93 4.512,1.98 4.5,2.02 4.511,2.051 4.508,2.089 4.5,2.11 4.512,2.148 4.508,2.16 4.5,2.18"
                     style="fill:none;stroke:#ffa500;stroke-width:2.25;stroke-linecap:round;stroke-linejoin:round;stroke-miterlimit:10;stroke-dasharray:none;stroke-opacity:1"
                     id="path228" />
                </g>
                <g
                   transform="scale(1,-1)"
                   id="g234">
                  <path
                     d="m 588.48,-218.062 4.5,-0.493 4.512,-0.488 4.508,-0.48 4.5,-0.481 4.512,-0.488 4.511,-0.481 4.5,-0.48 4.508,-0.481 4.512,-0.488 4.5,-0.48 4.508,-0.469 4.511,-0.481 4.5,-0.48 4.508,-0.48 4.512,-0.481 4.5,-0.469 4.508,-0.48 4.512,-0.473 4.5,-0.476 4.511,-0.473 4.508,-0.469 4.5,-0.48 4.512,-0.469 4.508,-0.473 4.5,-0.468 4.511,-0.469 4.508,-0.473 4.5,-0.469 4.512,-0.461 4.508,-0.468 4.5,-0.469 4.511,-0.461 4.512,-0.469 4.5,-0.461 4.508,-0.468 4.512,-0.461 4.5,-0.461 4.507,-0.469 4.512,-0.461 4.5,-0.461 4.508,-0.461 4.512,-0.449 4.5,-0.457 4.511,-0.441 4.508,-0.442 4.5,-0.43 4.512,-0.41 4.508,-0.398 4.5,-0.379 4.511,-0.371 4.508,-0.34 4.5,-0.32 4.512,-0.301 4.508,-0.27 4.5,-0.242 4.512,-0.207 4.511,-0.18 4.5,-0.152 4.508,-0.109 4.512,-0.071 4.5,-0.039 4.508,0.008 4.511,0.063 4.5,0.097 4.508,0.153 4.512,0.187 4.5,0.25 4.508,0.313 4.511,0.359 4.5,0.422 4.512,0.476 4.508,0.543 4.5,0.61 4.512,0.668 4.507,0.75 4.5,0.82 4.512,0.891 4.508,0.98 4.5,1.051 4.512,1.141 4.511,1.218 4.5,1.301 4.508,1.391 4.512,1.457 4.5,1.531 4.508,1.609 4.511,1.672 4.5,1.731 4.508,1.797 4.512,1.851 4.5,1.899 4.508,1.953 4.512,2 4.5,2.039 4.511,2.078 4.508,2.109 4.5,2.141 4.512,2.172 4.508,2.187 4.5,2.211"
                     style="fill:none;stroke:#006400;stroke-width:2.25;stroke-linecap:round;stroke-linejoin:round;stroke-miterlimit:10;stroke-dasharray:none;stroke-opacity:1"
                     id="path232" />
                </g>
              </g>
            </g>
          </g>
        </g>
      </g>
    </g>
    <g
       id="g242">
      <text
         xml:space="preserve"
         transform="translate(552.30711,15.29297)"
         style="font-variant:normal;font-weight:normal;font-size:20px;font-family:Verdana;-inkscape-font-specification:Verdana;writing-mode:lr-tb;fill:#000000;fill-opacity:1;fill-rule:nonzero;stroke:none"
         id="text246"><tspan
           x="0 13.710938 22.792969 29.824219 44.853516 56.992188 67.412109 79.873047 85.361328 93.242188 105.25391 110.74219 117.77344 130.23438 135.72266 147.73438 160.19531 172.85156 184.99023 195.41016 207.32422 219.78516 226.81641 239.47266 251.38672 263.39844 271.93359 279.81445 286.8457 293.87695 305.88867 311.37695 316.86523 329.52148 338.05664"
           y="0"
           id="tspan244">B) Hospital diagnosed heart failure</tspan></text>
      <g
         id="g248"
         transform="scale(1,-1)">
        <path
           d="M 77.066,-728.867 H 527.727"
           style="fill:none;stroke:#000000;stroke-width:0.75;stroke-linecap:round;stroke-linejoin:round;stroke-miterlimit:10;stroke-dasharray:none;stroke-opacity:1"
           id="path250" />
      </g>
      <g
         id="g252"
         transform="scale(1,-1)">
        <path
           d="m 77.066,-728.867 v -7.199"
           style="fill:none;stroke:#000000;stroke-width:0.75;stroke-linecap:round;stroke-linejoin:round;stroke-miterlimit:10;stroke-dasharray:none;stroke-opacity:1"
           id="path254" />
      </g>
      <g
         id="g256"
         transform="scale(1,-1)">
        <path
           d="m 167.195,-728.867 v -7.199"
           style="fill:none;stroke:#000000;stroke-width:0.75;stroke-linecap:round;stroke-linejoin:round;stroke-miterlimit:10;stroke-dasharray:none;stroke-opacity:1"
           id="path258" />
      </g>
      <g
         id="g260"
         transform="scale(1,-1)">
        <path
           d="m 257.324,-728.867 v -7.199"
           style="fill:none;stroke:#000000;stroke-width:0.75;stroke-linecap:round;stroke-linejoin:round;stroke-miterlimit:10;stroke-dasharray:none;stroke-opacity:1"
           id="path262" />
      </g>
      <g
         id="g264"
         transform="scale(1,-1)">
        <path
           d="m 347.465,-728.867 v -7.199"
           style="fill:none;stroke:#000000;stroke-width:0.75;stroke-linecap:round;stroke-linejoin:round;stroke-miterlimit:10;stroke-dasharray:none;stroke-opacity:1"
           id="path266" />
      </g>
      <g
         id="g268"
         transform="scale(1,-1)">
        <path
           d="m 437.594,-728.867 v -7.199"
           style="fill:none;stroke:#000000;stroke-width:0.75;stroke-linecap:round;stroke-linejoin:round;stroke-miterlimit:10;stroke-dasharray:none;stroke-opacity:1"
           id="path270" />
      </g>
      <g
         id="g272"
         transform="scale(1,-1)">
        <path
           d="m 527.727,-728.867 v -7.199"
           style="fill:none;stroke:#000000;stroke-width:0.75;stroke-linecap:round;stroke-linejoin:round;stroke-miterlimit:10;stroke-dasharray:none;stroke-opacity:1"
           id="path274" />
      </g>
      <text
         xml:space="preserve"
         transform="translate(68.885076,754.78544)"
         style="font-variant:normal;font-weight:normal;font-size:16px;font-family:Helvetica;-inkscape-font-specification:Helvetica;writing-mode:lr-tb;fill:#000000;fill-opacity:1;fill-rule:nonzero;stroke:none"
         id="text278"><tspan
           x="0 8.8984375 90.132874 99.031311 180.26575 189.16418 270.40002 279.29846 360.5329 369.43134 449.17776 458.0762"
           y="0"
           id="tspan276">646668707274</tspan></text>
      <g
         id="g280"
         transform="scale(1,-1)">
        <path
           d="m 59.035,-710.066 v 269.632"
           style="fill:none;stroke:#000000;stroke-width:0.75;stroke-linecap:round;stroke-linejoin:round;stroke-miterlimit:10;stroke-dasharray:none;stroke-opacity:1"
           id="path282" />
      </g>
      <g
         id="g284"
         transform="scale(1,-1)">
        <path
           d="M 59.035,-710.066 H 51.836"
           style="fill:none;stroke:#000000;stroke-width:0.75;stroke-linecap:round;stroke-linejoin:round;stroke-miterlimit:10;stroke-dasharray:none;stroke-opacity:1"
           id="path286" />
      </g>
      <g
         id="g288"
         transform="scale(1,-1)">
        <path
           d="M 59.035,-671.547 H 51.836"
           style="fill:none;stroke:#000000;stroke-width:0.75;stroke-linecap:round;stroke-linejoin:round;stroke-miterlimit:10;stroke-dasharray:none;stroke-opacity:1"
           id="path290" />
      </g>
      <g
         id="g292"
         transform="scale(1,-1)">
        <path
           d="M 59.035,-633.035 H 51.836"
           style="fill:none;stroke:#000000;stroke-width:0.75;stroke-linecap:round;stroke-linejoin:round;stroke-miterlimit:10;stroke-dasharray:none;stroke-opacity:1"
           id="path294" />
      </g>
      <g
         id="g296"
         transform="scale(1,-1)">
        <path
           d="M 59.035,-594.516 H 51.836"
           style="fill:none;stroke:#000000;stroke-width:0.75;stroke-linecap:round;stroke-linejoin:round;stroke-miterlimit:10;stroke-dasharray:none;stroke-opacity:1"
           id="path298" />
      </g>
      <g
         id="g300"
         transform="scale(1,-1)">
        <path
           d="M 59.035,-555.996 H 51.836"
           style="fill:none;stroke:#000000;stroke-width:0.75;stroke-linecap:round;stroke-linejoin:round;stroke-miterlimit:10;stroke-dasharray:none;stroke-opacity:1"
           id="path302" />
      </g>
      <g
         id="g304"
         transform="scale(1,-1)">
        <path
           d="M 59.035,-517.477 H 51.836"
           style="fill:none;stroke:#000000;stroke-width:0.75;stroke-linecap:round;stroke-linejoin:round;stroke-miterlimit:10;stroke-dasharray:none;stroke-opacity:1"
           id="path306" />
      </g>
      <g
         id="g308"
         transform="scale(1,-1)">
        <path
           d="M 59.035,-478.957 H 51.836"
           style="fill:none;stroke:#000000;stroke-width:0.75;stroke-linecap:round;stroke-linejoin:round;stroke-miterlimit:10;stroke-dasharray:none;stroke-opacity:1"
           id="path310" />
      </g>
      <g
         id="g312"
         transform="scale(1,-1)">
        <path
           d="M 59.035,-440.434 H 51.836"
           style="fill:none;stroke:#000000;stroke-width:0.75;stroke-linecap:round;stroke-linejoin:round;stroke-miterlimit:10;stroke-dasharray:none;stroke-opacity:1"
           id="path314" />
      </g>
      <text
         xml:space="preserve"
         transform="rotate(-90,378.33026,336.57518)"
         style="font-variant:normal;font-weight:normal;font-size:16px;font-family:Helvetica;-inkscape-font-specification:Helvetica;writing-mode:lr-tb;fill:#000000;fill-opacity:1;fill-rule:nonzero;stroke:none"
         id="text318"><tspan
           x="0 35.186436 44.084873 73.703316 82.601753 112.22018 121.11862 150.73706 159.6355 189.25394 198.15237 227.78682 236.68526 266.28769 275.18613"
           y="0"
           id="tspan316">510152025303540</tspan></text>
      <text
         xml:space="preserve"
         transform="translate(259.50508,783.58544)"
         style="font-variant:normal;font-weight:normal;font-size:18px;font-family:Helvetica;-inkscape-font-specification:Helvetica;writing-mode:lr-tb;fill:#000000;fill-opacity:1;fill-rule:nonzero;stroke:none"
         id="text324"><tspan
           x="0 12.005859 22.016602 32.027344 37.02832 43.022461 52.022461 62.033203 72.043945 78.038086 87.038086 93.032227"
           y="0"
           id="tspan320">Age (years) </tspan><tspan
           x="519.0462 531.05206 541.06281 551.07355 556.07452 562.06866 571.06866 581.07941 591.09015 597.08429 606.08429 612.07843"
           y="-394.17746"
           id="tspan322">Age (years) </tspan></text>
      <text
         xml:space="preserve"
         transform="rotate(-90,357.07526,344.12018)"
         style="font-variant:normal;font-weight:normal;font-size:18px;font-family:Helvetica;-inkscape-font-specification:Helvetica;writing-mode:lr-tb;fill:#000000;fill-opacity:1;fill-rule:nonzero;stroke:none"
         id="text328"><tspan
           x="0 5.0009766 15.011719 24.011719 28.010742 38.021484 48.032227 58.042969 67.042969 77.053711 82.054688 92.06543 102.07617 108.07031 113.07129 123.08203 133.09277 143.10352 153.11426 158.11523 168.12598 178.13672 184.13086 193.13086 203.1416"
           y="0"
           id="tspan326">Incidence per 1000 person</tspan></text>
      <text
         xml:space="preserve"
         transform="rotate(-90,250.49909,237.54401)"
         style="font-variant:normal;font-weight:normal;font-size:18px;font-family:Helvetica;-inkscape-font-specification:Helvetica;writing-mode:lr-tb;fill:#000000;fill-opacity:1;fill-rule:nonzero;stroke:none"
         id="text332"><tspan
           x="0"
           y="0"
           id="tspan330">−</tspan></text>
      <text
         xml:space="preserve"
         transform="rotate(-90,245.24323,232.28815)"
         style="font-variant:normal;font-weight:normal;font-size:18px;font-family:Helvetica;-inkscape-font-specification:Helvetica;writing-mode:lr-tb;fill:#000000;fill-opacity:1;fill-rule:nonzero;stroke:none"
         id="text336"><tspan
           x="0 9 19.010742 29.021484 35.015625"
           y="0"
           id="tspan334">years</tspan></text>
    </g>
    <g
       id="g338">
      <g
         id="g340"
         clip-path="url(#clipPath344)">
        <g
           id="g346">
          <g
             id="g348" />
          <g
             id="g376">
            <g
               clip-path="url(#clipPath352)"
               id="g374">
              <g
                 id="g372">
                <path
                   d="m 77.066,703.895 4.5,-0.391 4.508,-0.387 4.512,-0.39 4.5,-0.391 4.508,-0.402 4.511,-0.399 4.5,-0.398 4.508,-0.403 4.512,-0.398 4.5,-0.41 4.512,-0.41 4.508,-0.411 4.5,-0.41 4.511,-0.41 4.508,-0.418 4.5,-0.422 4.512,-0.418 4.508,-0.422 4.5,-0.421 4.511,-0.43 4.508,-0.43 4.5,-0.429 4.512,-0.43 4.512,-0.438 4.5,-0.433 4.507,-0.438 4.512,-0.441 4.5,-0.438 4.508,-0.453 4.512,-0.449 4.5,-0.441 4.507,-0.45 4.512,-0.457 4.5,-0.453 4.512,-0.457 4.508,-0.453 4.5,-0.457 4.511,-0.461 4.508,-0.469 4.5,-0.461 4.512,-0.472 4.508,-0.469 4.5,-0.469 4.511,-0.48 4.508,-0.469 4.5,-0.48 4.512,-0.493 4.512,-0.48 4.5,-0.5 4.508,-0.488 4.511,-0.5 4.5,-0.512 4.508,-0.508 4.512,-0.519 4.5,-0.532 4.508,-0.531 4.511,-0.539 4.5,-0.551 4.508,-0.558 4.512,-0.571 4.5,-0.57 4.512,-0.59 4.507,-0.601 4.5,-0.61 4.512,-0.617 4.508,-0.633 4.5,-0.648 4.512,-0.66 4.507,-0.68 4.5,-0.691 4.512,-0.711 4.512,-0.719 4.5,-0.738 4.508,-0.762 4.511,-0.77 4.5,-0.8 4.508,-0.809 4.512,-0.832 4.5,-0.848 4.508,-0.871 4.511,-0.89 4.5,-0.911 4.508,-0.929 4.512,-0.95 4.5,-0.96 4.512,-0.981 4.508,-0.988 4.5,-1 4.511,-1.02 4.508,-1.031 4.5,-1.039 4.512,-1.039 4.508,-1.063 4.5,-1.058 4.511,-1.059 4.508,-1.082 4.5,-1.07 4.512,-1.078 4.512,-1.071 4.5,-1.082 V 392.895 l -4.5,3.32 -4.512,3.25 -4.512,3.18 -4.5,3.121 -4.508,3.05 -4.511,3 -4.5,2.938 -4.508,2.883 -4.512,2.828 -4.5,2.781 -4.508,2.738 -4.511,2.7 -4.5,2.652 -4.508,2.621 -4.512,2.578 -4.5,2.559 -4.512,2.531 -4.508,2.5 -4.5,2.492 -4.511,2.457 -4.508,2.453 -4.5,2.438 -4.512,2.43 -4.508,2.41 -4.5,2.41 -4.511,2.39 -4.508,2.379 -4.5,2.383 -9.024,4.719 -4.5,2.34 -4.507,2.34 -4.512,2.32 -4.5,2.32 -4.508,2.301 -4.512,2.289 -4.5,2.27 -4.507,2.269 -4.512,2.25 -4.5,2.231 -4.512,2.218 -4.508,2.211 -4.5,2.18 -4.511,2.18 -4.508,2.152 -4.5,2.129 -4.512,2.121 -4.508,2.098 -4.5,2.082 -4.511,2.058 -4.508,2.032 -4.5,2.019 -4.512,2 -4.512,1.969 -4.5,1.961 -4.508,1.929 -4.511,1.911 -4.5,1.89 -4.508,1.871 -4.512,1.848 -4.5,1.82 -4.508,1.801 -4.511,1.789 -4.5,1.762 -4.508,1.738 -4.512,1.719 -4.5,1.703 -4.512,1.68 -4.507,1.668 -4.5,1.64 -4.512,1.621 -4.508,1.61 -4.5,1.578 -4.512,1.57 -4.507,1.551 -4.5,1.531 -4.512,1.52 -4.512,1.488 -4.5,1.481 -4.508,1.472 -4.511,1.438 -4.5,1.429 -4.508,1.411 -4.512,1.402 -4.5,1.379 -4.508,1.371 -4.511,1.348 -4.5,1.332 -4.508,1.32 -4.512,1.308 -4.5,1.29 -4.512,1.269 -4.508,1.262 -4.5,1.25 -4.511,1.238 -4.508,1.211 -4.5,1.211 -4.512,1.191 -4.508,1.18 -4.5,1.168 z"
                   style="fill:#8b0000;fill-opacity:0.149;fill-rule:nonzero;stroke:none"
                   id="path354" />
                <path
                   d="m 77.066,717.895 4.5,-0.27 4.508,-0.27 4.512,-0.269 4.5,-0.27 4.508,-0.281 4.511,-0.281 4.5,-0.27 4.508,-0.277 4.512,-0.281 4.5,-0.289 4.512,-0.282 4.508,-0.281 4.5,-0.289 4.511,-0.289 4.508,-0.289 4.5,-0.293 4.512,-0.289 4.508,-0.289 4.5,-0.301 4.511,-0.289 4.508,-0.301 4.5,-0.3 4.512,-0.301 4.512,-0.297 4.5,-0.301 4.507,-0.312 4.512,-0.297 4.5,-0.313 4.508,-0.308 4.512,-0.309 4.5,-0.312 4.507,-0.309 4.512,-0.309 4.5,-0.312 4.512,-0.32 4.508,-0.309 4.5,-0.32 4.511,-0.321 4.508,-0.32 4.5,-0.32 4.512,-0.321 4.508,-0.328 4.5,-0.32 4.511,-0.332 4.508,-0.328 4.5,-0.332 4.512,-0.328 4.512,-0.34 4.5,-0.332 4.508,-0.348 4.511,-0.34 4.5,-0.351 4.508,-0.348 4.512,-0.363 4.5,-0.36 4.508,-0.359 4.511,-0.371 4.5,-0.379 4.508,-0.379 4.512,-0.391 4.5,-0.39 4.512,-0.399 4.507,-0.41 4.5,-0.422 4.512,-0.418 4.508,-0.429 4.5,-0.453 4.512,-0.45 4.507,-0.457 4.5,-0.472 4.512,-0.481 4.512,-0.488 4.5,-0.5 4.508,-0.52 4.511,-0.531 4.5,-0.531 4.508,-0.559 4.512,-0.558 4.5,-0.571 4.508,-0.589 4.511,-0.61 4.5,-0.613 4.508,-0.629 4.512,-0.629 4.5,-0.652 4.512,-0.66 4.508,-0.668 4.5,-0.672 4.511,-0.68 4.508,-0.687 4.5,-0.692 4.512,-0.699 4.508,-0.699 4.5,-0.711 4.511,-0.699 4.508,-0.711 4.5,-0.711 4.512,-0.711 4.512,-0.707 4.5,-0.711 V 527.434 l -4.5,2.152 -4.512,2.098 -4.512,2.05 -4.5,2.012 -4.508,1.969 -4.511,1.93 -4.5,1.89 -4.508,1.852 -4.512,1.82 -4.5,1.777 -4.508,1.75 -4.511,1.723 -4.5,1.688 -4.508,1.66 -4.512,1.652 -4.5,1.617 -4.512,1.602 -4.508,1.578 -4.5,1.57 -4.511,1.563 -4.508,1.539 -4.5,1.531 -4.512,1.527 -4.508,1.512 -4.5,1.508 -4.511,1.5 -4.508,1.492 -4.5,1.488 -4.512,1.481 -4.512,1.469 -4.5,1.461 -4.507,1.46 -4.512,1.442 -4.5,1.449 -4.508,1.43 -4.512,1.418 -4.5,1.422 -4.507,1.41 -4.512,1.39 -4.5,1.391 -4.512,1.379 -4.508,1.371 -4.5,1.348 -4.511,1.351 -4.508,1.328 -4.5,1.332 -4.512,1.309 -4.508,1.289 -4.5,1.293 -4.511,1.27 -4.508,1.257 -4.5,1.25 -4.512,1.231 -4.512,1.219 -4.5,1.211 -4.508,1.191 -4.511,1.18 -4.5,1.16 -4.508,1.148 -4.512,1.141 -4.5,1.121 -4.508,1.109 -4.511,1.102 -4.5,1.09 -4.508,1.07 -4.512,1.059 -4.5,1.039 -4.512,1.031 -4.507,1.019 -4.5,1.012 -4.512,1 -4.508,0.988 -4.5,0.969 -4.512,0.961 -4.507,0.949 -4.5,0.942 -4.512,0.929 -4.512,0.922 -4.5,0.899 -4.508,0.898 -4.511,0.883 -4.5,0.879 -4.508,0.859 -4.512,0.86 -4.5,0.84 -4.508,0.839 -4.511,0.821 -4.5,0.82 -4.508,0.801 -4.512,0.801 -4.5,0.789 -4.512,0.781 -4.508,0.769 -4.5,0.758 -4.511,0.75 -4.508,0.742 -4.5,0.739 -4.512,0.722 -4.508,0.719 -4.5,0.711 z"
                   style="fill:#ffa500;fill-opacity:0.149;fill-rule:nonzero;stroke:none"
                   id="path356" />
                <path
                   d="m 77.066,724.336 4.5,-0.211 4.508,-0.219 4.512,-0.211 4.5,-0.218 4.508,-0.223 4.511,-0.219 4.5,-0.219 4.508,-0.23 4.512,-0.219 4.5,-0.222 4.512,-0.231 4.508,-0.23 4.5,-0.227 4.511,-0.223 4.508,-0.238 4.5,-0.23 4.512,-0.231 4.508,-0.23 4.5,-0.239 4.511,-0.23 4.508,-0.242 4.5,-0.239 4.512,-0.238 4.512,-0.242 4.5,-0.238 4.507,-0.242 4.512,-0.25 4.5,-0.239 4.508,-0.25 4.512,-0.242 4.5,-0.25 4.507,-0.25 4.512,-0.25 4.5,-0.25 4.512,-0.25 4.508,-0.25 4.5,-0.258 4.511,-0.25 4.508,-0.261 4.5,-0.25 4.512,-0.258 4.508,-0.262 4.5,-0.258 4.511,-0.262 4.508,-0.261 4.5,-0.258 9.024,-0.539 4.5,-0.27 4.508,-0.273 4.511,-0.27 4.5,-0.277 4.508,-0.281 4.512,-0.281 4.5,-0.29 4.508,-0.289 4.511,-0.3 4.5,-0.301 4.508,-0.301 4.512,-0.309 4.5,-0.308 4.512,-0.32 4.507,-0.321 4.5,-0.332 4.512,-0.34 4.508,-0.339 4.5,-0.348 4.512,-0.352 4.507,-0.371 4.5,-0.367 4.512,-0.383 4.512,-0.379 4.5,-0.398 4.508,-0.402 4.511,-0.418 4.5,-0.422 4.508,-0.43 4.512,-0.441 4.5,-0.45 4.508,-0.457 4.511,-0.472 4.5,-0.481 4.508,-0.488 4.512,-0.5 4.5,-0.5 4.512,-0.512 4.508,-0.519 4.5,-0.52 4.511,-0.531 4.508,-0.527 4.5,-0.543 4.512,-0.539 4.508,-0.54 4.5,-0.539 4.511,-0.55 4.508,-0.539 4.5,-0.551 4.512,-0.539 4.512,-0.551 4.5,-0.551 v -117.07 l -4.5,1.742 -4.512,1.699 -4.512,1.66 -4.5,1.629 -4.508,1.59 -4.511,1.559 -4.5,1.531 -4.508,1.492 -4.512,1.469 -4.5,1.43 -4.508,1.41 -4.511,1.39 -4.5,1.36 -4.508,1.34 -4.512,1.32 -4.5,1.301 -4.512,1.277 -4.508,1.27 -4.5,1.261 -4.511,1.239 -4.508,1.23 -4.5,1.223 -4.512,1.207 -4.508,1.211 -4.5,1.191 -4.511,1.188 -4.508,1.183 -4.5,1.18 -4.512,1.168 -4.512,1.16 -4.5,1.152 -4.507,1.149 -4.512,1.14 -4.5,1.129 -4.508,1.129 -4.512,1.121 -4.5,1.11 -4.507,1.101 -4.512,1.098 -4.5,1.09 -4.512,1.082 -4.508,1.07 -4.5,1.059 -4.511,1.05 -4.508,1.051 -4.5,1.028 -4.512,1.031 -4.508,1.012 -4.5,1 -4.511,1 -4.508,0.98 -4.5,0.969 -4.512,0.961 -4.512,0.949 -4.5,0.949 -4.508,0.922 -4.511,0.918 -4.5,0.91 -4.508,0.899 -4.512,0.882 -4.5,0.879 -4.508,0.871 -4.511,0.848 -4.5,0.852 -4.508,0.828 -4.512,0.832 -4.5,0.808 -4.512,0.813 -4.507,0.789 -4.5,0.789 -4.512,0.77 -4.508,0.769 -4.5,0.762 -4.512,0.75 -4.507,0.738 -4.5,0.731 -4.512,0.73 -4.512,0.711 -4.5,0.711 -4.508,0.699 -4.511,0.688 -4.5,0.683 -4.508,0.668 -4.512,0.672 -4.5,0.66 -4.508,0.649 -4.511,0.64 -4.5,0.641 -4.508,0.617 -4.512,0.633 -4.5,0.609 -4.512,0.61 -4.508,0.601 -4.5,0.59 -4.511,0.59 -4.508,0.578 -4.5,0.57 -4.512,0.571 -4.508,0.558 -4.5,0.551 z"
                   style="fill:#006400;fill-opacity:0.149;fill-rule:nonzero;stroke:none"
                   id="path358" />
                <g
                   transform="scale(1,-1)"
                   id="g362">
                  <path
                     d="m 77.066,-665.906 4.5,0.672 4.508,0.679 4.512,0.688 4.5,0.691 4.508,0.692 4.511,0.699 4.5,0.711 4.508,0.707 4.512,0.722 4.5,0.731 4.512,0.73 4.508,0.727 4.5,0.742 4.511,0.75 4.508,0.758 4.5,0.762 4.512,0.761 4.508,0.778 4.5,0.769 4.511,0.793 4.508,0.789 4.5,0.801 4.512,0.797 4.512,0.82 4.5,0.813 4.507,0.828 4.512,0.832 4.5,0.84 4.508,0.84 4.512,0.847 4.5,0.86 4.507,0.871 4.512,0.871 4.5,0.879 4.512,0.89 4.508,0.891 4.5,0.898 4.511,0.911 4.508,0.921 4.5,0.918 4.512,0.93 4.508,0.942 4.5,0.949 4.511,0.949 4.508,0.973 4.5,0.968 4.512,0.981 4.512,0.988 4.5,1 4.508,1.012 4.511,1.019 4.5,1.032 4.508,1.039 4.512,1.05 4.5,1.059 4.508,1.082 4.511,1.078 4.5,1.102 4.508,1.109 4.512,1.129 4.5,1.129 4.512,1.152 4.507,1.168 4.5,1.18 4.512,1.191 4.508,1.211 4.5,1.219 4.512,1.242 4.507,1.258 4.5,1.27 4.512,1.289 4.512,1.312 4.5,1.328 4.508,1.34 4.511,1.371 4.5,1.379 4.508,1.41 4.512,1.422 4.5,1.449 4.508,1.469 4.511,1.492 4.5,1.52 4.508,1.531 4.512,1.559 4.5,1.578 4.512,1.613 4.508,1.617 4.5,1.653 4.511,1.668 4.508,1.691 4.5,1.711 4.512,1.73 4.508,1.758 4.5,1.77 4.511,1.789 4.508,1.82 4.5,1.832 4.512,1.86 4.512,1.871 4.5,1.89"
                     style="fill:none;stroke:#8b0000;stroke-width:2.25;stroke-linecap:round;stroke-linejoin:round;stroke-miterlimit:10;stroke-dasharray:none;stroke-opacity:1"
                     id="path360" />
                </g>
                <g
                   transform="scale(1,-1)"
                   id="g366">
                  <path
                     d="m 77.066,-694.695 4.5,0.441 4.508,0.438 4.512,0.441 4.5,0.449 4.508,0.461 4.511,0.449 4.5,0.469 4.508,0.461 4.512,0.469 4.5,0.472 4.512,0.481 4.508,0.48 4.5,0.477 4.511,0.492 4.508,0.488 4.5,0.493 4.512,0.5 4.508,0.507 4.5,0.5 4.511,0.52 4.508,0.512 4.5,0.519 4.512,0.531 4.512,0.528 4.5,0.531 4.507,0.539 4.512,0.543 4.5,0.539 4.508,0.551 4.512,0.559 4.5,0.558 4.507,0.563 4.512,0.57 4.5,0.578 4.512,0.57 4.508,0.59 4.5,0.582 4.511,0.598 4.508,0.59 4.5,0.601 4.512,0.61 4.508,0.609 4.5,0.621 4.511,0.621 4.508,0.629 4.5,0.629 4.512,0.641 4.512,0.648 4.5,0.652 4.508,0.661 4.511,0.66 4.5,0.679 4.508,0.668 4.512,0.692 4.5,0.691 4.508,0.699 4.511,0.711 4.5,0.707 4.508,0.731 4.512,0.73 4.5,0.739 4.512,0.75 4.507,0.761 4.5,0.77 4.512,0.781 4.508,0.781 4.5,0.797 4.512,0.813 4.507,0.82 4.5,0.828 4.512,0.84 4.512,0.852 4.5,0.867 4.508,0.883 4.511,0.879 4.5,0.91 4.508,0.91 4.512,0.93 4.5,0.949 4.508,0.949 4.511,0.98 4.5,0.981 4.508,1 4.512,1.019 4.5,1.032 4.512,1.05 4.508,1.051 4.5,1.078 4.511,1.09 4.508,1.102 4.5,1.109 4.512,1.129 4.508,1.152 4.5,1.149 4.511,1.168 4.508,1.183 4.5,1.2 4.512,1.207 4.512,1.222 4.5,1.231"
                     style="fill:none;stroke:#ffa500;stroke-width:2.25;stroke-linecap:round;stroke-linejoin:round;stroke-miterlimit:10;stroke-dasharray:none;stroke-opacity:1"
                     id="path364" />
                </g>
                <g
                   transform="scale(1,-1)"
                   id="g370">
                  <path
                     d="m 77.066,-706.094 4.5,0.348 4.508,0.34 4.512,0.359 4.5,0.352 4.508,0.359 4.511,0.359 4.5,0.36 4.508,0.371 4.512,0.371 4.5,0.371 4.512,0.367 4.508,0.383 4.5,0.379 4.511,0.391 4.508,0.39 4.5,0.387 4.512,0.391 4.508,0.402 4.5,0.398 4.511,0.399 4.508,0.41 4.5,0.41 4.512,0.41 4.512,0.422 4.5,0.418 4.507,0.422 4.512,0.43 4.5,0.429 4.508,0.43 4.512,0.441 4.5,0.438 4.507,0.453 4.512,0.449 4.5,0.45 4.512,0.46 4.508,0.45 4.5,0.468 4.511,0.461 4.508,0.481 4.5,0.469 4.512,0.48 4.508,0.481 4.5,0.488 4.511,0.492 4.508,0.488 4.5,0.5 4.512,0.512 4.512,0.508 4.5,0.512 4.508,0.519 4.511,0.52 4.5,0.531 4.508,0.539 4.512,0.539 4.5,0.543 4.508,0.559 4.511,0.55 4.5,0.571 4.508,0.57 4.512,0.578 4.5,0.582 4.512,0.59 4.507,0.598 4.5,0.609 4.512,0.613 4.508,0.617 4.5,0.633 4.512,0.637 4.507,0.641 4.5,0.66 4.512,0.66 4.512,0.672 4.5,0.679 4.508,0.7 4.511,0.699 4.5,0.711 4.508,0.719 4.512,0.73 4.5,0.75 4.508,0.75 4.511,0.77 4.5,0.781 4.508,0.789 4.512,0.801 4.5,0.808 4.512,0.832 4.508,0.828 4.5,0.852 4.511,0.848 4.508,0.871 4.5,0.879 4.512,0.89 4.508,0.903 4.5,0.918 4.511,0.921 4.508,0.93 4.5,0.938 9.024,1.922 4.5,0.968"
                     style="fill:none;stroke:#006400;stroke-width:2.25;stroke-linecap:round;stroke-linejoin:round;stroke-miterlimit:10;stroke-dasharray:none;stroke-opacity:1"
                     id="path368" />
                </g>
              </g>
            </g>
          </g>
        </g>
      </g>
    </g>
    <g
       id="g378">
      <text
         xml:space="preserve"
         transform="translate(40.439456,404.85545)"
         style="font-variant:normal;font-weight:normal;font-size:20px;font-family:Helvetica;-inkscape-font-specification:Helvetica;writing-mode:lr-tb;fill:#000000;fill-opacity:1;fill-rule:nonzero;stroke:none"
         id="text382"><tspan
           x="0 14.443359 21.103516 25.560156 38.900002 43.343361"
           y="0"
           id="tspan380">C) All</tspan></text>
      <text
         xml:space="preserve"
         transform="translate(88.226175,404.85545)"
         style="font-variant:normal;font-weight:normal;font-size:20px;font-family:Helvetica;-inkscape-font-specification:Helvetica;writing-mode:lr-tb;fill:#000000;fill-opacity:1;fill-rule:nonzero;stroke:none"
         id="text386"><tspan
           x="0"
           y="0"
           id="tspan384">−</tspan></text>
      <text
         xml:space="preserve"
         transform="translate(99.905862,404.85545)"
         style="font-variant:normal;font-weight:normal;font-size:20px;font-family:Helvetica;-inkscape-font-specification:Helvetica;writing-mode:lr-tb;fill:#000000;fill-opacity:1;fill-rule:nonzero;stroke:none"
         id="text390"><tspan
           x="0 10 21.123047 32.246094 42.246094 53.369141 58.925781 75.585938 86.708984 93.369141 98.925781 110.04883 114.49219 118.93555 124.49219"
           y="0"
           id="tspan388">cause mortality</tspan></text>
    </g>
  </g>
</svg>
